/* XPM */
static char *result[] = {
/* columns rows colors chars-per-pixel */
"64 64 12 1 ",
"  c black",
". c #381858",
"X c #103840",
"o c #424A4A",
"O c #4A5252",
"+ c #4A5A5A",
"@ c #526363",
"# c #407078",
"$ c #604080",
"% c #8860B8",
"& c #489098",
"* c #50B8B0",
/* pixels */
"ooooOOOOOOOOOOOOOOOOOOOOOO@@@@@@ooooOOOOOOOOOOOOOOOOOOOOOO@@@@@@",
"ooooOOOOOOOOOOOOOOOOOOOOOO@@@@@@ooooOOOOOOOOOOOOOOOOOOOOOO@@@@@@",
"ooooooOO++OOOOOOOOOOOOOOOOOO++ooooooooOO++OOOOOOOOOOOOOOOOOO++oo",
"ooooooOO++OOOOOOOOOOOOOOOOOO++ooooooooOO++OOOOOOOOOOOOOOOOOO++oo",
"ooOOOO@@@@@@@@OOOOOOOOOOOOOOOOOOooOOOO@@@@@@@@OOOOOOOOOOOOOOOOOO",
"ooOOOO@@@@@@@@OOOOOOOOOOOOOOOOOOooOOOO@@@@@@@@OOOOOOOOOOOOOOOOOO",
"OOOO++@@@@@@++++OOOOOOOOOOOOOOOOOOOO++@@@@@@++++OOOOOOOOOOOOOOOO",
"OOOO++@@@@@@++++OOOOOOOOOOOOOOOOOOOO++@@@@@@++++OOOOOOOOOOOOOOOO",
"OOOOOOOOOOOOOOOOOOOOOOOO@@@@@@OOOOOOOOOOOOOOOOOOOOOOOOOO@@@@@@OO",
"OOOOOOOOOOOOOOOOOOOOOOOO@@@@@@OOOOOOOOOOOOOOOOOOOOOOOOOO@@@@@@OO",
"++OOOOOOooooooooOOOO@@@@@@@@@@++++OOOOOOooooooooOOOO@@@@@@@@@@++",
"++OOOOOOooooooooOOOO@@@@@@@@@@++++OOOOOOooooooooOOOO@@@@@@@@@@++",
"OOOOXXXXXXooooooooOO++@@@@++++OOOOOOOOooooooooooooOOXXXXXX++++OO",
"OOOOXXXXXXooooooooOO++@@@@++++OOOOOOOOooooooooooooOOXXXXXX++++OO",
"++XX******XXXXOOOOOOOOOO  XX@@@@++XX  OOOOooooOOXXXX******XX@@@@",
"++XX******XXXXOOOOOOOOOO  XX@@@@++XX  OOOOooooOOXXXX******XX@@@@",
"@@@@XX..%%****XX++@@@@  **XXXXXXXXXX**  OOOOOOXX****%%..XX@@@@@@",
"@@@@XX..%%****XX++@@@@  **XXXXXXXXXX**  OOOOOOXX****%%..XX@@@@@@",
"@@@@++..%%%%$$**XX@@@@  **##******##**  ooooXX**$$%%%%..OO++++@@",
"@@@@++..%%%%$$**XX@@@@  **##******##**  ooooXX**$$%%%%..OO++++@@",
"++oooooo..$$%%**XXOO  &&**************&&  OOXX**%%$$..OOOOOO++++",
"++oooooo..$$%%**XXOO  &&**************&&  OOXX**%%$$..OOOOOO++++",
"OOoooooo..%%%%&&XXoo  &&**************&&  ooXX&&%%%%..OOOOOOOOOO",
"OOoooooo..%%%%&&XXoo  &&**************&&  ooXX&&%%%%..OOOOOOOOOO",
"OOOOoooo..%%%%&&XXoo  ##**************##  OOXX&&%%%%..ooooOOOOOO",
"OOOOoooo..%%%%&&XXoo  ##**************##  OOXX&&%%%%..ooooOOOOOO",
"OOOOOO++++..%%$$&&XX  ##&&**********&&##  XX&&$$%%..ooOOOOOOOOOO",
"OOOOOO++++..%%$$&&XX  ##&&**********&&##  XX&&$$%%..ooOOOOOOOOOO",
"OOOO++@@@@..$$$$##&&  ####&&&&&&&&&&####  &&##$$$$..OOOOOOOO@@++",
"OOOO++@@@@..$$$$##&&  ####&&&&&&&&&&####  &&##$$$$..OOOOOOOO@@++",
"OOOOOO@@@@..$$$$$$##&&##################&&##$$$$$$..OOOO++@@@@@@",
"OOOOOO@@@@..$$$$$$##&&##################&&##$$$$$$..OOOO++@@@@@@",
"ooooOOOOOO....$$$$$$$$##################$$$$$$$$....OOOOOO@@@@@@",
"ooooOOOOOO....$$$$$$$$##################$$$$$$$$....OOOOOO@@@@@@",
"ooooooOO++OOOO....$$XX##################XX$$....OOOOOOOOOOOO++oo",
"ooooooOO++OOOO....$$XX##################XX$$....OOOOOOOOOOOO++oo",
"ooOOOO@@@@@@@@OOOO..  ##################  ..@@OOOOOOOOOOOOOOOOOO",
"ooOOOO@@@@@@@@OOOO..  ##################  ..@@OOOOOOOOOOOOOOOOOO",
"OOOO++@@@@@@++++OOOO  XX##############XX  @@++++OOOOOOOOOOOOOOOO",
"OOOO++@@@@@@++++OOOO  XX##############XX  @@++++OOOOOOOOOOOOOOOO",
"OOOOOOOOOOOOOOOOOOOOOO  ##############  OOOOOOOOOOOOOOOO@@@@@@OO",
"OOOOOOOOOOOOOOOOOOOOOO  ##############  OOOOOOOOOOOOOOOO@@@@@@OO",
"++OOOOOOooooooooOOOO@@XX  ##########  XXooooooooOOOO@@@@@@@@@@++",
"++OOOOOOooooooooOOOO@@XX  ##########  XXooooooooOOOO@@@@@@@@@@++",
"OOOOOOooooooooooooOO++XX##          ##XXooooooooooOO++@@@@++++OO",
"OOOOOOooooooooooooOO++XX##          ##XXooooooooooOO++@@@@++++OO",
"++OOOOOOOOooooOOOOOOOOXX##XX@@@@++XX##XXOOooooOOOOOOOOOOOOOO@@@@",
"++OOOOOOOOooooOOOOOOOOXX##XX@@@@++XX##XXOOooooOOOOOOOOOOOOOO@@@@",
"@@@@OOOOOOOOOOOO++@@@@OOXX@@@@@@@@@@XXOOOOOOOOOO++@@@@OOOO@@@@@@",
"@@@@OOOOOOOOOOOO++@@@@OOXX@@@@@@@@@@XXOOOOOOOOOO++@@@@OOOO@@@@@@",
"@@@@++ooooooOOOOOO@@@@++OO++++@@@@@@++ooooooOOOOOO@@@@++OO++++@@",
"@@@@++ooooooOOOOOO@@@@++OO++++@@@@@@++ooooooOOOOOO@@@@++OO++++@@",
"++ooooooooOOOOOOOOOOOOOOOOOO++++++ooooooooOOOOOOOOOOOOOOOOOO++++",
"++ooooooooOOOOOOOOOOOOOOOOOO++++++ooooooooOOOOOOOOOOOOOOOOOO++++",
"OOooooooooooOOooooooOOOOOOOOOOOOOOooooooooooOOooooooOOOOOOOOOOOO",
"OOooooooooooOOooooooOOOOOOOOOOOOOOooooooooooOOooooooOOOOOOOOOOOO",
"OOOOooooooOOooooooooooooooOOOOOOOOOOooooooOOooooooooooooooOOOOOO",
"OOOOooooooOOooooooooooooooOOOOOOOOOOooooooOOooooooooooooooOOOOOO",
"OOOOOO++++++OOooooooooOOOOOOOOOOOOOOOO++++++OOooooooooOOOOOOOOOO",
"OOOOOO++++++OOooooooooOOOOOOOOOOOOOOOO++++++OOooooooooOOOOOOOOOO",
"OOOO++@@@@++++OOOOOOOOOOOOOO@@++OOOO++@@@@++++OOOOOOOOOOOOOO@@++",
"OOOO++@@@@++++OOOOOOOOOOOOOO@@++OOOO++@@@@++++OOOOOOOOOOOOOO@@++",
"OOOOOO@@@@++OOOOOOOOOOOO++@@@@@@OOOOOO@@@@++OOOOOOOOOOOO++@@@@@@",
"OOOOOO@@@@++OOOOOOOOOOOO++@@@@@@OOOOOO@@@@++OOOOOOOOOOOO++@@@@@@"
};
