/* XPM */
static char *result[] = {
/* columns rows colors chars-per-pixel */
"64 64 15 1 ",
"  c black",
". c #381858",
"X c #103840",
"o c #383850",
"O c #424A4A",
"+ c #4A5252",
"@ c #4A5A5A",
"# c #526363",
"$ c #407078",
"% c #604080",
"& c #8860B8",
"* c #489098",
"= c #50B8B0",
"- c #B8B8C0",
"; c #E8E8F8",
/* pixels */
"OOOO++++++++++++++++++++++######OOOO++++++++++++++++++++++######",
"OOOO++++++++++++++++++++++######OOOO++++++++++++++++++++++######",
"OOOOOO++@@++++++++++++++++++@@OOOOOOOO++@@++++++++++++++++++@@OO",
"OOOOOO++@@++++++++++++++++++@@OOOOOOOO++@@++++++++++++++++++@@OO",
"OO++++########++++++++++++++++++OO++++########++++++++++++++++++",
"OO++++########++++++++++++++++++OO++++########++++++++++++++++++",
"++++@@######@@@@++++++++++++++++++++@@######@@@@++++++++++++++++",
"++++@@######@@@@++++++++++++++++++++@@######@@@@++++++++++++++++",
"++++++++++++++++++++++++######++++++++++++++++++++++++++######++",
"++++++++++++++++++++++++######++++++++++++++++++++++++++######++",
"@@++++++OOOOOOOO++++##########@@@@++++++OOOOOOOO++++##########@@",
"@@++++++OOOOOOOO++++##########@@@@++++++OOOOOOOO++++##########@@",
"++++++OOOOOOOOOOOO++XXXXXXXX@@++++++++OOOOOOOOOOOO++@@####@@@@++",
"++++++OOOOOOOOOOOO++XXXXXXXX@@++++++++OOOOOOOOOOOO++@@####@@@@++",
"@@++++++++OOOO++++++++XX$$$$XXXX@@++++++++OOOO++++++++++++++####",
"@@++++++++OOOO++++++++XX$$$$XXXX@@++++++++OOOO++++++++++++++####",
"####++++++++++++@@####++..%%%%$$XX##++++XXXX++++@@####++++######",
"####++++++++++++@@####++..%%%%$$XX##++++XXXX++++@@####++++######",
"####@@OOOOOO++XXXXXXXXXXXX%%%%$$XX##@@XX$$**XXXX++####@@++@@@@##",
"####@@OOOOOO++XXXXXXXXXXXX%%%%$$XX##@@XX$$**XXXX++####@@++@@@@##",
"@@OOOOOOOO++XX**==========    %%XXOOOO    **====XX++++++++++@@@@",
"@@OOOOOOOO++XX**==========    %%XXOOOO    **====XX++++++++++@@@@",
"++OOOOOOOOOO++OO..&&&&&&&&====  $$XX  ====  ======XX++++++++++++",
"++OOOOOOOOOO++OO..&&&&&&&&====  $$XX  ====  ======XX++++++++++++",
"++++OOOOOO++OOOOOO..&&&&&&$$==  $$XXXX==&&========XXOOOOOO++++++",
"++++OOOOOO++OOOOOO..&&&&&&$$==  $$XXXX==&&========XXOOOOOO++++++",
"++++++@@@@@@++OOOO..%%&&&&%%**  XXXX$$**====;;====XXOO++++++++++",
"++++++@@@@@@++OOOO..%%&&&&%%**  XXXX$$**====;;====XXOO++++++++++",
"++++@@####@@@@++++++..&&%%&&$$**XX$$$$****==--XX--XX++++++++##@@",
"++++@@####@@@@++++++..&&%%&&$$**XX$$$$****==--XX--XX++++++++##@@",
"++++++####@@++++++++..%%&&&&%%**XX$$$$$$********XX++++++@@######",
"++++++####@@++++++++..%%&&&&%%**XX$$$$$$********XX++++++@@######",
"OOOO++++++++++++++++..&&&&%%%%%%**XXXX$$$$$$  ;;  ++++++++######",
"OOOO++++++++++++++++..&&&&%%%%%%**XXXX$$$$$$  ;;  ++++++++######",
"OOOOOO++@@++++++++++......%%%%%%%%**$$$$$$        ++++++++++@@OO",
"OOOOOO++@@++++++++++......%%%%%%%%**$$$$$$        ++++++++++@@OO",
"OO++++########++++++++++++....%%%%%%$$$$$$    oo  ++++++++++++++",
"OO++++########++++++++++++....%%%%%%$$$$$$    oo  ++++++++++++++",
"++++@@######@@@@++++++++++++++..%%..$$$$$$  oooo++++++++++++++++",
"++++@@######@@@@++++++++++++++..%%..$$$$$$  oooo++++++++++++++++",
"++++++++++++++++++++++++######    ..$$$$$$  oo  ++++++++######++",
"++++++++++++++++++++++++######    ..$$$$$$  oo  ++++++++######++",
"@@++++++OOOOOOOO++++##########@@XX$$$$$$$$  --  ++++##########@@",
"@@++++++OOOOOOOO++++##########@@XX$$$$$$$$  --  ++++##########@@",
"++++++OOOOOOOOOOOO++@@####@@@@++++  $$$$$$$$  OOOO++@@####@@@@++",
"++++++OOOOOOOOOOOO++@@####@@@@++++  $$$$$$$$  OOOO++@@####@@@@++",
"@@++++++++OOOO++++++++++++++####XX$$        OO++++++++++++++####",
"@@++++++++OOOO++++++++++++++####XX$$        OO++++++++++++++####",
"####++++++++++++@@####++++######XXXX$$$$XX++++++@@####++++######",
"####++++++++++++@@####++++######XXXX$$$$XX++++++@@####++++######",
"####@@OOOOOO++++++####@@++@@@@######XXXXXXOO++++++####@@++@@@@##",
"####@@OOOOOO++++++####@@++@@@@######XXXXXXOO++++++####@@++@@@@##",
"@@OOOOOOOO++++++++++++++++++@@@@@@OOOOOOOO++++++++++++++++++@@@@",
"@@OOOOOOOO++++++++++++++++++@@@@@@OOOOOOOO++++++++++++++++++@@@@",
"++OOOOOOOOOO++OOOOOO++++++++++++++OOOOOOOOOO++OOOOOO++++++++++++",
"++OOOOOOOOOO++OOOOOO++++++++++++++OOOOOOOOOO++OOOOOO++++++++++++",
"++++OOOOOO++OOOOOOOOOOOOOO++++++++++OOOOOO++OOOOOOOOOOOOOO++++++",
"++++OOOOOO++OOOOOOOOOOOOOO++++++++++OOOOOO++OOOOOOOOOOOOOO++++++",
"++++++@@@@@@++OOOOOOOO++++++++++++++++@@@@@@++OOOOOOOO++++++++++",
"++++++@@@@@@++OOOOOOOO++++++++++++++++@@@@@@++OOOOOOOO++++++++++",
"++++@@####@@@@++++++++++++++##@@++++@@####@@@@++++++++++++++##@@",
"++++@@####@@@@++++++++++++++##@@++++@@####@@@@++++++++++++++##@@",
"++++++####@@++++++++++++@@######++++++####@@++++++++++++@@######",
"++++++####@@++++++++++++@@######++++++####@@++++++++++++@@######"
};
