/* XPM */
static char *result[] = {
/* columns rows colors chars-per-pixel */
"64 64 11 1 ",
"  c black",
". c gray19",
"X c #424A4A",
"o c #4A5252",
"O c #4A5A5A",
"+ c #526363",
"@ c #686060",
"# c #808080",
"$ c #909090",
"% c #C0C0C0",
"& c #E8E8F8",
/* pixels */
"XXXXoooooooooooooooooooooo++++++XXXXoooooooooooooooooooooo++++++",
"XXXXoooooooooooooooooooooo++++++XXXXoooooooooooooooooooooo++++++",
"XXXXXXooOOoooooooooooooo  ooOOXXXXXXXXooOOooooooooooooooooooOOXX",
"XXXXXXooOOoooooooooooooo  ooOOXXXXXXXXooOOooooooooooooooooooOOXX",
"XXoooo++++++++oooooooo  %%  ooooXXoooo++++++++oooooooooooooooooo",
"XXoooo++++++++oooooooo  %%  ooooXXoooo++++++++oooooooooooooooooo",
"ooooOO++++++OOOOoooooo  %%  ooooooooOO++++++OOOOoooooooooooooooo",
"ooooOO++++++OOOOoooooo  %%  ooooooooOO++++++OOOOoooooooooooooooo",
"oooooooooooooooooo    ..%%..    oooooooooooooooooooooooo++++++oo",
"oooooooooooooooooo    ..%%..    oooooooooooooooooooooooo++++++oo",
"OOooooooXXXXXXXX  %%@@..%%..@@%%  ooooooXXXXXXXXoooo++++++++++OO",
"OOooooooXXXXXXXX  %%@@..%%..@@%%  ooooooXXXXXXXXoooo++++++++++OO",
"ooooooXXXXXXXX  %%$$..$$%%$$..$$%%  ....XXXXXXXXXXooOO++++OOOOoo",
"ooooooXXXXXXXX  %%$$..$$%%$$..$$%%  ....XXXXXXXXXXooOO++++OOOOoo",
"OOooooooooXXXX  $$$$..%%%%%%..$$$$  $$$$  XXXXoooooooooooooo++++",
"OOooooooooXXXX  $$$$..%%%%%%..$$$$  $$$$  XXXXoooooooooooooo++++",
"++++oooooooo  $$$$$$@@%%%%%%@@$$$$$$  $$%%  ooooOO++++oooo++++++",
"++++oooooooo  $$$$$$@@%%%%%%@@$$$$$$  $$%%  ooooOO++++oooo++++++",
"++++OOXXXXXX..@@$$%%%%@@%%@@%%%%$$@@..%%%%  oooooo++++OOooOOOO++",
"++++OOXXXXXX..@@$$%%%%@@%%@@%%%%$$@@..%%%%  oooooo++++OOooOOOO++",
"OOXXXXXXXX  @@@@%%%%%%$$%%$$%%%%%%@@@@  %%%%  ooooooooooooooOOOO",
"OOXXXXXXXX  @@@@%%%%%%$$%%$$%%%%%%@@@@  %%%%  ooooooooooooooOOOO",
"ooXXXXXXXX  $$@@%%%%%%%%$$%%%%%%%%@@$$  $$%%  XXXXXXoooooooooooo",
"ooXXXXXXXX  $$@@%%%%%%%%$$%%%%%%%%@@$$  $$%%  XXXXXXoooooooooooo",
"ooooXXXXXX  $$@@&&&&$$%%%%%%$$&&&&@@$$  $$$$  XXXXXXXXXXXXoooooo",
"ooooXXXXXX  $$@@&&&&$$%%%%%%$$&&&&@@$$  $$$$  XXXXXXXXXXXXoooooo",
"ooooooOOOOOO..$$%%  &&@@%%@@&&  %%$$..$$$$  ooXXXXXXXXoooooooooo",
"ooooooOOOOOO..$$%%  &&@@%%@@&&  %%$$..$$$$  ooXXXXXXXXoooooooooo",
"ooooOO++++OOOO  @@$$@@@@%%@@@@$$@@  @@@@$$  OOoooooooooooooo++OO",
"ooooOO++++OOOO  @@$$@@@@%%@@@@$$@@  @@@@$$  OOoooooooooooooo++OO",
"oooooo++++OOoo  @@$$$$@@%%@@$$$$@@  @@@@  $$..ooooooooooOO++++++",
"oooooo++++OOoo  @@$$$$@@%%@@$$$$@@  @@@@  $$..ooooooooooOO++++++",
"XXXXoooooooooooo  $$$$$$%%$$$$$$  @@    $$@@..oooooooooooo++++++",
"XXXXoooooooooooo  $$$$$$%%$$$$$$  @@    $$@@..oooooooooooo++++++",
"XXXXXXooOOoooooo  @@@@$$$$$$@@@@  ..$$$$$$@@..ooooooooooooooOOXX",
"XXXXXXooOOoooooo  @@@@$$$$$$@@@@  ..$$$$$$@@..ooooooooooooooOOXX",
"XXoooo++++++++oooo  @@..$$..@@  ..@@$$$$@@@@..oooooooooooooooooo",
"XXoooo++++++++oooo  @@..$$..@@  ..@@$$$$@@@@..oooooooooooooooooo",
"ooooOO++++++OOOOoooo          ..@@@@@@$$@@  OOOOoooooooooooooooo",
"ooooOO++++++OOOOoooo          ..@@@@@@$$@@  OOOOoooooooooooooooo",
"oooooooooooooooooooooo..$$$$##@@  @@@@    oooooooooooooo++++++oo",
"oooooooooooooooooooooo..$$$$##@@  @@@@    oooooooooooooo++++++oo",
"OOooooooXXXXXXXXoooo++..$$########    @@..XXXXXXoooo++++++++++OO",
"OOooooooXXXXXXXXoooo++..$$########    @@..XXXXXXoooo++++++++++OO",
"ooooooXXXXXXXXXXXXooOO++..####@@@@@@@@..XXXXXXXXXX....++++OOOOoo",
"ooooooXXXXXXXXXXXXooOO++..####@@@@@@@@..XXXXXXXXXX....++++OOOOoo",
"OOooooooooXXXXoooooooo..$$  @@@@@@@@  ..ooXXXXoo..$$..oooooo++++",
"OOooooooooXXXXoooooooo..$$  @@@@@@@@  ..ooXXXXoo..$$..oooooo++++",
"++++ooooooooooooOO++++..$$$$        ..oooooooo..$$  ++oooo++++++",
"++++ooooooooooooOO++++..$$$$        ..oooooooo..$$  ++oooo++++++",
"++++OOXXXXXXoooooo++++OO  $$####@@@@  ......oo..@@  ++OOooOOOO++",
"++++OOXXXXXXoooooo++++OO  $$####@@@@  ......oo..@@  ++OOooOOOO++",
"OOXXXXXXXXoooooooooooooo  ####@@@@..@@..@@$$..$$  ooooooooooOOOO",
"OOXXXXXXXXoooooooooooooo  ####@@@@..@@..@@$$..$$  ooooooooooOOOO",
"ooXXXXXXXXXXooXXXXXXoooooo        @@@@  $$$$..@@  XXoooooooooooo",
"ooXXXXXXXXXXooXXXXXXoooooo        @@@@  $$$$..@@  XXoooooooooooo",
"ooooXXXXXXooXXXXXXXXXXXXXXoo..@@@@@@@@  @@@@....XXXXXXXXXXoooooo",
"ooooXXXXXXooXXXXXXXXXXXXXXoo..@@@@@@@@  @@@@....XXXXXXXXXXoooooo",
"ooooooOOOOOOooXXXXXXXXoooooooo        OO    ooXXXXXXXXoooooooooo",
"ooooooOOOOOOooXXXXXXXXoooooooo        OO    ooXXXXXXXXoooooooooo",
"ooooOO++++OOOOoooooooooooooo++OOooooOO++++OOOOoooooooooooooo++OO",
"ooooOO++++OOOOoooooooooooooo++OOooooOO++++OOOOoooooooooooooo++OO",
"oooooo++++OOooooooooooooOO++++++oooooo++++OOooooooooooooOO++++++",
"oooooo++++OOooooooooooooOO++++++oooooo++++OOooooooooooooOO++++++"
};
