/* XPM */
static char *result[] = {
/* columns rows colors chars-per-pixel */
"64 64 15 1 ",
"  c black",
". c #381858",
"X c #103840",
"o c #383850",
"O c #424A4A",
"+ c #4A5252",
"@ c #4A5A5A",
"# c #526363",
"$ c #407078",
"% c #604080",
"& c #8860B8",
"* c #489098",
"= c #50B8B0",
"- c #B8B8C0",
"; c #E8E8F8",
/* pixels */
"OOOO++++++++++++++++++++++######OOOO++++++++++++++++++++++######",
"OOOO++++++++++++++++++++++######OOOO++++++++++++++++++++++######",
"OOOOOO++@@++++++++++++++++++@@OOOOOOOO++@@++++++++++++++++++@@OO",
"OOOOOO++@@++++++++++++++++++@@OOOOOOOO++@@++++++++++++++++++@@OO",
"OO++++########++++++++++++++++++OO++++########++++++++++++++++++",
"OO++++########++++++++++++++++++OO++++########++++++++++++++++++",
"++++@@######@@@@++++++++++++++++++++@@######@@@@++++++++++++++++",
"++++@@######@@@@++++++++++++++++++++@@######@@@@++++++++++++++++",
"++++++++++++++++++++++++######++++++++++++++++++++++++++######++",
"++++++++++++++++++++++++######++++++++++++++++++++++++++######++",
"@@++++++OOOOOOOO++++##########@@@@++++++OOOOOOOO++++##########@@",
"@@++++++OOOOOOOO++++##########@@@@++++++OOOOOOOO++++##########@@",
"++++XXXXXXOOOOOOOO++@@####@@@@++++++++OOOOOOOOOOOO++XXXXXX@@@@++",
"++++XXXXXXOOOOOOOO++@@####@@@@++++++++OOOOOOOOOOOO++XXXXXX@@@@++",
"@@XX======XXXX++++++++++++++####@@++++++++OOOO++XXXX======XX####",
"@@XX======XXXX++++++++++++++####@@++++++++OOOO++XXXX======XX####",
"####XX..&&====XX@@####++  XX######XX  ++++++++XX====&&..XX######",
"####XX..&&====XX@@####++  XX######XX  ++++++++XX====&&..XX######",
"####@@..&&&&%%==XX####  ==XXXXXXXXXX==  OOOOXX==%%&&&&..++@@@@##",
"####@@..&&&&%%==XX####  ==XXXXXXXXXX==  OOOOXX==%%&&&&..++@@@@##",
"@@OOOOOO..%%&&==XX++++  &&$$======$$&&  OO++XX==&&%%..++++++@@@@",
"@@OOOOOO..%%&&==XX++++  &&$$======$$&&  OO++XX==&&%%..++++++@@@@",
"++OOOOOO..&&&&**XXOO  **&&==========&&**  OOXX**&&&&..++++++++++",
"++OOOOOO..&&&&**XXOO  **&&==========&&**  OOXX**&&&&..++++++++++",
"++++OOOO..&&&&**XXOO  **==============**  ++XX**&&&&..OOOO++++++",
"++++OOOO..&&&&**XXOO  **==============**  ++XX**&&&&..OOOO++++++",
"++++++@@@@..&&%%**XX  ;;==============;;  XX**%%&&..OO++++++++++",
"++++++@@@@..&&%%**XX  ;;==============;;  XX**%%&&..OO++++++++++",
"++++@@####..%%%%$$**  --XX;;======;;XX--  **$$%%%%..++++++++##@@",
"++++@@####..%%%%$$**  --XX;;======;;XX--  **$$%%%%..++++++++##@@",
"++++++####..%%%%%%$$$$******************$$$$%%%%%%..++++@@######",
"++++++####..%%%%%%$$$$******************$$$$%%%%%%..++++@@######",
"OOOO++++++....%%%%%%%%**oo;;      ;;oo**%%%%%%%%....++++++######",
"OOOO++++++....%%%%%%%%**oo;;      ;;oo**%%%%%%%%....++++++######",
"OOOOOO++@@++++....%%XX$$              $$XX%%....++++++++++++@@OO",
"OOOOOO++@@++++....%%XX$$              $$XX%%....++++++++++++@@OO",
"OO++++########++++..  $$    oooooo    $$  ..##++++++++++++++++++",
"OO++++########++++..  $$    oooooo    $$  ..##++++++++++++++++++",
"++++@@######@@@@++++  $$oooooooooooooo$$  ##@@@@++++++++++++++++",
"++++@@######@@@@++++  $$oooooooooooooo$$  ##@@@@++++++++++++++++",
"++++++++++++++++++++++  $$--oooooo--$$  ++++++++++++++++######++",
"++++++++++++++++++++++  $$--oooooo--$$  ++++++++++++++++######++",
"@@++++++OOOOOOOO++++##XX  $$$$$$$$$$  XXOOOOOOOO++++##########@@",
"@@++++++OOOOOOOO++++##XX  $$$$$$$$$$  XXOOOOOOOO++++##########@@",
"++++++OOOOOOOOOOOO++@@XX$$          $$XXOOOOOOOOOO++@@####@@@@++",
"++++++OOOOOOOOOOOO++@@XX$$          $$XXOOOOOOOOOO++@@####@@@@++",
"@@++++++++OOOO++++++++XX$$XX####@@XX$$XX++OOOO++++++++++++++####",
"@@++++++++OOOO++++++++XX$$XX####@@XX$$XX++OOOO++++++++++++++####",
"####++++++++++++@@####++XX##########XX++++++++++@@####++++######",
"####++++++++++++@@####++XX##########XX++++++++++@@####++++######",
"####@@OOOOOO++++++####@@++@@@@######@@OOOOOO++++++####@@++@@@@##",
"####@@OOOOOO++++++####@@++@@@@######@@OOOOOO++++++####@@++@@@@##",
"@@OOOOOOOO++++++++++++++++++@@@@@@OOOOOOOO++++++++++++++++++@@@@",
"@@OOOOOOOO++++++++++++++++++@@@@@@OOOOOOOO++++++++++++++++++@@@@",
"++OOOOOOOOOO++OOOOOO++++++++++++++OOOOOOOOOO++OOOOOO++++++++++++",
"++OOOOOOOOOO++OOOOOO++++++++++++++OOOOOOOOOO++OOOOOO++++++++++++",
"++++OOOOOO++OOOOOOOOOOOOOO++++++++++OOOOOO++OOOOOOOOOOOOOO++++++",
"++++OOOOOO++OOOOOOOOOOOOOO++++++++++OOOOOO++OOOOOOOOOOOOOO++++++",
"++++++@@@@@@++OOOOOOOO++++++++++++++++@@@@@@++OOOOOOOO++++++++++",
"++++++@@@@@@++OOOOOOOO++++++++++++++++@@@@@@++OOOOOOOO++++++++++",
"++++@@####@@@@++++++++++++++##@@++++@@####@@@@++++++++++++++##@@",
"++++@@####@@@@++++++++++++++##@@++++@@####@@@@++++++++++++++##@@",
"++++++####@@++++++++++++@@######++++++####@@++++++++++++@@######",
"++++++####@@++++++++++++@@######++++++####@@++++++++++++@@######"
};
