/* XPM */
static char *result[] = {
/* columns rows colors chars-per-pixel */
"64 64 12 1 ",
"  c black",
". c gray19",
"X c #424A4A",
"o c #504848",
"O c #4A5252",
"+ c #4A5A5A",
"@ c #526363",
"# c #686060",
"$ c #808080",
"% c #909090",
"& c #C0C0C0",
"* c #E8E8F8",
/* pixels */
"XXXXOOOOOOOOOOOOOOOOOOOOOO@@@@@@XXXXOOOOOOOOOOOOOOOOOOOOOO@@@@@@",
"XXXXOOOOOOOOOOOOOOOOOOOOOO@@@@@@XXXXOOOOOOOOOOOOOOOOOOOOOO@@@@@@",
"XXXXXXOO++OOOOOOOOOOOOOOOOOO  ..XXXXXXOO++OOOOOOOOOOOOOOOOOO++XX",
"XXXXXXOO++OOOOOOOOOOOOOOOOOO  ..XXXXXXOO++OOOOOOOOOOOOOOOOOO++XX",
"XXOOOO@@@@@@@@OOOOOOOOOOOO  &&  XXOOOO@@@@@@@@OOOOOOOOOOOOOOOOOO",
"XXOOOO@@@@@@@@OOOOOOOOOOOO  &&  XXOOOO@@@@@@@@OOOOOOOOOOOOOOOOOO",
"OOOO++@@@@@@++++OOOOOOOOOO  &&  OOOO++@@@@@@++++OOOOOOOOOOOOOOOO",
"OOOO++@@@@@@++++OOOOOOOOOO  &&  OOOO++@@@@@@++++OOOOOOOOOOOOOOOO",
"OOOOOOOOOOOOOOOOOOOOOOOO  &&%%  OOOOOOOOOOOOOOOOOOOOOOOO@@@@@@OO",
"OOOOOOOOOOOOOOOOOOOOOOOO  &&%%  OOOOOOOOOOOOOOOOOOOOOOOO@@@@@@OO",
"++OOOOOOXXXXXXXXOOOO@@@@  &&%%  ++OOOOOOXXXXXXXXOOOO@@@@@@@@@@++",
"++OOOOOOXXXXXXXXOOOO@@@@  &&%%  ++OOOOOOXXXXXXXXOOOO@@@@@@@@@@++",
"OOOOOOXXXXXXXXXXXXOO..  &&%%&&##..OOOOXXXXXXXXXXXXOO++@@@@++++OO",
"OOOOOOXXXXXXXXXXXXOO..  &&%%&&##..OOOOXXXXXXXXXXXXOO++@@@@++++OO",
"++OOOOOOOOXXXXOOOO  %%..&&%%&&%%    OOOOOOXXXXOOOOOOOOOOOOOO@@@@",
"++OOOOOOOOXXXXOOOO  %%..&&%%&&%%    OOOOOOXXXXOOOOOOOOOOOOOO@@@@",
"@@@@OOOOOOOOOOOO  &&%%##&&&&%%%%####  ......OOOO++@@@@OOOO@@@@@@",
"@@@@OOOOOOOOOOOO  &&%%##&&&&%%%%####  ......OOOO++@@@@OOOO@@@@@@",
"@@@@++XXXXXXOO  ##&&&&&&%%&&&&$$$$$$  &&&&%%..OOOO@@@@++OO++++@@",
"@@@@++XXXXXXOO  ##&&&&&&%%&&&&$$$$$$  &&&&%%..OOOO@@@@++OO++++@@",
"++XXXXXXXXOOOO..&&&&&&&&%%%%%%%%%%%%..&&&&%%%%..OOOOOOOOOOOO++++",
"++XXXXXXXXOOOO..&&&&&&&&%%%%%%%%%%%%..&&&&%%%%..OOOOOOOOOOOO++++",
"OOXXXXXXXXXX..%%&&%%%%&&&&&&$$$$$$$$$$  &&&&&&..XXXXOOOOOOOOOOOO",
"OOXXXXXXXXXX..%%&&%%%%&&&&&&$$$$$$$$$$  &&&&&&..XXXXOOOOOOOOOOOO",
"OOOOXXXXXX..&&&&##&&&&&&&&&&$$$$$$$$$$  %%&&####  XXXXXXXXOOOOOO",
"OOOOXXXXXX..&&&&##&&&&&&&&&&$$$$$$$$$$  %%&&####  XXXXXXXXOOOOOO",
"OOOOOO++  &&%%..##$$**&&%%$$##########..%%######  XXXXOOOOOOOOOO",
"OOOOOO++  &&%%..##$$**&&%%$$##########..%%######  XXXXOOOOOOOOOO",
"OOOO++@@  %%..%%&&  **%%$$$$########  ##$$##oooo  OOOOOOOOOO@@++",
"OOOO++@@  %%..%%&&  **%%$$$$########  ##$$##oooo  OOOOOOOOOO@@++",
"OOOOOO@@  &&%%%%&&&&%%%%$$$$######  ####$$$$$$  OOOOOOOO++@@@@@@",
"OOOOOO@@  &&%%%%&&&&%%%%$$$$######  ####$$$$$$  OOOOOOOO++@@@@@@",
"XXXXOOOOOO  ..####%%%%......####  ..oooo######  OOOOOOOOOO@@@@@@",
"XXXXOOOOOO  ..####%%%%......####  ..oooo######  OOOOOOOOOO@@@@@@",
"XXXXXXOO++OO    ......####......    oooo##oo  OOOOOOOOOOOOOO++XX",
"XXXXXXOO++OO    ......####......    oooo##oo  OOOOOOOOOOOOOO++XX",
"XXOOOO@@@@@@@@OO      ....OOOO  oo......  ..@@OOOOOOOOOOOOOOOOOO",
"XXOOOO@@@@@@@@OO      ....OOOO  oo......  ..@@OOOOOOOOOOOOOOOOOO",
"OOOO++@@@@@@++++OOOOOOOOOOOO  oooo$$$$&&&&..++++OOOOOOOOOOOOOOOO",
"OOOO++@@@@@@++++OOOOOOOOOOOO  oooo$$$$&&&&..++++OOOOOOOOOOOOOOOO",
"OOOOOOOOOOOOOOOOOOOOOOOO@@@@  oooooo$$&&$$  OOOOOOOOOOOO@@@@@@OO",
"OOOOOOOOOOOOOOOOOOOOOOOO@@@@  oooooo$$&&$$  OOOOOOOOOOOO@@@@@@OO",
"++OOOOOOXXXXXXXXOOOO@@@@@@@@  oooo####$$$$  XXXXOOOO@@@@@@@@@@++",
"++OOOOOOXXXXXXXXOOOO@@@@@@@@  oooo####$$$$  XXXXOOOO@@@@@@@@@@++",
"OOOOOOXXXXXXXXXXXXOO++@@@@..oo  oo####$$  XXXXXXXX....@@@@++++OO",
"OOOOOOXXXXXXXXXXXXOO++@@@@..oo  oo####$$  XXXXXXXX....@@@@++++OO",
"++OOOOOOOOXXXXOOOOOOOOOO..oooooo        OOXXXXOO..%%..OOOOOO@@@@",
"++OOOOOOOOXXXXOOOOOOOOOO..oooooo        OOXXXXOO..%%..OOOOOO@@@@",
"@@@@OOOOOOOOOOOO++@@@@OO..oooo####$$$$..OOOOOO  $$  @@OOOO@@@@@@",
"@@@@OOOOOOOOOOOO++@@@@OO..oooo####$$$$..OOOOOO  $$  @@OOOO@@@@@@",
"@@@@++XXXXXXOOOOOO@@@@++  oooo##$$$$oo    XX....##  @@++OO++++@@",
"@@@@++XXXXXXOOOOOO@@@@++  oooo##$$$$oo    XX....##  @@++OO++++@@",
"++XXXXXXXXOOOOOOOOOOOOOOOO    oooo..  $$  ..##$$  OOOOOOOOOO++++",
"++XXXXXXXXOOOOOOOOOOOOOOOO    oooo..  $$  ..##$$  OOOOOOOOOO++++",
"OOXXXXXXXXXXOOXXXXXXOOOOOOOOOO      ##$$  $$..oo  XXOOOOOOOOOOOO",
"OOXXXXXXXXXXOOXXXXXXOOOOOOOOOO      ##$$  $$..oo  XXOOOOOOOOOOOO",
"OOOOXXXXXXOOXXXXXXXXXXXXXXOOOO  oooo##  oooo    XXXXXXXXXXOOOOOO",
"OOOOXXXXXXOOXXXXXXXXXXXXXXOOOO  oooo##  oooo    XXXXXXXXXXOOOOOO",
"OOOOOO++++++OOXXXXXXXXOOOOOOOOOO      ++    OOXXXXXXXXOOOOOOOOOO",
"OOOOOO++++++OOXXXXXXXXOOOOOOOOOO      ++    OOXXXXXXXXOOOOOOOOOO",
"OOOO++@@@@++++OOOOOOOOOOOOOO@@++OOOO++@@@@++++OOOOOOOOOOOOOO@@++",
"OOOO++@@@@++++OOOOOOOOOOOOOO@@++OOOO++@@@@++++OOOOOOOOOOOOOO@@++",
"OOOOOO@@@@++OOOOOOOOOOOO++@@@@@@OOOOOO@@@@++OOOOOOOOOOOO++@@@@@@",
"OOOOOO@@@@++OOOOOOOOOOOO++@@@@@@OOOOOO@@@@++OOOOOOOOOOOO++@@@@@@"
};
