/* XPM */
static char *result[] = {
/* columns rows colors chars-per-pixel */
"64 64 15 1 ",
"  c black",
". c #381858",
"X c #103840",
"o c #383850",
"O c #424A4A",
"+ c #4A5252",
"@ c #4A5A5A",
"# c #526363",
"$ c #407078",
"% c #604080",
"& c #8860B8",
"* c #489098",
"= c #50B8B0",
"- c #B8B8C0",
"; c #E8E8F8",
/* pixels */
"OOOO++++++++++++++++++++++######OOOO++++++++++++++++++++++######",
"OOOO++++++++++++++++++++++######OOOO++++++++++++++++++++++######",
"OOOOOO++@@++++++++++++++++++@@OOOOOOOO++@@++++++++++++++++++@@OO",
"OOOOOO++@@++++++++++++++++++@@OOOOOOOO++@@++++++++++++++++++@@OO",
"OO++++########++++++++++++++++++OO++++########++++++++++++++++++",
"OO++++########++++++++++++++++++OO++++########++++++++++++++++++",
"++++@@######@@@@++++++++++++++++++++@@######@@@@++++++++++++++++",
"++++@@######@@@@++++++++++++++++++++@@######@@@@++++++++++++++++",
"++++++++++++++++++++++++######++++++++++++++++++++++++++######++",
"++++++++++++++++++++++++######++++++++++++++++++++++++++######++",
"@@++++++OOOOOOOO++++##########@@@@++++++OOOOOOOO++++##########@@",
"@@++++++OOOOOOOO++++##########@@@@++++++OOOOOOOO++++##########@@",
"++++++OOOOOOOOOOOO++@@####@@@@++++++XXXXXXXXOOOOOO++@@####@@@@++",
"++++++OOOOOOOOOOOO++@@####@@@@++++++XXXXXXXXOOOOOO++@@####@@@@++",
"@@++++++++OOOO++++++++++++++####XXXX$$$$XXOOOO++++++++++++++####",
"@@++++++++OOOO++++++++++++++####XXXX$$$$XXOOOO++++++++++++++####",
"####++++++++++++@@##XXXX++####XX$$%%%%..++++++++@@####++++######",
"####++++++++++++@@##XXXX++####XX$$%%%%..++++++++@@####++++######",
"####@@OOOOOO++++XXXX**$$XX@@@@XX$$%%%%XXXXXXXXXXXX####@@++@@@@##",
"####@@OOOOOO++++XXXX**$$XX@@@@XX$$%%%%XXXXXXXXXXXX####@@++@@@@##",
"@@OOOOOOOO++++XX====**    ++@@XX%%    ==========**XX++++++++@@@@",
"@@OOOOOOOO++++XX====**    ++@@XX%%    ==========**XX++++++++@@@@",
"++OOOOOOOOOOXX======  ====  XX$$  ====&&&&&&&&..OOOO++++++++++++",
"++OOOOOOOOOOXX======  ====  XX$$  ====&&&&&&&&..OOOO++++++++++++",
"++++OOOOOO++XX========&&==XXXX$$  ==$$&&&&&&..OOOOOOOOOOOO++++++",
"++++OOOOOO++XX========&&==XXXX$$  ==$$&&&&&&..OOOOOOOOOOOO++++++",
"++++++@@@@@@XX====;;====**$$XXXX  **%%&&&&%%..OOOOOOOO++++++++++",
"++++++@@@@@@XX====;;====**$$XXXX  **%%&&&&%%..OOOOOOOO++++++++++",
"++++@@####@@XX--XX--==****$$$$XX**$$&&%%&&..@@++++++++++++++##@@",
"++++@@####@@XX--XX--==****$$$$XX**$$&&%%&&..@@++++++++++++++##@@",
"++++++####@@++XX********$$$$$$XX**%%&&&&%%..++++++++++++@@######",
"++++++####@@++XX********$$$$$$XX**%%&&&&%%..++++++++++++@@######",
"OOOO++++++++++  ;;  $$$$$$XXXX**%%%%%%&&&&..++++++++++++++######",
"OOOO++++++++++  ;;  $$$$$$XXXX**%%%%%%&&&&..++++++++++++++######",
"OOOOOO++@@++++        $$$$$$**%%%%%%%%......++++++++++++++++@@OO",
"OOOOOO++@@++++        $$$$$$**%%%%%%%%......++++++++++++++++@@OO",
"OO++++########  oo    $$$$$$%%%%%%....########++++++++++++++++++",
"OO++++########  oo    $$$$$$%%%%%%....########++++++++++++++++++",
"++++@@######@@@@oooo  $$$$$$..%%..++@@######@@@@++++++++++++++++",
"++++@@######@@@@oooo  $$$$$$..%%..++@@######@@@@++++++++++++++++",
"++++++++++++++++  oo  $$$$$$..    ++++++++++++++++++++++######++",
"++++++++++++++++  oo  $$$$$$..    ++++++++++++++++++++++######++",
"@@++++++OOOOOOOO  --  $$$$$$$$XX@@++++++OOOOOOOO++++##########@@",
"@@++++++OOOOOOOO  --  $$$$$$$$XX@@++++++OOOOOOOO++++##########@@",
"++++++OOOOOOOOOOOO  $$$$$$$$  ++++++++OOOOOOOOOOOO++@@####@@@@++",
"++++++OOOOOOOOOOOO  $$$$$$$$  ++++++++OOOOOOOOOOOO++@@####@@@@++",
"@@++++++++OOOO++++++        $$XX@@++++++++OOOO++++++++++++++####",
"@@++++++++OOOO++++++        $$XX@@++++++++OOOO++++++++++++++####",
"####++++++++++++@@####XX$$$$XXXX####++++++++++++@@####++++######",
"####++++++++++++@@####XX$$$$XXXX####++++++++++++@@####++++######",
"####@@OOOOOO++++++####XXXXXX@@######@@OOOOOO++++++####@@++@@@@##",
"####@@OOOOOO++++++####XXXXXX@@######@@OOOOOO++++++####@@++@@@@##",
"@@OOOOOOOO++++++++++++++++++@@@@@@OOOOOOOO++++++++++++++++++@@@@",
"@@OOOOOOOO++++++++++++++++++@@@@@@OOOOOOOO++++++++++++++++++@@@@",
"++OOOOOOOOOO++OOOOOO++++++++++++++OOOOOOOOOO++OOOOOO++++++++++++",
"++OOOOOOOOOO++OOOOOO++++++++++++++OOOOOOOOOO++OOOOOO++++++++++++",
"++++OOOOOO++OOOOOOOOOOOOOO++++++++++OOOOOO++OOOOOOOOOOOOOO++++++",
"++++OOOOOO++OOOOOOOOOOOOOO++++++++++OOOOOO++OOOOOOOOOOOOOO++++++",
"++++++@@@@@@++OOOOOOOO++++++++++++++++@@@@@@++OOOOOOOO++++++++++",
"++++++@@@@@@++OOOOOOOO++++++++++++++++@@@@@@++OOOOOOOO++++++++++",
"++++@@####@@@@++++++++++++++##@@++++@@####@@@@++++++++++++++##@@",
"++++@@####@@@@++++++++++++++##@@++++@@####@@@@++++++++++++++##@@",
"++++++####@@++++++++++++@@######++++++####@@++++++++++++@@######",
"++++++####@@++++++++++++@@######++++++####@@++++++++++++@@######"
};
