/* XPM */
static char *result[] = {
/* columns rows colors chars-per-pixel */
"64 64 14 1 ",
"  c black",
". c gray19",
"X c #483820",
"o c #685018",
"O c #783868",
"+ c #424A4A",
"@ c #4A5252",
"# c #4A5A5A",
"$ c #526363",
"% c #68A848",
"& c #90C858",
"* c #D0F078",
"= c #A870A8",
"- c #C890D0",
/* pixels */
"++++@@@@@@@@@@@@@@@@@@@@@@$$$$$$++++@@@@@@@@@@@@@@@@@@@@@@$$$$$$",
"++++@@@@@@@@@@@@@@@@@@@@@@$$$$$$++++@@@@@@@@@@@@@@@@@@@@@@$$$$$$",
"++++++@@##@@@@@@@@@@@@@@@@@@##++++++++@@##@@@@@@@@@@@@@@@@@@##++",
"++++++@@##@@@@@@@@@@@@@@@@@@##++++++++@@##@@@@@@@@@@@@@@@@@@##++",
"++@@@@$$$$$$$$@@@@@@@@@@@@@@@@@@++@@@@$$$$$$$$@@@@@@@@@@@@@@@@@@",
"++@@@@$$$$$$$$@@@@@@@@@@@@@@@@@@++@@@@$$$$$$$$@@@@@@@@@@@@@@@@@@",
"@@@@##$$$$$$####@@@@@@@@@@@@@@@@@@@@##$$$$$$####@@@@@@@@@@@@@@@@",
"@@@@##$$$$$$####@@@@@@@@@@@@@@@@@@@@##$$$$$$####@@@@@@@@@@@@@@@@",
"@@@@@@@@@@@@@@@@@@@@OOOO$$$$$$@@@@@@@@@@@@@@@@@@@@@@@@@@$$$$$$@@",
"@@@@@@@@@@@@@@@@@@@@OOOO$$$$$$@@@@@@@@@@@@@@@@@@@@@@@@@@$$$$$$@@",
"##@@@@@@++++++++@@OOOO--OO$$$$####@@@@@@++++++++@@@@$$$$$$$$$$##",
"##@@@@@@++++++++@@OOOO--OO$$$$####@@@@@@++++++++@@@@$$$$$$$$$$##",
"@@@@@@++++++++++++OO----==OO##OO@@@@@@++++++++++++@@##$$$$####@@",
"@@@@@@++++++++++++OO----==OO##OO@@@@@@++++++++++++@@##$$$$####@@",
"##@@@@@@@@++++@@@@@@OO----==OO--OO@@@@@@@@++++@@@@@@@@@@@@@@$$$$",
"##@@@@@@@@++++@@@@@@OO----==OO--OO@@@@@@@@++++@@@@@@@@@@@@@@$$$$",
"$$$$@@@@@@@@@@@@##$$OO--%%%%------OO@@@@@@@@@@@@##$$$$@@@@$$$$$$",
"$$$$@@@@@@@@@@@@##$$OO--%%%%------OO@@@@@@@@@@@@##$$$$@@@@$$$$$$",
"$$$$##++++++@@@@@@$$OO--%%&&------OO##++++++@@@@@@$$$$##@@####$$",
"$$$$##++++++@@@@@@$$OO--%%&&------OO##++++++@@@@@@$$$$##@@####$$",
"##++++++++@@@@@@@@@@@@OO----------OOOO++++@@@@@@@@@@@@@@@@@@####",
"##++++++++@@@@@@@@@@@@OO----------OOOO++++@@@@@@@@@@@@@@@@@@####",
"@@++++++++++@@++++++@@OO==%%--------OO++++++@@++++++@@@@@@@@@@@@",
"@@++++++++++@@++++++@@OO==%%--------OO++++++@@++++++@@@@@@@@@@@@",
"@@@@++++++@@++++++++++++OO----%%----OO++++@@++++++++++++++@@@@@@",
"@@@@++++++@@++++++++++++OO----%%----OO++++@@++++++++++++++@@@@@@",
"@@@@@@######@@++++++++@@OO====--------OO####@@++++++++@@@@@@@@@@",
"@@@@@@######@@++++++++@@OO====--------OO####@@++++++++@@@@@@@@@@",
"@@@@##$$$$####@@@@@@@@@@@@OO==--**&&--OO$$####@@@@@@@@@@@@@@$$##",
"@@@@##$$$$####@@@@@@@@@@@@OO==--**&&--OO$$####@@@@@@@@@@@@@@$$##",
"@@@@@@$$$$##@@@@@@@@@@@@##OOOO==&&&&----OO##@@@@@@@@@@@@##$$$$$$",
"@@@@@@$$$$##@@@@@@@@@@@@##OOOO==&&&&----OO##@@@@@@@@@@@@##$$$$$$",
"++++@@@@@@@@@@@@@@@@@@@@@@OOOO======----OO@@@@@@@@@@@@@@@@$$$$$$",
"++++@@@@@@@@@@@@@@@@@@@@@@OOOO======----OO@@@@@@@@@@@@@@@@$$$$$$",
"++++++@@##@@@@@@@@@@@@@@@@OOOOOO======--OO@@@@@@@@@@@@@@@@@@##++",
"++++++@@##@@@@@@@@@@@@@@@@OOOOOO======--OO@@@@@@@@@@@@@@@@@@##++",
"++@@@@$$$$$$$$@@@@@@@@@@@@@@OOOOOO==&&%%--OO$$@@@@@@@@@@@@@@@@@@",
"++@@@@$$$$$$$$@@@@@@@@@@@@@@OOOOOO==&&%%--OO$$@@@@@@@@@@@@@@@@@@",
"@@@@##$$$$$$####@@@@@@@@@@@@@@OOOOOO%%%%==OO####@@@@@@@@@@@@@@@@",
"@@@@##$$$$$$####@@@@@@@@@@@@@@OOOOOO%%%%==OO####@@@@@@@@@@@@@@@@",
"@@@@@@@@@@@@@@@@@@@@@@@@$$$$$$OOOO@@OOOO==OO@@@@@@@@@@@@$$$$$$@@",
"@@@@@@@@@@@@@@@@@@@@@@@@$$$$$$OOOO@@OOOO==OO@@@@@@@@@@@@$$$$$$@@",
"##@@@@@@++++++++@@@@$$$$$$$$XXOOOO@@@@@@OOOO++++@@@@$$$$$$$$$$##",
"##@@@@@@++++++++@@@@$$$$$$$$XXOOOO@@@@@@OOOO++++@@@@$$$$$$$$$$##",
"@@@@@@++++++++++++@@##$$$$XXXXOOXXXX@@++++++++++++@@##$$$$####@@",
"@@@@@@++++++++++++@@##$$$$XXXXOOXXXX@@++++++++++++@@##$$$$####@@",
"##@@@@@@@@++++@@@@@@@@@@XXooooooooXX@@@@@@++++@@@@@@@@@@@@@@$$$$",
"##@@@@@@@@++++@@@@@@@@@@XXooooooooXX@@@@@@++++@@@@@@@@@@@@@@$$$$",
"$$$$@@@@@@@@@@@@##$$$$@@XXooooooXXoo..@@@@@@@@@@##$$$$@@@@$$$$$$",
"$$$$@@@@@@@@@@@@##$$$$@@XXooooooXXoo..@@@@@@@@@@##$$$$@@@@$$$$$$",
"$$$$##++++++@@@@@@$$$$##XXoooooooooo  ++++++@@@@@@$$$$##@@####$$",
"$$$$##++++++@@@@@@$$$$##XXoooooooooo  ++++++@@@@@@$$$$##@@####$$",
"##++++++++@@@@@@@@@@@@@@@@          ++++++@@@@@@@@@@@@@@@@@@####",
"##++++++++@@@@@@@@@@@@@@@@          ++++++@@@@@@@@@@@@@@@@@@####",
"@@++++++++++@@++++++@@@@@@@@@@@@@@++++++++++@@++++++@@@@@@@@@@@@",
"@@++++++++++@@++++++@@@@@@@@@@@@@@++++++++++@@++++++@@@@@@@@@@@@",
"@@@@++++++@@++++++++++++++@@@@@@@@@@++++++@@++++++++++++++@@@@@@",
"@@@@++++++@@++++++++++++++@@@@@@@@@@++++++@@++++++++++++++@@@@@@",
"@@@@@@######@@++++++++@@@@@@@@@@@@@@@@######@@++++++++@@@@@@@@@@",
"@@@@@@######@@++++++++@@@@@@@@@@@@@@@@######@@++++++++@@@@@@@@@@",
"@@@@##$$$$####@@@@@@@@@@@@@@$$##@@@@##$$$$####@@@@@@@@@@@@@@$$##",
"@@@@##$$$$####@@@@@@@@@@@@@@$$##@@@@##$$$$####@@@@@@@@@@@@@@$$##",
"@@@@@@$$$$##@@@@@@@@@@@@##$$$$$$@@@@@@$$$$##@@@@@@@@@@@@##$$$$$$",
"@@@@@@$$$$##@@@@@@@@@@@@##$$$$$$@@@@@@$$$$##@@@@@@@@@@@@##$$$$$$"
};
