/* XPM */
static char *result[] = {
/* columns rows colors chars-per-pixel */
"64 64 15 1 ",
"  c black",
". c #483820",
"X c #685018",
"o c #783868",
"O c #424A4A",
"+ c #4A5252",
"@ c #4A5A5A",
"# c #407040",
"$ c #605860",
"% c #526363",
"& c #68A848",
"* c #90C858",
"= c #D0F078",
"- c #A870A8",
"; c #C890D0",
/* pixels */
"OOOO++++++++++++++++++++++%%%%%%OOOO++++++++++++++++++++++%%%%%%",
"OOOO++++++++++++++++++++++%%%%%%OOOO++++++++++++++++++++++%%%%%%",
"OOOOOO++@@++++++++++++++++++@@OOOOOOOO++@@++++++++++++++++++@@OO",
"OOOOOO++@@++++++++++++++++++@@OOOOOOOO++@@++++++++++++++++++@@OO",
"OO++++%%%%%%%%++++++++++++++++++OO++++%%%%%%%%++++++++++++++++++",
"OO++++%%%%%%%%++++++++++++++++++OO++++%%%%%%%%++++++++++++++++++",
"++++@@%%%%%%@@@@++++++++++++++++++++@@%%%%%%@@@@++++++++++++++++",
"++++@@%%%%%%@@@@++++++++++++++++++++@@%%%%%%@@@@++++++++++++++++",
"++++++++++++++++++++++++oooooooo++++++++++++++++++++++++%%%%%%++",
"++++++++++++++++++++++++oooooooo++++++++++++++++++++++++%%%%%%++",
"@@++++++OOOOOOOO++++%%oo;;;;;;oo@@++++++OOOOOOOO++++%%%%%%%%%%@@",
"@@++++++OOOOOOOO++++%%oo;;;;;;oo@@++++++OOOOOOOO++++%%%%%%%%%%@@",
"++++++OOOOOOOOOOOO++oo;;;;oooo++++++ooooOOOOOOOOOO++@@%%%%@@@@++",
"++++++OOOOOOOOOOOO++oo;;;;oooo++++++ooooOOOOOOOOOO++@@%%%%@@@@++",
"@@++++++++OOOO++++++oo;;;;----oooooo--;;ooooOO++++++++++++++%%%%",
"@@++++++++OOOO++++++oo;;;;----oooooo--;;ooooOO++++++++++++++%%%%",
"%%%%++++++++++++@@oo--;;;;****------**==;;oo++++@@%%%%++++%%%%%%",
"%%%%++++++++++++@@oo--;;;;****------**==;;oo++++@@%%%%++++%%%%%%",
"%%%%@@OOOOOO++++++oo--;;;;**==;;;;;;****;;oooo++++%%%%@@++@@@@%%",
"%%%%@@OOOOOO++++++oo--;;;;**==;;;;;;****;;oooo++++%%%%@@++@@@@%%",
"@@OOOOOOOO++++oooo;;**;;;;;;;;;;;;;;;;;;;;;;--oo++++++++++++@@@@",
"@@OOOOOOOO++++oooo;;**;;;;;;;;;;;;;;;;;;;;;;--oo++++++++++++@@@@",
"++OOOOOOOOOOoo--oo;;;;;;;;;;;;;;;;;;;;;;;;**&&ooOOOO++++++++++++",
"++OOOOOOOOOOoo--oo;;;;;;;;;;;;;;;;;;;;;;;;**&&ooOOOO++++++++++++",
"++++OOOOOO++oo--&&**;;&&**;;;;;;&&&&&&&&;;&&&&--ooOOOOOOOO++++++",
"++++OOOOOO++oo--&&**;;&&**;;;;;;&&&&&&&&;;&&&&--ooOOOOOOOO++++++",
"++++++@@@@@@oo--&&&&;;&&##**;;;;&&##&&;;;;------ooOOOO++++++++++",
"++++++@@@@@@oo--&&&&;;&&##**;;;;&&##&&;;;;------ooOOOO++++++++++",
"++++@@%%%%@@oo----;;;;;;;;**;;&&##&&;;;;;;&&----oo++++++++++%%@@",
"++++@@%%%%@@oo----;;;;;;;;**;;&&##&&;;;;;;&&----oo++++++++++%%@@",
"++++++%%%%@@++oo--;;####;;;;&&;;;;;;;;;;;;------oo++++++@@%%%%%%",
"++++++%%%%@@++oo--;;####;;;;&&;;;;;;;;;;;;------oo++++++@@%%%%%%",
"OOOO++++++++++oo----##&&&&;;&&&&##&&##------oo--oo++++++++%%%%%%",
"OOOO++++++++++oo----##&&&&;;&&&&##&&##------oo--oo++++++++%%%%%%",
"OOOOOO++@@++++++oo--;;##&&####&&&&##------oooo--oo++++++++++@@OO",
"OOOOOO++@@++++++oo--;;##&&####&&&&##------oooo--oo++++++++++@@OO",
"OO++++%%%%%%%%++oooo----##----####--&&&&--oo%%oooo++++++++++++++",
"OO++++%%%%%%%%++oooo----##----####--&&&&--oo%%oooo++++++++++++++",
"++++@@%%%%%%@@@@oo------------------**&&oooo@@@@++++++++++++++++",
"++++@@%%%%%%@@@@oo------------------**&&oooo@@@@++++++++++++++++",
"++++++++++++++++++oooo--&&--------------oo++++++++++++++%%%%%%++",
"++++++++++++++++++oooo--&&--------------oo++++++++++++++%%%%%%++",
"@@++++++OOOOOOOO++++%%oooo--------&&--ooOOOOOOOO++++%%%%%%%%%%@@",
"@@++++++OOOOOOOO++++%%oooo--------&&--ooOOOOOOOO++++%%%%%%%%%%@@",
"++++++OOOOOOOOOOOO++@@%%%%oooo------ooOOOOOOOOOOOO++@@%%%%@@@@++",
"++++++OOOOOOOOOOOO++@@%%%%oooo------ooOOOOOOOOOOOO++@@%%%%@@@@++",
"@@++++++++OOOO++++++++++++++oooo$$$$oo++++OOOO++++++++++++++%%%%",
"@@++++++++OOOO++++++++++++++oooo$$$$oo++++OOOO++++++++++++++%%%%",
"%%%%++++++++++++@@%%%%++++%%..oooooo..++++++++++@@%%%%++++%%%%%%",
"%%%%++++++++++++@@%%%%++++%%..oooooo..++++++++++@@%%%%++++%%%%%%",
"%%%%@@OOOOOO++++++%%%%@@++..XXXXXXXXXX..OOOO++++++%%%%@@++@@@@%%",
"%%%%@@OOOOOO++++++%%%%@@++..XXXXXXXXXX..OOOO++++++%%%%@@++@@@@%%",
"@@OOOOOOOO++++++++++++++++..XXXXXXXXXX..OO++++++++++++++++++@@@@",
"@@OOOOOOOO++++++++++++++++..XXXXXXXXXX..OO++++++++++++++++++@@@@",
"++OOOOOOOOOO++OOOOOO++++++++          OOOOOO++OOOOOO++++++++++++",
"++OOOOOOOOOO++OOOOOO++++++++          OOOOOO++OOOOOO++++++++++++",
"++++OOOOOO++OOOOOOOOOOOOOO++++++++++OOOOOO++OOOOOOOOOOOOOO++++++",
"++++OOOOOO++OOOOOOOOOOOOOO++++++++++OOOOOO++OOOOOOOOOOOOOO++++++",
"++++++@@@@@@++OOOOOOOO++++++++++++++++@@@@@@++OOOOOOOO++++++++++",
"++++++@@@@@@++OOOOOOOO++++++++++++++++@@@@@@++OOOOOOOO++++++++++",
"++++@@%%%%@@@@++++++++++++++%%@@++++@@%%%%@@@@++++++++++++++%%@@",
"++++@@%%%%@@@@++++++++++++++%%@@++++@@%%%%@@@@++++++++++++++%%@@",
"++++++%%%%@@++++++++++++@@%%%%%%++++++%%%%@@++++++++++++@@%%%%%%",
"++++++%%%%@@++++++++++++@@%%%%%%++++++%%%%@@++++++++++++@@%%%%%%"
};
