/* XPM */
static char *result[] = {
/* columns rows colors chars-per-pixel */
"64 64 11 1 ",
"  c black",
". c gray19",
"X c #424A4A",
"o c #504848",
"O c #4A5252",
"+ c #4A5A5A",
"@ c #526363",
"# c #686060",
"$ c #808080",
"% c #909090",
"& c #C0C0C0",
/* pixels */
"XXXXOOOOOOOOOOOOOOOOOOOOOO@@@@@@XXXXOOOOOOOOOOOOOOOOOOOOOO@@@@@@",
"XXXXOOOOOOOOOOOOOOOOOOOOOO@@@@@@XXXXOOOOOOOOOOOOOOOOOOOOOO@@@@@@",
"XXXXXXOO++OOOOOOOOOOOOOOOOOO++XXXXXXXX  ++OOOOOOOOOOOOOOOOOO++XX",
"XXXXXXOO++OOOOOOOOOOOOOOOOOO++XXXXXXXX  ++OOOOOOOOOOOOOOOOOO++XX",
"XXOOOO@@@@@@@@OOOOOOOOOOOOOOOOOOXXOO  %%  @@@@OOOOOOOOOOOOOOOOOO",
"XXOOOO@@@@@@@@OOOOOOOOOOOOOOOOOOXXOO  %%  @@@@OOOOOOOOOOOOOOOOOO",
"OOOO++@@@@@@++++OOOOOOOOOOOOOOOOOOOO  %%  ..++++OOOOOOOOOOOOOOOO",
"OOOO++@@@@@@++++OOOOOOOOOOOOOOOOOOOO  %%  ..++++OOOOOOOOOOOOOOOO",
"OOOOOOOOOOOOOOOOOOOOOOOO@@@@@@OOOOOO  %%####..OOOOOOOOOO@@@@@@OO",
"OOOOOOOOOOOOOOOOOOOOOOOO@@@@@@OOOOOO  %%####..OOOOOOOOOO@@@@@@OO",
"++OOOOOOXXXXXXXXOOOO@@@@@@@@@@++++  ..    ##....OOOO@@@@@@@@@@++",
"++OOOOOOXXXXXXXXOOOO@@@@@@@@@@++++  ..    ##....OOOO@@@@@@@@@@++",
"OOOOOOXXXXXXXXXXXXOO++@@....    ..######%%&&&&%%..OO++@@@@++++OO",
"OOOOOOXXXXXXXXXXXXOO++@@....    ..######%%&&&&%%..OO++@@@@++++OO",
"++OOOOOOOOXXXXOOOOOOOO  &&%%%%%%....$$$$%%%%&&%%  OOOOOOOOOO@@@@",
"++OOOOOOOOXXXXOOOOOOOO  &&%%%%%%....$$$$%%%%&&%%  OOOOOOOOOO@@@@",
"@@@@OOOOOOOOOOOO++@@  &&%%%%%%%%%%%%..$$%%%%%%&&&&  @@OOOO@@@@@@",
"@@@@OOOOOOOOOOOO++@@  &&%%%%%%%%%%%%..$$%%%%%%&&&&  @@OOOO@@@@@@",
"@@@@++XXXXXXOOOOOO@@  &&&&&&%%%%%%%%%%..##$$%%&&##..@@++OO++++@@",
"@@@@++XXXXXXOOOOOO@@  &&&&&&%%%%%%%%%%..##$$%%&&##..@@++OO++++@@",
"++XXXXXXXXOOOOOOOO  &&&&&&&&&&%%%%%%%%..oo$$$$$$####  OOOOOO++++",
"++XXXXXXXXOOOOOOOO  &&&&&&&&&&%%%%%%%%..oo$$$$$$####  OOOOOO++++",
"OOXXXXXXXXXXOOXXXX  &&%%%%%%&&&&%%####  oooo$$$$##%%  OOOOOOOOOO",
"OOXXXXXXXXXXOOXXXX  &&%%%%%%&&&&%%####  oooo$$$$##%%  OOOOOOOOOO",
"OOOOXXXXXXOOXXXXXX  %%%%%%%%%%########  oooo$$$$##%%  XXXXOOOOOO",
"OOOOXXXXXXOOXXXXXX  %%%%%%%%%%########  oooo$$$$##%%  XXXXOOOOOO",
"OOOOOO++++++OOXXXXXX  %%%%%%%%########  ..oo$$####..XXOOOOOOOOOO",
"OOOOOO++++++OOXXXXXX  %%%%%%%%########  ..oo$$####..XXOOOOOOOOOO",
"OOOO++@@@@++++OOOOOO  %%%%%%########  ....oooo####..OOOOOOOO@@++",
"OOOO++@@@@++++OOOOOO  %%%%%%########  ....oooo####..OOOOOOOO@@++",
"OOOOOO@@@@++OOOOOO..$$  ########    ......oooo##  OOOOOO++@@@@@@",
"OOOOOO@@@@++OOOOOO..$$  ########    ......oooo##  OOOOOO++@@@@@@",
"XXXXOOOOOOOOOOOOOO..&&&&        ##  ....oooooo##  OOOOOOOO@@@@@@",
"XXXXOOOOOOOOOOOOOO..&&&&        ##  ....oooooo##  OOOOOOOO@@@@@@",
"XXXXXXOO++OOOOOOOO..%%&&&&$$$$$$####  ..oooo##  OOOOOOOOOOOO++XX",
"XXXXXXOO++OOOOOOOO..%%&&&&$$$$$$####  ..oooo##  OOOOOOOOOOOO++XX",
"XXOOOO@@@@@@@@OOOO..%%%%%%$$$$######  @@....  OOOOOOOOOOOOOOOOOO",
"XXOOOO@@@@@@@@OOOO..%%%%%%$$$$######  @@....  OOOOOOOOOOOOOOOOOO",
"OOOO++@@@@@@++++OOOO  %%%%$$######  ..@@@@@@++++OOOOOOOOOOOOOOOO",
"OOOO++@@@@@@++++OOOO  %%%%$$######  ..@@@@@@++++OOOOOOOOOOOOOOOO",
"OOOOOOOOOOOOOOOOOOOOOO    ####    $$##..OOOOOOOOOOOOOOOO@@@@@@OO",
"OOOOOOOOOOOOOOOOOOOOOO    ####    $$##..OOOOOOOOOOOOOOOO@@@@@@OO",
"++OOOOOOXXXXXXXXOOOO@@..%%    $$$$$$##..XXXXXXXXOOOO@@@@@@@@@@++",
"++OOOOOOXXXXXXXXOOOO@@..%%    $$$$$$##..XXXXXXXXOOOO@@@@@@@@@@++",
"OOOOOOXXXX....XXXXOO++@@..%%%%$$$$####..XXXXXXXXXXOO++@@@@++++OO",
"OOOOOOXXXX....XXXXOO++@@..%%%%$$$$####..XXXXXXXXXXOO++@@@@++++OO",
"++OOOOOOOO..%%..OOOOOOOO..  %%$$##oo  ##..XXXXOOOOOOOOOOOOOO@@@@",
"++OOOOOOOO..%%..OOOOOOOO..  %%$$##oo  ##..XXXXOOOOOOOOOOOOOO@@@@",
"@@@@OOOOOOOO  %%..@@@@OOOO..        $$oo..OOOOOO++@@@@OOOO@@@@@@",
"@@@@OOOOOOOO  %%..@@@@OOOO..        $$oo..OOOOOO++@@@@OOOO@@@@@@",
"@@@@++XXXXXX  ##..@@......  %%%%$$$$oooo..XXOOOOOO@@@@++OO++++@@",
"@@@@++XXXXXX  ##..@@......  %%%%$$$$oooo..XXOOOOOO@@@@++OO++++@@",
"++XXXXXXXXOOOO  %%..%%$$..$$..%%##oooo  XXOOOOOOOOOOOOOOOOOO++++",
"++XXXXXXXXOOOO  %%..%%$$..$$..%%##oooo  XXOOOOOOOOOOOOOOOOOO++++",
"OOXXXXXXXXXXOO  oo..####  $$##        XXXXXXOOXXXXXXOOOOOOOOOOOO",
"OOXXXXXXXXXXOO  oo..####  $$##        XXXXXXOOXXXXXXOOOOOOOOOOOO",
"OOOOXXXXXXOOXXXX....oooo  oooooooo..XXXXXXOOXXXXXXXXXXXXXXOOOOOO",
"OOOOXXXXXXOOXXXX....oooo  oooooooo..XXXXXXOOXXXXXXXXXXXXXXOOOOOO",
"OOOOOO++++++OOXXXXXX    OO        OOOO++++++OOXXXXXXXXOOOOOOOOOO",
"OOOOOO++++++OOXXXXXX    OO        OOOO++++++OOXXXXXXXXOOOOOOOOOO",
"OOOO++@@@@++++OOOOOOOOOOOOOO@@++OOOO++@@@@++++OOOOOOOOOOOOOO@@++",
"OOOO++@@@@++++OOOOOOOOOOOOOO@@++OOOO++@@@@++++OOOOOOOOOOOOOO@@++",
"OOOOOO@@@@++OOOOOOOOOOOO++@@@@@@OOOOOO@@@@++OOOOOOOOOOOO++@@@@@@",
"OOOOOO@@@@++OOOOOOOOOOOO++@@@@@@OOOOOO@@@@++OOOOOOOOOOOO++@@@@@@"
};
