/* XPM */
static char *result[] = {
/* columns rows colors chars-per-pixel */
"64 64 14 1 ",
"  c black",
". c gray19",
"X c #483820",
"o c #685018",
"O c #783868",
"+ c #424A4A",
"@ c #4A5252",
"# c #4A5A5A",
"$ c #526363",
"% c #68A848",
"& c #90C858",
"* c #D0F078",
"= c #A870A8",
"- c #C890D0",
/* pixels */
"++++@@@@@@@@@@@@@@@@@@@@@@$$$$$$OOOOOOOOOO@@@@@@@@@@@@@@@@$$$$$$",
"++++@@@@@@@@@@@@@@@@@@@@@@$$$$$$OOOOOOOOOO@@@@@@@@@@@@@@@@$$$$$$",
"++++++@@##@@@@@@@@@@@@@@@@@@##++OO--------OO@@@@@@@@@@@@@@@@##++",
"++++++@@##@@@@@@@@@@@@@@@@@@##++OO--------OO@@@@@@@@@@@@@@@@##++",
"++@@@@$$$$$$$$@@@@@@OOOOOOOO@@@@OO--------OOOO@@@@@@@@@@@@@@@@@@",
"++@@@@$$$$$$$$@@@@@@OOOOOOOO@@@@OO--------OOOO@@@@@@@@@@@@@@@@@@",
"@@@@##$$$$$$####@@OO------OO@@@@@@OOOOOO------OO@@@@@@@@@@@@@@@@",
"@@@@##$$$$$$####@@OO------OO@@@@@@OOOOOO------OO@@@@@@@@@@@@@@@@",
"@@@@@@@@@@@@@@@@@@OO--====OO$$@@@@======------OO@@@@@@@@$$$$$$@@",
"@@@@@@@@@@@@@@@@@@OO--====OO$$@@@@======------OO@@@@@@@@$$$$$$@@",
"##@@@@@@++++++++OOOO--====OOOOOOOO======------OO@@@@$$$$$$$$$$##",
"##@@@@@@++++++++OOOO--====OOOOOOOO======------OO@@@@$$$$$$$$$$##",
"@@@@@@++++++++++OO--------========--&&&&&&----==OO@@##$$$$####@@",
"@@@@@@++++++++++OO--------========--&&&&&&----==OO@@##$$$$####@@",
"##@@@@@@@@++OOOOOO--&&&&&&----------****&&----==OO@@@@@@@@@@$$$$",
"##@@@@@@@@++OOOOOO--&&&&&&----------****&&----==OO@@@@@@@@@@$$$$",
"$$$$@@@@@@OO==------&&****------------------------OO$$OO@@$$$$$$",
"$$$$@@@@@@OO==------&&****------------------------OO$$OO@@$$$$$$",
"$$$$##++++OO==------&&****------------------------OOOOOO@@####$$",
"$$$$##++++OO==------&&****------------------------OOOOOO@@####$$",
"##++++++OOOO==----------------------------&&&&----OOOO==OO@@####",
"##++++++OOOO==----------------------------&&&&----OOOO==OO@@####",
"@@++++OO==========------------------------------&&%%%%==OO@@@@@@",
"@@++++OO==========------------------------------&&%%%%==OO@@@@@@",
"@@@@++OO==========------------------------------&&%%%%==OO@@@@@@",
"@@@@++OO==========------------------------------&&%%%%==OO@@@@@@",
"@@@@@@OO====%%&&&&------------------------------%%%%%%==OO@@@@@@",
"@@@@@@OO====%%&&&&------------------------------%%%%%%==OO@@@@@@",
"@@@@##OO====%%%%%%------------------------------========OO@@$$##",
"@@@@##OO====%%%%%%------------------------------========OO@@$$##",
"@@@@@@OO============--------====OO------------==&&====OO##$$$$$$",
"@@@@@@OO============--------====OO------------==&&====OO##$$$$$$",
"++++@@OO============--------====OO------------==&&====OO@@$$$$$$",
"++++@@OO============--------====OO------------==&&====OO@@$$$$$$",
"++++++OO====OO====&&==------------OO==================OO@@@@##++",
"++++++OO====OO====&&==------------OO==================OO@@@@##++",
"++@@@@$$OOOO$$OOOO==============OOOO======%%%%%%==OOOO@@@@@@@@@@",
"++@@@@$$OOOO$$OOOO==============OOOO======%%%%%%==OOOO@@@@@@@@@@",
"@@@@##$$$$$$####OO==============OOOO======%%%%%%==OO@@@@@@@@@@@@",
"@@@@##$$$$$$####OO==============OOOO======%%%%%%==OO@@@@@@@@@@@@",
"@@@@@@@@@@@@OOOOOO====%%%%%%====OO========%%%%%%==OO@@@@$$$$$$@@",
"@@@@@@@@@@@@OOOOOO====%%%%%%====OO========%%%%%%==OO@@@@$$$$$$@@",
"##@@@@@@++++OO========%%%%%%====OO==%%%%==========OOOOOO$$$$$$##",
"##@@@@@@++++OO========%%%%%%====OO==%%%%==========OOOOOO$$$$$$##",
"@@@@@@++++++++OOOO==========OOOO==OO==================OO$$####@@",
"@@@@@@++++++++OOOO==========OOOO==OO==================OO$$####@@",
"##@@@@@@@@++++@@OO==========OOOO==OO==================OO@@@@$$$$",
"##@@@@@@@@++++@@OO==========OOOO==OO==================OO@@@@$$$$",
"$$$$@@@@@@@@@@@@##OOOO======OOOOOOOOOOOO======OOOOOOOO@@@@$$$$$$",
"$$$$@@@@@@@@@@@@##OOOO======OOOOOOOOOOOO======OOOOOOOO@@@@$$$$$$",
"$$$$##++++++@@@@@@$$$$OOOOXXOOOOXX..OOOOOOOOOO@@@@$$$$##@@####$$",
"$$$$##++++++@@@@@@$$$$OOOOXXOOOOXX..OOOOOOOOOO@@@@$$$$##@@####$$",
"##++++++++@@@@@@@@@@@@OOOOXXOOOOXX..OOOO++@@@@@@@@@@@@@@@@@@####",
"##++++++++@@@@@@@@@@@@OOOOXXOOOOXX..OOOO++@@@@@@@@@@@@@@@@@@####",
"@@++++++++++@@++++++@@@@@@XXOOOOXXoo....++++@@++++++@@@@@@@@@@@@",
"@@++++++++++@@++++++@@@@@@XXOOOOXXoo....++++@@++++++@@@@@@@@@@@@",
"@@@@++++++@@++++++++++....ooXXXXoooooooo..@@++++++++++++++@@@@@@",
"@@@@++++++@@++++++++++....ooXXXXoooooooo..@@++++++++++++++@@@@@@",
"@@@@@@######@@++++++++....oooooooooooooo  ##@@++++++++@@@@@@@@@@",
"@@@@@@######@@++++++++....oooooooooooooo  ##@@++++++++@@@@@@@@@@",
"@@@@##$$$$####@@@@@@@@....oooooooooooooo  ####@@@@@@@@@@@@@@$$##",
"@@@@##$$$$####@@@@@@@@....oooooooooooooo  ####@@@@@@@@@@@@@@$$##",
"@@@@@@$$$$##@@@@@@@@@@@@##              $$##@@@@@@@@@@@@##$$$$$$",
"@@@@@@$$$$##@@@@@@@@@@@@##              $$##@@@@@@@@@@@@##$$$$$$"
};
