/* XPM */
static char *result[] = {
/* columns rows colors chars-per-pixel */
"64 64 12 1 ",
"  c black",
". c gray19",
"X c #424A4A",
"o c #504848",
"O c #4A5252",
"+ c #4A5A5A",
"@ c #526363",
"# c #686060",
"$ c #808080",
"% c #909090",
"& c #C0C0C0",
"* c #E8E8F8",
/* pixels */
"XXXXOOOOOOOOOOOOOOOOOOOOOO@@@@@@XXXXOOOOOOOOOOOOOOOOOOOOOO@@@@@@",
"XXXXOOOOOOOOOOOOOOOOOOOOOO@@@@@@XXXXOOOOOOOOOOOOOOOOOOOOOO@@@@@@",
"XXXXXXOO++OOOOOOOOOOOOOOOOOO++..  XXXXOO++OOOOOOOOOOOOOOOOOO++XX",
"XXXXXXOO++OOOOOOOOOOOOOOOOOO++..  XXXXOO++OOOOOOOOOOOOOOOOOO++XX",
"XXOOOO@@@@@@@@OOOOOOOOOOOOOOOO  &&  OO@@@@@@@@OOOOOOOOOOOOOOOOOO",
"XXOOOO@@@@@@@@OOOOOOOOOOOOOOOO  &&  OO@@@@@@@@OOOOOOOOOOOOOOOOOO",
"OOOO++@@@@@@++++OOOOOOOOOOOOOO  &&  ++@@@@@@++++OOOOOOOOOOOOOOOO",
"OOOO++@@@@@@++++OOOOOOOOOOOOOO  &&  ++@@@@@@++++OOOOOOOOOOOOOOOO",
"OOOOOOOOOOOOOOOOOOOOOOOO@@@@@@  %%&&  OOOOOOOOOOOOOOOOOO@@@@@@OO",
"OOOOOOOOOOOOOOOOOOOOOOOO@@@@@@  %%&&  OOOOOOOOOOOOOOOOOO@@@@@@OO",
"++OOOOOOXXXXXXXXOOOO@@@@@@@@@@  %%&&  OOXXXXXXXXOOOO@@@@@@@@@@++",
"++OOOOOOXXXXXXXXOOOO@@@@@@@@@@  %%&&  OOXXXXXXXXOOOO@@@@@@@@@@++",
"OOOOOOXXXXXXXXXXXXOO++@@@@++..##&&%%&&  ..XXXXXXXXOO++@@@@++++OO",
"OOOOOOXXXXXXXXXXXXOO++@@@@++..##&&%%&&  ..XXXXXXXXOO++@@@@++++OO",
"++OOOOOOOOXXXXOOOOOOOOOOOO    %%&&%%&&..%%  XXOOOOOOOOOOOOOO@@@@",
"++OOOOOOOOXXXXOOOOOOOOOOOO    %%&&%%&&..%%  XXOOOOOOOOOOOOOO@@@@",
"@@@@OOOOOOOOOOOO++......  ####%%%%&&&&##%%&&  OO++@@@@OOOO@@@@@@",
"@@@@OOOOOOOOOOOO++......  ####%%%%&&&&##%%&&  OO++@@@@OOOO@@@@@@",
"@@@@++XXXXXXOOOO..%%&&&&  $$$$$$&&&&%%&&&&&&##  OO@@@@++OO++++@@",
"@@@@++XXXXXXOOOO..%%&&&&  $$$$$$&&&&%%&&&&&&##  OO@@@@++OO++++@@",
"++XXXXXXXXOOOO..%%%%&&&&..%%%%%%%%%%%%&&&&&&&&..OOOOOOOOOOOO++++",
"++XXXXXXXXOOOO..%%%%&&&&..%%%%%%%%%%%%&&&&&&&&..OOOOOOOOOOOO++++",
"OOXXXXXXXXXXOO..&&&&&&  $$$$$$$$$$&&&&&&%%%%&&%%..XXOOOOOOOOOOOO",
"OOXXXXXXXXXXOO..&&&&&&  $$$$$$$$$$&&&&&&%%%%&&%%..XXOOOOOOOOOOOO",
"OOOOXXXXXXOO  ####&&%%  $$$$$$$$$$&&&&&&&&&&##&&&&..XXXXXXOOOOOO",
"OOOOXXXXXXOO  ####&&%%  $$$$$$$$$$&&&&&&&&&&##&&&&..XXXXXXOOOOOO",
"OOOOOO++++++  ######%%..##########$$%%&&**$$##..%%&&  OOOOOOOOOO",
"OOOOOO++++++  ######%%..##########$$%%&&**$$##..%%&&  OOOOOOOOOO",
"OOOO++@@@@++  oooo##$$##  ########$$$$%%**  &&%%..%%  OOOOOO@@++",
"OOOO++@@@@++  oooo##$$##  ########$$$$%%**  &&%%..%%  OOOOOO@@++",
"OOOOOO@@@@++OO  $$$$$$####  ######$$$$%%%%&&&&%%%%&&  OO++@@@@@@",
"OOOOOO@@@@++OO  $$$$$$####  ######$$$$%%%%&&&&%%%%&&  OO++@@@@@@",
"XXXXOOOOOOOOOO  ######oooo..  ####......%%%%####..  OOOOOO@@@@@@",
"XXXXOOOOOOOOOO  ######oooo..  ####......%%%%####..  OOOOOO@@@@@@",
"XXXXXXOO++OOOOOO  oo##oooo    ......####......    OOOOOOOOOO++XX",
"XXXXXXOO++OOOOOO  oo##oooo    ......####......    OOOOOOOOOO++XX",
"XXOOOO@@@@@@@@OOOO..  ......oo  XXOO....      OOOOOOOOOOOOOOOOOO",
"XXOOOO@@@@@@@@OOOO..  ......oo  XXOO....      OOOOOOOOOOOOOOOOOO",
"OOOO++@@@@@@++++OO..&&&&$$$$oooo  OO++@@@@@@++++OOOOOOOOOOOOOOOO",
"OOOO++@@@@@@++++OO..&&&&$$$$oooo  OO++@@@@@@++++OOOOOOOOOOOOOOOO",
"OOOOOOOOOOOOOOOOOO  $$&&$$oooooo  OOOOOOOOOOOOOOOOOOOOOO@@@@@@OO",
"OOOOOOOOOOOOOOOOOO  $$&&$$oooooo  OOOOOOOOOOOOOOOOOOOOOO@@@@@@OO",
"++OOOOOOXXXXXXXXOO  $$$$####oooo  OOOOOOXXXXXXXXOOOO@@@@@@@@@@++",
"++OOOOOOXXXXXXXXOO  $$$$####oooo  OOOOOOXXXXXXXXOOOO@@@@@@@@@@++",
"OOOOOOXX....XXXXXXOO  $$####oo  oo..OOXXXXXXXXXXXXOO++@@@@++++OO",
"OOOOOOXX....XXXXXXOO  $$####oo  oo..OOXXXXXXXXXXXXOO++@@@@++++OO",
"++OOOOOO..%%..OOOOOOOO        oooooo..OOOOXXXXOOOOOOOOOOOOOO@@@@",
"++OOOOOO..%%..OOOOOOOO        oooooo..OOOOXXXXOOOOOOOOOOOOOO@@@@",
"@@@@OOOOOO  $$  ++@@@@..$$$$####oooo..OOOOOOOOOO++@@@@OOOO@@@@@@",
"@@@@OOOOOO  $$  ++@@@@..$$$$####oooo..OOOOOOOOOO++@@@@OOOO@@@@@@",
"@@@@++XXXX  ##....@@    oo$$$$##oooo  XXXXXXOOOOOO@@@@++OO++++@@",
"@@@@++XXXX  ##....@@    oo$$$$##oooo  XXXXXXOOOOOO@@@@++OO++++@@",
"++XXXXXXXXOO  $$##..  $$  ..oooo    XXXXXXOOOOOOOOOOOOOOOOOO++++",
"++XXXXXXXXOO  $$##..  $$  ..oooo    XXXXXXOOOOOOOOOOOOOOOOOO++++",
"OOXXXXXXXXXX  oo..$$  $$##      OOXXXXXXXXXXOOXXXXXXOOOOOOOOOOOO",
"OOXXXXXXXXXX  oo..$$  $$##      OOXXXXXXXXXXOOXXXXXXOOOOOOOOOOOO",
"OOOOXXXXXXOOXX    oooo  ##oooo  OOOOXXXXXXOOXXXXXXXXXXXXXXOOOOOO",
"OOOOXXXXXXOOXX    oooo  ##oooo  OOOOXXXXXXOOXXXXXXXXXXXXXXOOOOOO",
"OOOOOO++++++OOXXXX    OO      OOOOOOOO++++++OOXXXXXXXXOOOOOOOOOO",
"OOOOOO++++++OOXXXX    OO      OOOOOOOO++++++OOXXXXXXXXOOOOOOOOOO",
"OOOO++@@@@++++OOOOOOOOOOOOOO@@++OOOO++@@@@++++OOOOOOOOOOOOOO@@++",
"OOOO++@@@@++++OOOOOOOOOOOOOO@@++OOOO++@@@@++++OOOOOOOOOOOOOO@@++",
"OOOOOO@@@@++OOOOOOOOOOOO++@@@@@@OOOOOO@@@@++OOOOOOOOOOOO++@@@@@@",
"OOOOOO@@@@++OOOOOOOOOOOO++@@@@@@OOOOOO@@@@++OOOOOOOOOOOO++@@@@@@"
};
