/* XPM */
static char *result[] = {
/* columns rows colors chars-per-pixel */
"64 64 15 1 ",
"  c black",
". c #483820",
"X c #685018",
"o c #783868",
"O c #424A4A",
"+ c #4A5252",
"@ c #4A5A5A",
"# c #407040",
"$ c #605860",
"% c #526363",
"& c #68A848",
"* c #90C858",
"= c #D0F078",
"- c #A870A8",
"; c #C890D0",
/* pixels */
"OOOO++++++++++++++++++ooooooooooOOOO++++++++++++++++++++++%%%%%%",
"OOOO++++++++++++++++++ooooooooooOOOO++++++++++++++++++++++%%%%%%",
"OOOOOO++@@++++++++++oo;;;;;;;;ooOOOOOO++@@++++++++++++++++++@@OO",
"OOOOOO++@@++++++++++oo;;;;;;;;ooOOOOOO++@@++++++++++++++++++@@OO",
"OO++++%%%%%%%%++++++oo;;;;;;;;ooOO++++%%%%%%%%++++++++++++++++++",
"OO++++%%%%%%%%++++++oo;;;;;;;;ooOO++++%%%%%%%%++++++++++++++++++",
"++++@@%%%%%%@@@@oooo;;;;oooooo++++++@@oooooo@@@@++++++++++++++++",
"++++@@%%%%%%@@@@oooo;;;;oooooo++++++@@oooooo@@@@++++++++++++++++",
"++++++++++++++++oooo;;;;------oooooooo--;;;;oooo++++++++%%%%%%++",
"++++++++++++++++oooo;;;;------oooooooo--;;;;oooo++++++++%%%%%%++",
"@@++++++OOOOOOoo----;;;;******--------**====;;oo++++%%%%%%%%%%@@",
"@@++++++OOOOOOoo----;;;;******--------**====;;oo++++%%%%%%%%%%@@",
"++++++OOOOOOOOoo----;;;;******--------**====;;ooOO++@@%%%%@@@@++",
"++++++OOOOOOOOoo----;;;;******--------**====;;ooOO++@@%%%%@@@@++",
"@@++++++++OOOOoo----;;;;****==;;;;;;;;******;;oooooo++++++++%%%%",
"@@++++++++OOOOoo----;;;;****==;;;;;;;;******;;oooooo++++++++%%%%",
"%%%%++++oooooo;;****;;;;;;;;;;;;;;;;;;;;;;;;;;;;----oo++++%%%%%%",
"%%%%++++oooooo;;****;;;;;;;;;;;;;;;;;;;;;;;;;;;;----oo++++%%%%%%",
"%%%%@@oo----oo;;;;;;;;;;;;;;;;;;;;;;;;;;;;;;;;**&&&&oo@@++@@@@%%",
"%%%%@@oo----oo;;;;;;;;;;;;;;;;;;;;;;;;;;;;;;;;**&&&&oo@@++@@@@%%",
"@@OOOOoo----oo;;;;;;;;;;;;;;;;;;;;;;;;;;;;;;;;**&&&&oo++++++@@@@",
"@@OOOOoo----oo;;;;;;;;;;;;;;;;;;;;;;;;;;;;;;;;**&&&&oo++++++@@@@",
"++OOOOoo----&&**;;;;&&**;;;;;;;;&&&&&&&&&&&&;;&&&&&&--oo++++++++",
"++OOOOoo----&&**;;;;&&**;;;;;;;;&&&&&&&&&&&&;;&&&&&&--oo++++++++",
"++++OOoo----&&&&;;;;&&##****;;;;&&&&##&&;;;;;;--------ooOO++++++",
"++++OOoo----&&&&;;;;&&##****;;;;&&&&##&&;;;;;;--------ooOO++++++",
"++++++oo------;;;;;;;;;;****;;&&####&&;;;;;;;;&&------oo++++++++",
"++++++oo------;;;;;;;;;;****;;&&####&&;;;;;;;;&&------oo++++++++",
"++++@@oo------;;;;;;;;;;****;;&&####&&;;;;;;;;&&------oo++++%%@@",
"++++@@oo------;;;;;;;;;;****;;&&####&&;;;;;;;;&&------oo++++%%@@",
"++++++%%oooo--;;######;;;;;;&&;;;;;;;;;;;;;;;;--------oo@@%%%%%%",
"++++++%%oooo--;;######;;;;;;&&;;;;;;;;;;;;;;;;--------oo@@%%%%%%",
"OOOO++++oooo----####&&&&;;;;&&&&####&&##--------oooo--oo++%%%%%%",
"OOOO++++oooo----####&&&&;;;;&&&&####&&##--------oooo--oo++%%%%%%",
"OOOOOO++@@++oo--;;;;##&&######&&&&&&##--------oooooo--oo++++@@OO",
"OOOOOO++@@++oo--;;;;##&&######&&&&&&##--------oooooo--oo++++@@OO",
"OO++++%%%%%%oo--;;;;##&&######&&&&&&##--------oo++oo--oo++++++++",
"OO++++%%%%%%oo--;;;;##&&######&&&&&&##--------oo++oo--oo++++++++",
"++++@@%%%%%%oooo------##------######--&&&&&&--oo++++oooo++++++++",
"++++@@%%%%%%oooo------##------######--&&&&&&--oo++++oooo++++++++",
"++++++++++++oo------------------------**&&&&oooo++++++++%%%%%%++",
"++++++++++++oo------------------------**&&&&oooo++++++++%%%%%%++",
"@@++++++OOOOOOoooooo--&&--------------------ooOO++++%%%%%%%%%%@@",
"@@++++++OOOOOOoooooo--&&--------------------ooOO++++%%%%%%%%%%@@",
"++++++OOOOOOOOoooooo--&&--------------------ooOOOO++@@%%%%@@@@++",
"++++++OOOOOOOOoooooo--&&--------------------ooOOOO++@@%%%%@@@@++",
"@@++++++++OOOO++++++oooo------------&&--ooooOO++++++++++++++%%%%",
"@@++++++++OOOO++++++oooo------------&&--ooooOO++++++++++++++%%%%",
"%%%%++++++++++++@@%%%%++oooooo--------oo++++++++@@%%%%++++%%%%%%",
"%%%%++++++++++++@@%%%%++oooooo--------oo++++++++@@%%%%++++%%%%%%",
"%%%%@@OOOOOO++++++%%%%@@++@@oooo$$$$$$ooOOOO++++++%%%%@@++@@@@%%",
"%%%%@@OOOOOO++++++%%%%@@++@@oooo$$$$$$ooOOOO++++++%%%%@@++@@@@%%",
"@@OOOOOOOO++++++++++++++++++oooo$$$$$$ooOO++++++++++++++++++@@@@",
"@@OOOOOOOO++++++++++++++++++oooo$$$$$$ooOO++++++++++++++++++@@@@",
"++OOOOOOOOOO++OOOOOO++++++++..oooooooo..OOOO++OOOOOO++++++++++++",
"++OOOOOOOOOO++OOOOOO++++++++..oooooooo..OOOO++OOOOOO++++++++++++",
"++++OOOOOO++OOOOOOOOOOOO....XXXXXXXXXXXX....OOOOOOOOOOOOOO++++++",
"++++OOOOOO++OOOOOOOOOOOO....XXXXXXXXXXXX....OOOOOOOOOOOOOO++++++",
"++++++@@@@@@++OOOOOOOO++....XXXXXXXXXXXX....++OOOOOOOO++++++++++",
"++++++@@@@@@++OOOOOOOO++....XXXXXXXXXXXX....++OOOOOOOO++++++++++",
"++++@@%%%%@@@@++++++++++....XXXXXXXXXXXX....@@++++++++++++++%%@@",
"++++@@%%%%@@@@++++++++++....XXXXXXXXXXXX....@@++++++++++++++%%@@",
"++++++%%%%@@++++++++++++@@%%            %%@@++++++++++++@@%%%%%%",
"++++++%%%%@@++++++++++++@@%%            %%@@++++++++++++@@%%%%%%"
};
