/* XPM */
static char *result[] = {
/* columns rows colors chars-per-pixel */
"64 64 67 1 ",
"  c #020202",
". c gray1",
"X c #0B0403",
"o c #0F0807",
"O c #090909",
"+ c #0E0E0F",
"@ c #131314",
"# c #1D1D1D",
"$ c #1F1F1E",
"% c #222220",
"& c #282725",
"* c #292827",
"= c #383831",
"- c #3B3930",
"; c #3D3B33",
": c #383E3E",
"> c #422928",
", c #4B2929",
"< c #4B2B2B",
"1 c #42362E",
"2 c #433B34",
"3 c #523332",
"4 c #5F3A37",
"5 c #46463F",
"6 c #63413E",
"7 c #424A4A",
"8 c #514F48",
"9 c #4A5252",
"0 c #4A5A5A",
"q c #545C5A",
"w c #684541",
"e c #684A46",
"r c #6B4C48",
"t c #526363",
"y c #546362",
"u c #6F6F75",
"i c #707076",
"p c #707077",
"a c #872F28",
"s c #8C2F28",
"d c #823028",
"f c #863129",
"g c #8B3028",
"h c #8E3028",
"j c #8F3028",
"k c #8F332B",
"l c #903028",
"z c #96342B",
"x c #93352C",
"c c #B85042",
"v c #BA5A4D",
"b c #C25445",
"n c #C55646",
"m c #C65747",
"M c #C55748",
"N c #C85848",
"B c #CC6657",
"V c #797980",
"C c #797981",
"Z c #7C7C84",
"A c #7E7E85",
"S c #7E7E86",
"D c gray79",
"F c #D4D4D5",
"G c gray86",
"H c #EADAD7",
"J c #ECECEC",
/* pixels */
"77779999999999999999999999tttttt77779999999999999999999999tttttt",
"77779999999999999999999999tttttt77779999999999999999999999tttttt",
"7777779900999999999999999999007777777799009999999999999999990077",
"7777779900999999999999999999007777777799009999999999999999990077",
"779999tttttttt999999999999999999779999tttttttt999999999999999999",
"779999tttttttt999999999999999999779999tttttttt999999999999999999",
"999900tttttt00009999999999999999999900tttttt00009999999999999999",
"999900tttttt00009999999999999999999900tttttt00009999999999999999",
"999999999999999999999999tttttt99999999999999999999999999tttttt99",
"999999999999999999999999tttttt99999999999999999999999999tttttt99",
"00999999777777779999tttttttttt0000999999777777779999tttttttttt00",
"00999999777777779999tttttttttt0000999999777777779999tttttttttt00",
"9999997777777777779900tttt0000999999997777777777779900tttt000099",
"9999997777777777779900tttt0000999999997777777777779900tttt000099",
"0099999999777799999999999999tttt0099999999777799999999999999tttt",
"0099999999777799999999999999tttt0099999999777799999999999999tttt",
"tttt99999999999900tttt9999tttttttttt99999999999900tttt9999tttttt",
"tttt99999999999900tttt9999tttttttttt99999999999900tttt9999tttttt",
"tttt00777777999999tttt00990000tttttt00777777999999tttt00990000tt",
"tttt00777777999999tttt00990000tttttt00777777999999tttt00990000tt",
"0077777777999999999999999999000000777777779999999999999999990000",
"0077777777999999999999999999000000777777779999999999999999990000",
"99777777777799777777999999qqrr,,<<337777777799777777999999999999",
"99777777777799777777999999qqrr,,<<337777777799777777999999999999",
"99997777779977777777777777wwvvNNmmxx4477779977777777777777999999",
"99997777779977777777777777wwvvNNmmxx4477779977777777777777999999",
"99999900000099777777779944ccHHBBNNnnkk66yy0099777777779999999999",
"99999900000099777777779944ccHHBBNNnnkk66yy0099777777779999999999",
"999900tttt000099999999>>ssllbbMMNNzzllaaee000099999999999999tt00",
"999900tttt000099999999>>ssllbbMMNNzzllaaee000099999999999999tt00",
"999999tttt009999999999..ddllgg;;--hhlllloo0099999999999900tttttt",
"999999tttt009999999999..ddllgg;;--hhlllloo0099999999999900tttttt",
"7777999999999999999999  88ff==JJZZXXjj11..9999999999999999tttttt",
"7777999999999999999999  88ff==JJZZXXjj11..9999999999999999tttttt",
"77777799009999999999::&&DD55@@SSVV..22iiOO::99999999999999990077",
"77777799009999999999::&&DD55@@SSVV..22iiOO::99999999999999990077",
"779999tttttttt999999::::**GGFF  ++VVuu##::::tt999999999999999999",
"779999tttttttt999999::::**GGFF  ++VVuu##::::tt999999999999999999",
"999900tttttt00009999::::::##CCSSAApp$$::::::00009999999999999999",
"999900tttttt00009999::::::##CCSSAApp$$::::::00009999999999999999",
"9999999999999999999999::::::OO....%%::::::99999999999999tttttt99",
"9999999999999999999999::::::OO....%%::::::99999999999999tttttt99",
"00999999777777779999tttt::::::::::::::::777777779999tttttttttt00",
"00999999777777779999tttt::::::::::::::::777777779999tttttttttt00",
"9999997777777777779900tttt00::::::::997777777777779900tttt000099",
"9999997777777777779900tttt00::::::::997777777777779900tttt000099",
"0099999999777799999999999999tttt0099999999777799999999999999tttt",
"0099999999777799999999999999tttt0099999999777799999999999999tttt",
"tttt99999999999900tttt9999tttttttttt99999999999900tttt9999tttttt",
"tttt99999999999900tttt9999tttttttttt99999999999900tttt9999tttttt",
"tttt00777777999999tttt00990000tttttt00777777999999tttt00990000tt",
"tttt00777777999999tttt00990000tttttt00777777999999tttt00990000tt",
"0077777777999999999999999999000000777777779999999999999999990000",
"0077777777999999999999999999000000777777779999999999999999990000",
"9977777777779977777799999999999999777777777799777777999999999999",
"9977777777779977777799999999999999777777777799777777999999999999",
"9999777777997777777777777799999999997777779977777777777777999999",
"9999777777997777777777777799999999997777779977777777777777999999",
"9999990000009977777777999999999999999900000099777777779999999999",
"9999990000009977777777999999999999999900000099777777779999999999",
"999900tttt000099999999999999tt00999900tttt000099999999999999tt00",
"999900tttt000099999999999999tt00999900tttt000099999999999999tt00",
"999999tttt0099999999999900tttttt999999tttt0099999999999900tttttt",
"999999tttt0099999999999900tttttt999999tttt0099999999999900tttttt"
};
