/* XPM */
static char *result[] = {
/* columns rows colors chars-per-pixel */
"64 64 16 1 ",
"  c black",
". c #503018",
"X c #384040",
"o c #424A4A",
"O c #4A5252",
"+ c #4A5A5A",
"@ c #784040",
"# c #526363",
"$ c #C03838",
"% c #885028",
"& c #882840",
"* c #F06848",
"= c #C89800",
"- c #D8A078",
"; c #406888",
": c #F8D0B8",
/* pixels */
"ooooOOOOOOOOOOOOOOOOOOOOOO######ooooOOOOOOOOOOOOOOOOOOOOOO######",
"ooooOOOOOOOOOOOOOOOOOOOOOO######ooooOOOOOOOOOOOOOOOOOOOOOO######",
"ooooooOO++OOOOOOOOOOOOOOOOOO++ooooooooOO++OOOOOOOOOOOOOOOOOO++oo",
"ooooooOO++OOOOOOOOOOOOOOOOOO++ooooooooOO++OOOOOOOOOOOOOOOOOO++oo",
"ooOOOO########OOOOOOOOOOOOOOOOOOooOOOO########OOOOOOOOOOOOOOOOOO",
"ooOOOO########OOOOOOOOOOOOOOOOOOooOOOO########OOOOOOOOOOOOOOOOOO",
"OOOO++######++++OOOOOOOOOOOOOOOOOOOO++######++++OOOOOOOOOOOOOOOO",
"OOOO++######++++OOOOOOOOOOOOOOOOOOOO++######++++OOOOOOOOOOOOOOOO",
"OOOOOOOOOOOOOOOOOOOOOOOO&&&&&&&&&&&&&&OOOOOOOOOOOOOOOOOO######OO",
"OOOOOOOOOOOOOOOOOOOOOOOO&&&&&&&&&&&&&&OOOOOOOOOOOOOOOOOO######OO",
"++OOOOOOooooooooOOOO  &&**************&&  ooooooOOOO##########++",
"++OOOOOOooooooooOOOO  &&**************&&  ooooooOOOO##########++",
"OOOOOOoooooooooooo  $$******************$$  ooooooOO++####++++OO",
"OOOOOOoooooooooooo  $$******************$$  ooooooOO++####++++OO",
"++OOOOOOOOooooOOOO&&**********************&&ooOOOOOOOOOOOOOO####",
"++OOOOOOOOooooOOOO&&**********************&&ooOOOOOOOOOOOOOO####",
"####OOOOOOOOOOOO  $$**********************$$  OO++####OOOO######",
"####OOOOOOOOOOOO  $$**********************$$  OO++####OOOO######",
"####++ooooooOOOO  $$**********************$$  OOOO####++OO++++##",
"####++ooooooOOOO  $$**********************$$  OOOO####++OO++++##",
"++ooooooooOOOOOO  $$$$******************$$$$  OOOOOOOOOOOOOO++++",
"++ooooooooOOOOOO  $$$$******************$$$$  OOOOOOOOOOOOOO++++",
"OOooooooooooOOoo  $$$$$$$$**********$$$$$$$$  ooooooOOOOOOOOOOOO",
"OOooooooooooOOoo  $$$$$$$$**********$$$$$$$$  ooooooOOOOOOOOOOOO",
"OOOOooooooOOoo..&&&&$$$$$$$$XXXXXX$$$$$$$$&&&&..ooooooooooOOOOOO",
"OOOOooooooOOoo..&&&&$$$$$$$$XXXXXX$$$$$$$$&&&&..ooooooooooOOOOOO",
"OOOOOO++++++OO  --  $$$$$$XXXXXXXXXX$$$$$$  --  ooooooOOOOOOOOOO",
"OOOOOO++++++OO  --  $$$$$$XXXXXXXXXX$$$$$$  --  ooooooOOOOOOOOOO",
"OOOO++####++++  --..    $$$$$$$$$$$$$$    ..--  OOOOOOOOOOOO##++",
"OOOO++####++++  --..    $$$$$$$$$$$$$$    ..--  OOOOOOOOOOOO##++",
"OOOOOO####++OOOO  ..%%..              ..%%..  OOOOOOOOOO++######",
"OOOOOO####++OOOO  ..%%..              ..%%..  OOOOOOOOOO++######",
"ooooOOOOOOOOOOOOOO  ..%%%%%%%%%%%%%%%%%%..  OOOOOOOOOOOOOO######",
"ooooOOOOOOOOOOOOOO  ..%%%%%%%%%%%%%%%%%%..  OOOOOOOOOOOOOO######",
"ooooooOO++OOOOOOOOOO  ..%%%%%%%%%%%%%%..  OOOOOOOOOOOOOOOOOO++oo",
"ooooooOO++OOOOOOOOOO  ..%%%%%%%%%%%%%%..  OOOOOOOOOOOOOOOOOO++oo",
"ooOOOO########OOOOOOXX    ..%%%%%%..    XX####OOOOOOOOOOOOOOOOOO",
"ooOOOO########OOOOOOXX    ..%%%%%%..    XX####OOOOOOOOOOOOOOOOOO",
"OOOO++######++++OO  XXXX==..........==XXXX  ++++OOOOOOOOOOOOOOOO",
"OOOO++######++++OO  XXXX==..........==XXXX  ++++OOOOOOOOOOOOOOOO",
"OOOOOOOOOOOOOOOO  XXXX&&==  ======  ==&&XXXX  OOOOOOOOOO######OO",
"OOOOOOOOOOOOOOOO  XXXX&&==  ======  ==&&XXXX  OOOOOOOOOO######OO",
"++OOOOOOoooooo@@::--  $$  ==========  $$  --::@@OOOO##########++",
"++OOOOOOoooooo@@::--  $$  ==========  $$  --::@@OOOO##########++",
"OOOOOOoooooooo@@::::  &&..%%======%%..&&  ::::@@ooOO++####++++OO",
"OOOOOOoooooooo@@::::  &&..%%======%%..&&  ::::@@ooOO++####++++OO",
"++OOOOOOOOooooOO@@@@XX;;..==%%%%%%==..;;XX@@@@OOOOOOOOOOOOOO####",
"++OOOOOOOOooooOO@@@@XX;;..==%%%%%%==..;;XX@@@@OOOOOOOOOOOOOO####",
"####OOOOOOOOOOOO++##  XX;;  ======  ;;XX  OOOOOO++####OOOO######",
"####OOOOOOOOOOOO++##  XX;;  ======  ;;XX  OOOOOO++####OOOO######",
"####++ooooooOOOOOO##  $$$$XXXXXXXXXX$$$$  ooOOOOOO####++OO++++##",
"####++ooooooOOOOOO##  $$$$XXXXXXXXXX$$$$  ooOOOOOO####++OO++++##",
"++ooooooooOOOOOOOOOOOO    OO++++++oo    ooOOOOOOOOOOOOOOOOOO++++",
"++ooooooooOOOOOOOOOOOO    OO++++++oo    ooOOOOOOOOOOOOOOOOOO++++",
"OOooooooooooOOooooooOOOOOOOOOOOOOOooooooooooOOooooooOOOOOOOOOOOO",
"OOooooooooooOOooooooOOOOOOOOOOOOOOooooooooooOOooooooOOOOOOOOOOOO",
"OOOOooooooOOooooooooooooooOOOOOOOOOOooooooOOooooooooooooooOOOOOO",
"OOOOooooooOOooooooooooooooOOOOOOOOOOooooooOOooooooooooooooOOOOOO",
"OOOOOO++++++OOooooooooOOOOOOOOOOOOOOOO++++++OOooooooooOOOOOOOOOO",
"OOOOOO++++++OOooooooooOOOOOOOOOOOOOOOO++++++OOooooooooOOOOOOOOOO",
"OOOO++####++++OOOOOOOOOOOOOO##++OOOO++####++++OOOOOOOOOOOOOO##++",
"OOOO++####++++OOOOOOOOOOOOOO##++OOOO++####++++OOOOOOOOOOOOOO##++",
"OOOOOO####++OOOOOOOOOOOO++######OOOOOO####++OOOOOOOOOOOO++######",
"OOOOOO####++OOOOOOOOOOOO++######OOOOOO####++OOOOOOOOOOOO++######"
};
