/* XPM */
static char *result[] = {
/* columns rows colors chars-per-pixel */
"64 64 16 1 ",
"  c black",
". c #503018",
"X c #384040",
"o c #424A4A",
"O c #4A5252",
"+ c #4A5A5A",
"@ c #784040",
"# c #526363",
"$ c #C03838",
"% c #885028",
"& c #882840",
"* c #F06848",
"= c #C89800",
"- c #D8A078",
"; c #406888",
": c #F8D0B8",
/* pixels */
"ooooOOOOOOOOOOOOOOOOOO&&&&&&&&&&&&&&&&&&&&OOOOOOOOOOOOOOOO######",
"ooooOOOOOOOOOOOOOOOOOO&&&&&&&&&&&&&&&&&&&&OOOOOOOOOOOOOOOO######",
"ooooooOO++OOOOOOOO  &&********************&&  OOOOOOOOOOOOOO++oo",
"ooooooOO++OOOOOOOO  &&********************&&  OOOOOOOOOOOOOO++oo",
"ooOOOO########OOOO  &&********************&&  OOOOOOOOOOOOOOOOOO",
"ooOOOO########OOOO  &&********************&&  OOOOOOOOOOOOOOOOOO",
"OOOO++######++    $$************************$$    OOOOOOOOOOOOOO",
"OOOO++######++    $$************************$$    OOOOOOOOOOOOOO",
"OOOOOOOOOOOOOO&&&&****************************&&&&OOOOOO######OO",
"OOOOOOOOOOOOOO&&&&****************************&&&&OOOOOO######OO",
"++OOOOOOoooo  $$$$****************************$$$$  ##########++",
"++OOOOOOoooo  $$$$****************************$$$$  ##########++",
"OOOOOOoooooo  $$$$****************************$$$$  ++####++++OO",
"OOOOOOoooooo  $$$$****************************$$$$  ++####++++OO",
"++OOOOOOOOoo  $$$$****************************$$$$  OOOOOOOO####",
"++OOOOOOOOoo  $$$$****************************$$$$  OOOOOOOO####",
"####OOOOOOOO  $$$$$$************************$$$$$$  ##OOOO######",
"####OOOOOOOO  $$$$$$************************$$$$$$  ##OOOO######",
"####++oooooo  $$$$$$$$$$$$************$$$$$$$$$$$$  ##++OO++++##",
"####++oooooo  $$$$$$$$$$$$************$$$$$$$$$$$$  ##++OO++++##",
"++ooooooooOO  $$$$$$$$$$$$************$$$$$$$$$$$$  OOOOOOOO++++",
"++ooooooooOO  $$$$$$$$$$$$************$$$$$$$$$$$$  OOOOOOOO++++",
"OOoooooooo..&&&&&&$$$$$$$$$$XXXXXXXX$$$$$$$$$$&&&&&&..OOOOOOOOOO",
"OOoooooooo..&&&&&&$$$$$$$$$$XXXXXXXX$$$$$$$$$$&&&&&&..OOOOOOOOOO",
"OOOOoooooo  --    $$$$$$$$XXXXXXXXXXXX$$$$$$$$    --  ooooOOOOOO",
"OOOOoooooo  --    $$$$$$$$XXXXXXXXXXXX$$$$$$$$    --  ooooOOOOOO",
"OOOOOO++++  --....    $$$$$$$$$$$$$$$$$$$$    ....--  OOOOOOOOOO",
"OOOOOO++++  --....    $$$$$$$$$$$$$$$$$$$$    ....--  OOOOOOOOOO",
"OOOO++####  --....    $$$$$$$$$$$$$$$$$$$$    ....--  OOOOOO##++",
"OOOO++####  --....    $$$$$$$$$$$$$$$$$$$$    ....--  OOOOOO##++",
"OOOOOO####++  ....%%..                    ..%%....  OOOO++######",
"OOOOOO####++  ....%%..                    ..%%....  OOOO++######",
"ooooOOOOOOOOOO    ..%%%%%%%%%%%%%%%%%%%%%%%%..    OOOOOOOO######",
"ooooOOOOOOOOOO    ..%%%%%%%%%%%%%%%%%%%%%%%%..    OOOOOOOO######",
"ooooooOO++OOOOOO  ..%%%%%%%%%%%%%%%%%%%%%%%%..  OOOOOOOOOOOO++oo",
"ooooooOO++OOOOOO  ..%%%%%%%%%%%%%%%%%%%%%%%%..  OOOOOOOOOOOO++oo",
"ooOOOO########OOOO  ..%%%%%%%%%%%%%%%%%%%%..  OOOOOOOOOOOOOOOOOO",
"ooOOOO########OOOO  ..%%%%%%%%%%%%%%%%%%%%..  OOOOOOOOOOOOOOOOOO",
"OOOO++######++++OOXX      ..%%%%%%%%..      XX++OOOOOOOOOOOOOOOO",
"OOOO++######++++OOXX      ..%%%%%%%%..      XX++OOOOOOOOOOOOOOOO",
"OOOOOOOOOOOOOOOO  XXXX====............====XXXX  OOOOOOOO######OO",
"OOOOOOOOOOOOOOOO  XXXX====............====XXXX  OOOOOOOO######OO",
"++OOOOOOoooooo    XXXX====............====XXXX    OO##########++",
"++OOOOOOoooooo    XXXX====............====XXXX    OO##########++",
"OOOOOOoooooo  XXXXXX&&====  ========  ====&&XXXXXX  ++####++++OO",
"OOOOOOoooooo  XXXXXX&&====  ========  ====&&XXXXXX  ++####++++OO",
"++OOOOOOOO@@::----  $$    ============    $$  ----::@@OOOOOO####",
"++OOOOOOOO@@::----  $$    ============    $$  ----::@@OOOOOO####",
"####OOOOOO@@::::::  &&....%%========%%....&&  ::::::@@OOOO######",
"####OOOOOO@@::::::  &&....%%========%%....&&  ::::::@@OOOO######",
"####++oooo@@::::::  &&....%%========%%....&&  ::::::@@++OO++++##",
"####++oooo@@::::::  &&....%%========%%....&&  ::::::@@++OO++++##",
"++ooooooooOO@@@@@@XX;;....==%%%%%%%%==....;;XX@@@@@@OOOOOOOO++++",
"++ooooooooOO@@@@@@XX;;....==%%%%%%%%==....;;XX@@@@@@OOOOOOOO++++",
"OOooooooooooOOoooo  XX;;;;  ========  ;;;;XX  ooooooOOOOOOOOOOOO",
"OOooooooooooOOoooo  XX;;;;  ========  ;;;;XX  ooooooOOOOOOOOOOOO",
"OOOOooooooOOoooooo  $$$$$$XXXXXXXXXXXX$$$$$$  ooooooooooooOOOOOO",
"OOOOooooooOOoooooo  $$$$$$XXXXXXXXXXXX$$$$$$  ooooooooooooOOOOOO",
"OOOOOO++++++OOoooo  $$$$$$XXXXXXXXXXXX$$$$$$  ooooooooOOOOOOOOOO",
"OOOOOO++++++OOoooo  $$$$$$XXXXXXXXXXXX$$$$$$  ooooooooOOOOOOOOOO",
"OOOO++####++++OOOOOO      OO##++OOOO++      ++OOOOOOOOOOOOOO##++",
"OOOO++####++++OOOOOO      OO##++OOOO++      ++OOOOOOOOOOOOOO##++",
"OOOOOO####++OOOOOOOOOOOO++######OOOOOO####++OOOOOOOOOOOO++######",
"OOOOOO####++OOOOOOOOOOOO++######OOOOOO####++OOOOOOOOOOOO++######"
};
