/* XPM */
static char *result[] = {
/* columns rows colors chars-per-pixel */
"64 64 19 1 ",
"  c black",
". c #503018",
"X c #384040",
"o c #424A4A",
"O c #4A5252",
"+ c #4A5A5A",
"@ c #784040",
"# c #526363",
"$ c #C03838",
"% c #885028",
"& c #882840",
"* c #F06848",
"= c #C89800",
"- c #D8A078",
"; c #406888",
": c #9890B0",
"> c #F8D0B8",
", c #B8B0D0",
"< c #E8E8F8",
/* pixels */
"ooooOOOOOOOOOOOOOOOOOOOOOO######ooooOOOOOOOOOOOOOOOOOOOOOO######",
"ooooOOOOOOOOOOOOOOOOOOOOOO######ooooOOOOOOOOOOOOOOOOOOOOOO######",
"ooooooOO++OOOOOOOOOOOOOOOOOO++ooooooooOO++OOOOOOOOOOOOOOOOOO++oo",
"ooooooOO++OOOOOOOOOOOOOOOOOO++ooooooooOO++OOOOOOOOOOOOOOOOOO++oo",
"ooOOOO########OOOOOOOOOOOOOOOOOOooOOOO########OOOOOOOOOOOOOOOOOO",
"ooOOOO########OOOOOOOOOOOOOOOOOOooOOOO########OOOOOOOOOOOOOOOOOO",
"OOOO++######++++OOOOOOOOOOOOOOOOOOOO++######++++OOOOOOOOOOOOOOOO",
"OOOO++######++++OOOOOOOOOOOOOOOOOOOO++######++++OOOOOOOOOOOOOOOO",
"OOOOOOOOOOOOOOOOOOOOOOOO&&&&&&&&&&&&&&OOOOOOOOOOOOOOOOOO######OO",
"OOOOOOOOOOOOOOOOOOOOOOOO&&&&&&&&&&&&&&OOOOOOOOOOOOOOOOOO######OO",
"++OOOOOOooooooooOOOO  &&************$$&&ooooooooOOOO##########++",
"++OOOOOOooooooooOOOO  &&************$$&&ooooooooOOOO##########++",
"OOOOOOoooooooooooo  $$****************$$&&ooooooooOO++####++++OO",
"OOOOOOoooooooooooo  $$****************$$&&ooooooooOO++####++++OO",
"++OOOOOOOOooooOOOO&&********************&&ooooOOOOOOOOOOOOOO####",
"++OOOOOOOOooooOOOO&&********************&&ooooOOOOOOOOOOOOOO####",
"####OOOOOOOOOOOO&&$$********************,,XXOOOO++####OOOO######",
"####OOOOOOOOOOOO&&$$********************,,XXOOOO++####OOOO######",
"####++ooooooOOOO  $$******************<<$$;;XXOOOO####++OO++++##",
"####++ooooooOOOO  $$******************<<$$;;XXOOOO####++OO++++##",
"++ooooooooOOOOOO  $$$$**************$$<<$$<<<<  OOOOOOOOOOOO++++",
"++ooooooooOOOOOO  $$$$**************$$<<$$<<<<  OOOOOOOOOOOO++++",
"OOooooooooooOOoo  $$$$$$$$$$$$$$$$$$$$$$,,<<<<  ooooOOOOOOOOOOOO",
"OOooooooooooOOoo  $$$$$$$$$$$$$$$$$$$$$$,,<<<<  ooooOOOOOOOOOOOO",
"OOOOooooooOOoooo  $$$$$$$$$$$$$$$$$$$$$$&&<<,,  ooooooooooOOOOOO",
"OOOOooooooOOoooo  $$$$$$$$$$$$$$$$$$$$$$&&<<,,  ooooooooooOOOOOO",
"OOOOOO++++++OOoo..  $$$$$$$$$$$$$$$$$$&&,,,,  ooooooooOOOOOOOOOO",
"OOOOOO++++++OOoo..  $$$$$$$$$$$$$$$$$$&&,,,,  ooooooooOOOOOOOOOO",
"OOOO++####++++OO..%%                  XX    ++OOOOOOOOOOOOOO##++",
"OOOO++####++++OO..%%                  XX    ++OOOOOOOOOOOOOO##++",
"OOOOOO####++OOOOOO..%%%%%%%%..%%..@@::  @@@@OOOOOOOOOOOO++######",
"OOOOOO####++OOOOOO..%%%%%%%%..%%..@@::  @@@@OOOOOOOOOOOO++######",
"ooooOOOOOOOOOOOOOO  ..%%%%..----..--<<  --@@OOOOOOOOOOOOOO######",
"ooooOOOOOOOOOOOOOO  ..%%%%..----..--<<  --@@OOOOOOOOOOOOOO######",
"ooooooOO++OOOOOOOOOO..%%%%..------>>>>>>>>--OOOOOOOOOOOOOOOO++oo",
"ooooooOO++OOOOOOOOOO..%%%%..------>>>>>>>>--OOOOOOOOOOOOOOOO++oo",
"ooOOOO########OOOOOOOO    %%..------>>>>@@####OOOOOOOOOOOOOOOOOO",
"ooOOOO########OOOOOOOO    %%..------>>>>@@####OOOOOOOOOOOOOOOOOO",
"OOOO++######++++OOOOOO..==......--@@@@@@####++++OOOOOOOOOOOOOOOO",
"OOOO++######++++OOOOOO..==......--@@@@@@####++++OOOOOOOOOOOOOOOO",
"OOOOOOOOOOOOOOOOOOOO..======%%==,,,,&&OOOOOOOOOOOOOOOOOO######OO",
"OOOOOOOOOOOOOOOOOOOO..======%%==,,,,&&OOOOOOOOOOOOOOOOOO######OO",
"++OOOOOOooooooooOOOO  %%====  XXXX  $$XXooooooooOOOO##########++",
"++OOOOOOooooooooOOOO  %%====  XXXX  $$XXooooooooOOOO##########++",
"OOOOOOooooooooooooOO  ==%%%%  XX>>>>  XXooooooooooOO++####++++OO",
"OOOOOOooooooooooooOO  ==%%%%  XX>>>>  XXooooooooooOO++####++++OO",
"++OOOOOOOOooooOOOOOO  %%==  XXXX----  XXOOooooOOOOOOOOOOOOOO####",
"++OOOOOOOOooooOOOOOO  %%==  XXXX----  XXOOooooOOOOOOOOOOOOOO####",
"####OOOOOOOOOOOO++####      ;;;;    XXOOOOOOOOOO++####OOOO######",
"####OOOOOOOOOOOO++####      ;;;;    XXOOOOOOOOOO++####OOOO######",
"####++ooooooOOOOOO####++OO  &&$$$$$$  ooooooOOOOOO####++OO++++##",
"####++ooooooOOOOOO####++OO  &&$$$$$$  ooooooOOOOOO####++OO++++##",
"++ooooooooOOOOOOOOOOOOOOOOOO        ooooooOOOOOOOOOOOOOOOOOO++++",
"++ooooooooOOOOOOOOOOOOOOOOOO        ooooooOOOOOOOOOOOOOOOOOO++++",
"OOooooooooooOOooooooOOOOOOOOOOOOOOooooooooooOOooooooOOOOOOOOOOOO",
"OOooooooooooOOooooooOOOOOOOOOOOOOOooooooooooOOooooooOOOOOOOOOOOO",
"OOOOooooooOOooooooooooooooOOOOOOOOOOooooooOOooooooooooooooOOOOOO",
"OOOOooooooOOooooooooooooooOOOOOOOOOOooooooOOooooooooooooooOOOOOO",
"OOOOOO++++++OOooooooooOOOOOOOOOOOOOOOO++++++OOooooooooOOOOOOOOOO",
"OOOOOO++++++OOooooooooOOOOOOOOOOOOOOOO++++++OOooooooooOOOOOOOOOO",
"OOOO++####++++OOOOOOOOOOOOOO##++OOOO++####++++OOOOOOOOOOOOOO##++",
"OOOO++####++++OOOOOOOOOOOOOO##++OOOO++####++++OOOOOOOOOOOOOO##++",
"OOOOOO####++OOOOOOOOOOOO++######OOOOOO####++OOOOOOOOOOOO++######",
"OOOOOO####++OOOOOOOOOOOO++######OOOOOO####++OOOOOOOOOOOO++######"
};
