/* XPM */
static char *result[] = {
/* columns rows colors chars-per-pixel */
"64 64 19 1 ",
"  c black",
". c #503018",
"X c #384040",
"o c #424A4A",
"O c #4A5252",
"+ c #4A5A5A",
"@ c #784040",
"# c #526363",
"$ c #C03838",
"% c #885028",
"& c #882840",
"* c #F06848",
"= c #C89800",
"- c #D8A078",
"; c #406888",
": c #9890B0",
"> c #F8D0B8",
", c #B8B0D0",
"< c #E8E8F8",
/* pixels */
"ooooOOOOOOOOOOOOOOOO&&&&&&&&&&&&&&&&&&&&OOOOOOOOOOOOOOOOOO######",
"ooooOOOOOOOOOOOOOOOO&&&&&&&&&&&&&&&&&&&&OOOOOOOOOOOOOOOOOO######",
"ooooooOO++OOOOOO  &&******************$$&&&&OOOOOOOOOOOOOOOO++oo",
"ooooooOO++OOOOOO  &&******************$$&&&&OOOOOOOOOOOOOOOO++oo",
"ooOOOO########OO  &&******************$$&&&&##OOOOOOOOOOOOOOOOOO",
"ooOOOO########OO  &&******************$$&&&&##OOOOOOOOOOOOOOOOOO",
"OOOO++######    $$**********************$$$$&&++OOOOOOOOOOOOOOOO",
"OOOO++######    $$**********************$$$$&&++OOOOOOOOOOOOOOOO",
"OOOOOOOOOOOO&&&&****************************&&OOOOOOOOOO######OO",
"OOOOOOOOOOOO&&&&****************************&&OOOOOOOOOO######OO",
"++OOOOOOoooo&&&&****************************&&ooOOOO##########++",
"++OOOOOOoooo&&&&****************************&&ooOOOO##########++",
"OOOOOOoooo&&$$$$****************************,,XXooOO++####++++OO",
"OOOOOOoooo&&$$$$****************************,,XXooOO++####++++OO",
"++OOOOOOOO  $$$$************************<<<<$$;;XXXXOOOOOOOO####",
"++OOOOOOOO  $$$$************************<<<<$$;;XXXXOOOOOOOO####",
"####OOOOOO  $$$$$$********************$$<<<<$$<<<<<<  OOOO######",
"####OOOOOO  $$$$$$********************$$<<<<$$<<<<<<  OOOO######",
"####++oooo  $$$$$$********************$$<<<<$$<<<<<<  ++OO++++##",
"####++oooo  $$$$$$********************$$<<<<$$<<<<<<  ++OO++++##",
"++oooooooo  $$$$$$$$$$$$$$$$$$$$$$$$$$$$$$$$,,<<<<<<  OOOOOO++++",
"++oooooooo  $$$$$$$$$$$$$$$$$$$$$$$$$$$$$$$$,,<<<<<<  OOOOOO++++",
"OOoooooooo  $$$$$$$$$$$$$$$$$$$$$$$$$$$$$$$$&&<<,,,,  OOOOOOOOOO",
"OOoooooooo  $$$$$$$$$$$$$$$$$$$$$$$$$$$$$$$$&&<<,,,,  OOOOOOOOOO",
"OOOOoooooo  $$$$$$$$$$$$$$$$$$$$$$$$$$$$$$$$&&<<,,,,  ooooOOOOOO",
"OOOOoooooo  $$$$$$$$$$$$$$$$$$$$$$$$$$$$$$$$&&<<,,,,  ooooOOOOOO",
"OOOOOO++++..    $$$$$$$$$$$$$$$$$$$$$$$$&&&&,,,,    ooOOOOOOOOOO",
"OOOOOO++++..    $$$$$$$$$$$$$$$$$$$$$$$$&&&&,,,,    ooOOOOOOOOOO",
"OOOO++####..%%%%                        XXXX    OOOOOOOOOOOO##++",
"OOOO++####..%%%%                        XXXX    OOOOOOOOOOOO##++",
"OOOOOO####++....%%%%%%%%%%....%%..@@@@::    @@@@OOOOOOOO++######",
"OOOOOO####++....%%%%%%%%%%....%%..@@@@::    @@@@OOOOOOOO++######",
"ooooOOOOOOOO....%%%%%%%%%%....%%..@@@@::    @@@@OOOOOOOOOO######",
"ooooOOOOOOOO....%%%%%%%%%%....%%..@@@@::    @@@@OOOOOOOOOO######",
"ooooooOO++OO    ..%%%%%%..------..----<<    --@@OOOOOOOOOOOO++oo",
"ooooooOO++OO    ..%%%%%%..------..----<<    --@@OOOOOOOOOOOO++oo",
"ooOOOO########OO..%%%%%%..-------->>>>>>>>>>>>--OOOOOOOOOOOOOOOO",
"ooOOOO########OO..%%%%%%..-------->>>>>>>>>>>>--OOOOOOOOOOOOOOOO",
"OOOO++######++++OO      %%....-------->>>>>>@@++OOOOOOOOOOOOOOOO",
"OOOO++######++++OO      %%....-------->>>>>>@@++OOOOOOOOOOOOOOOO",
"OOOOOOOOOOOOOOOOOO      %%....-------->>>>>>@@OOOOOOOOOO######OO",
"OOOOOOOOOOOOOOOOOO      %%....-------->>>>>>@@OOOOOOOOOO######OO",
"++OOOOOOooooooooOO..====........--@@@@@@@@@@ooooOOOO##########++",
"++OOOOOOooooooooOO..====........--@@@@@@@@@@ooooOOOO##########++",
"OOOOOOoooooooooo..========%%%%==,,,,,,&&ooooooooooOO++####++++OO",
"OOOOOOoooooooooo..========%%%%==,,,,,,&&ooooooooooOO++####++++OO",
"++OOOOOOOOooooOO..========%%%%==,,,,,,&&OOooooOOOOOOOOOOOOOO####",
"++OOOOOOOOooooOO..========%%%%==,,,,,,&&OOooooOOOOOOOOOOOOOO####",
"####OOOOOOOOOOOO  %%======    XXXX    $$OOOOOOOO++####OOOO######",
"####OOOOOOOOOOOO  %%======    XXXX    $$OOOOOOOO++####OOOO######",
"####++ooooooOOOO  ==%%%%%%    XX>>>>>>  ooooOOOOOO####++OO++++##",
"####++ooooooOOOO  ==%%%%%%    XX>>>>>>  ooooOOOOOO####++OO++++##",
"++ooooooooOOOOOO  %%====  XXXXXX------  ooOOOOOOOOOOOOOOOOOO++++",
"++ooooooooOOOOOO  %%====  XXXXXX------  ooOOOOOOOOOOOOOOOOOO++++",
"OOooooooooooOOoo  %%====  XXXXXX------  ooooOOooooooOOOOOOOOOOOO",
"OOooooooooooOOoo  %%====  XXXXXX------  ooooOOooooooOOOOOOOOOOOO",
"OOOOooooooOOoooooo        ;;;;;;      XXooOOooooooooooooooOOOOOO",
"OOOOooooooOOoooooo        ;;;;;;      XXooOOooooooooooooooOOOOOO",
"OOOOOO++++++OOooooooooOO  &&&&$$$$$$$$  ++++OOooooooooOOOOOOOOOO",
"OOOOOO++++++OOooooooooOO  &&&&$$$$$$$$  ++++OOooooooooOOOOOOOOOO",
"OOOO++####++++OOOOOOOOOO  &&&&$$$$$$$$  ##++++OOOOOOOOOOOOOO##++",
"OOOO++####++++OOOOOOOOOO  &&&&$$$$$$$$  ##++++OOOOOOOOOOOOOO##++",
"OOOOOO####++OOOOOOOOOOOO++            ####++OOOOOOOOOOOO++######",
"OOOOOO####++OOOOOOOOOOOO++            ####++OOOOOOOOOOOO++######"
};
