/* XPM */
static char *result[] = {
/* columns rows colors chars-per-pixel */
"64 64 18 1 ",
"  c black",
". c #503018",
"X c #384040",
"o c #424A4A",
"O c #4A5252",
"+ c #4A5A5A",
"@ c #784040",
"# c #526363",
"$ c #C03838",
"% c #885028",
"& c #882840",
"* c #F06848",
"= c #C89800",
"- c #D8A078",
"; c #406888",
": c #F8D0B8",
"> c #B8B0D0",
", c #E8E8F8",
/* pixels */
"ooooOOOOOOOOOOOOOOOOOO&&&&&&&&&&&&&&&&&&&&OOOOOOOOOOOOOOOO######",
"ooooOOOOOOOOOOOOOOOOOO&&&&&&&&&&&&&&&&&&&&OOOOOOOOOOOOOOOO######",
"ooooooOO++OOOOOOOO  &&********************&&  OOOOOOOOOOOOOO++oo",
"ooooooOO++OOOOOOOO  &&********************&&  OOOOOOOOOOOOOO++oo",
"ooOOOO########OOOO  &&********************&&  OOOOOOOOOOOOOOOOOO",
"ooOOOO########OOOO  &&********************&&  OOOOOOOOOOOOOOOOOO",
"OOOO++######++    $$************************$$    OOOOOOOOOOOOOO",
"OOOO++######++    $$************************$$    OOOOOOOOOOOOOO",
"OOOOOOOOOOOOOO&&&&****************************&&&&OOOOOO######OO",
"OOOOOOOOOOOOOO&&&&****************************&&&&OOOOOO######OO",
"++OOOOOOoooo  $$$$****************************$$$$  ##########++",
"++OOOOOOoooo  $$$$****************************$$$$  ##########++",
"OOOOOOoooooo  $$$$****************************$$$$  ++####++++OO",
"OOOOOOoooooo  $$$$****************************$$$$  ++####++++OO",
"++OOOOOOOOoo  $$$$$$************************$$$$$$  OOOOOOOO####",
"++OOOOOOOOoo  $$$$$$************************$$$$$$  OOOOOOOO####",
"####OOOOOOOO  $$$$$$$$$$$$************$$$$$$$$$$$$  ##OOOO######",
"####OOOOOOOO  $$$$$$$$$$$$************$$$$$$$$$$$$  ##OOOO######",
"####++oooooo&&&&&&$$$$$$$$$$,,,,,,,,$$$$$$$$$$&&&&&&##++OO++++##",
"####++oooooo&&&&&&$$$$$$$$$$,,,,,,,,$$$$$$$$$$&&&&&&##++OO++++##",
"++ooooooooOO&&&&&&$$$$$$$$$$,,,,,,,,$$$$$$$$$$&&&&&&OOOOOOOO++++",
"++ooooooooOO&&&&&&$$$$$$$$$$,,,,,,,,$$$$$$$$$$&&&&&&OOOOOOOO++++",
"OOoooooooo....%%%%>>$$$$$$>>$$$$$$$$>>$$$$$$>>%%%%....OOOOOOOOOO",
"OOoooooooo....%%%%>>$$$$$$>>$$$$$$$$>>$$$$$$>>%%%%....OOOOOOOOOO",
"OOOOoooooo@@--    &&>>>>>>,,,,,,,,,,,,>>>>>>&&    --@@ooooOOOOOO",
"OOOOoooooo@@--    &&>>>>>>,,,,,,,,,,,,>>>>>>&&    --@@ooooOOOOOO",
"OOOOOO++++@@--    ..  >>>>>>>>>>>>>>>>>>>>  ..    --@@OOOOOOOOOO",
"OOOOOO++++@@--    ..  >>>>>>>>>>>>>>>>>>>>  ..    --@@OOOOOOOOOO",
"OOOO++####@@--    ..  >>>>>>>>>>>>>>>>>>>>  ..    --@@OOOOOO##++",
"OOOO++####@@--    ..  >>>>>>>>>>>>>>>>>>>>  ..    --@@OOOOOO##++",
"OOOOOO####++  ....%%..XXXX            XXXX..%%....  OOOO++######",
"OOOOOO####++  ....%%..XXXX            XXXX..%%....  OOOO++######",
"ooooOOOOOOOOOO    %%-->>>>  @@@@@@@@  >>>>--%%    OOOOOOOO######",
"ooooOOOOOOOOOO    %%-->>>>  @@@@@@@@  >>>>--%%    OOOOOOOO######",
"ooooooOO++OOOOOO  %%-->>>>  @@@@@@@@  >>>>--%%  OOOOOOOOOOOO++oo",
"ooooooOO++OOOOOO  %%-->>>>  @@@@@@@@  >>>>--%%  OOOOOOOOOOOO++oo",
"ooOOOO########OOOO@@--::::::::::::::::::::--@@OOOOOOOOOOOOOOOOOO",
"ooOOOO########OOOO@@--::::::::::::::::::::--@@OOOOOOOOOOOOOOOOOO",
"OOOO++######++++OO  @@----::::----::::----@@  ++OOOOOOOOOOOOOOOO",
"OOOO++######++++OO  @@----::::----::::----@@  ++OOOOOOOOOOOOOOOO",
"OOOOOOOOOOOOOOOO  XX==    @@--------@@    ==XX  OOOOOOOO######OO",
"OOOOOOOOOOOOOOOO  XX==    @@--------@@    ==XX  OOOOOOOO######OO",
"++OOOOOOoooooo    XX==    @@--------@@    ==XX    OO##########++",
"++OOOOOOoooooo    XX==    @@--------@@    ==XX    OO##########++",
"OOOOOOoooooo@@XXXXXX==$$$$>>@@@@@@@@>>$$$$==XXXXXX@@++####++++OO",
"OOOOOOoooooo@@XXXXXX==$$$$>>@@@@@@@@>>$$$$==XXXXXX@@++####++++OO",
"++OOOOOOOO@@::----XX%%$$$$$$>>XXXX>>$$$$$$%%XX----::@@OOOOOO####",
"++OOOOOOOO@@::----XX%%$$$$$$>>XXXX>>$$$$$$%%XX----::@@OOOOOO####",
"####OOOOOO@@::::::    @@@@$$>>XXXX>>$$@@@@    ::::::@@OOOO######",
"####OOOOOO@@::::::    @@@@$$>>XXXX>>$$@@@@    ::::::@@OOOO######",
"####++oooo@@::::::    @@@@$$>>XXXX>>$$@@@@    ::::::@@++OO++++##",
"####++oooo@@::::::    @@@@$$>>XXXX>>$$@@@@    ::::::@@++OO++++##",
"++ooooooooOO@@@@@@  ;;                    ;;  @@@@@@OOOOOOOO++++",
"++ooooooooOO@@@@@@  ;;                    ;;  @@@@@@OOOOOOOO++++",
"OOooooooooooOOoooo  XXXXXX;;;;XXXX;;;;XXXXXX  ooooooOOOOOOOOOOOO",
"OOooooooooooOOoooo  XXXXXX;;;;XXXX;;;;XXXXXX  ooooooOOOOOOOOOOOO",
"OOOOooooooOOoooooo  $$$$$$            $$$$$$  ooooooooooooOOOOOO",
"OOOOooooooOOoooooo  $$$$$$            $$$$$$  ooooooooooooOOOOOO",
"OOOOOO++++++OOoooo  $$$$$$            $$$$$$  ooooooooOOOOOOOOOO",
"OOOOOO++++++OOoooo  $$$$$$            $$$$$$  ooooooooOOOOOOOOOO",
"OOOO++####++++OOOOOO      OO##++OOOO++      ++OOOOOOOOOOOOOO##++",
"OOOO++####++++OOOOOO      OO##++OOOO++      ++OOOOOOOOOOOOOO##++",
"OOOOOO####++OOOOOOOOOOOO++######OOOOOO####++OOOOOOOOOOOO++######",
"OOOOOO####++OOOOOOOOOOOO++######OOOOOO####++OOOOOOOOOOOO++######"
};
