/* XPM */
static char *result[] = {
/* columns rows colors chars-per-pixel */
"64 64 18 1 ",
"  c black",
". c #503018",
"X c #384040",
"o c #424A4A",
"O c #4A5252",
"+ c #4A5A5A",
"@ c #784040",
"# c #526363",
"$ c #C03838",
"% c #885028",
"& c #882840",
"* c #F06848",
"= c #C89800",
"- c #D8A078",
"; c #406888",
": c #F8D0B8",
"> c #B8B0D0",
", c #E8E8F8",
/* pixels */
"ooooOOOOOOOOOOOOOOOOOOOOOO######ooooOOOOOOOOOOOOOOOOOOOOOO######",
"ooooOOOOOOOOOOOOOOOOOOOOOO######ooooOOOOOOOOOOOOOOOOOOOOOO######",
"ooooooOO++OOOOOOOOOOOOOOOOOO++ooooooooOO++OOOOOOOOOOOOOOOOOO++oo",
"ooooooOO++OOOOOOOOOOOOOOOOOO++ooooooooOO++OOOOOOOOOOOOOOOOOO++oo",
"ooOOOO########OOOOOOOOOOOOOOOOOOooOOOO########OOOOOOOOOOOOOOOOOO",
"ooOOOO########OOOOOOOOOOOOOOOOOOooOOOO########OOOOOOOOOOOOOOOOOO",
"OOOO++######++++OOOOOOOOOOOOOOOOOOOO++######++++OOOOOOOOOOOOOOOO",
"OOOO++######++++OOOOOOOOOOOOOOOOOOOO++######++++OOOOOOOOOOOOOOOO",
"OOOOOOOOOOOOOOOOOOOOOOOO&&&&&&&&&&&&&&OOOOOOOOOOOOOOOOOO######OO",
"OOOOOOOOOOOOOOOOOOOOOOOO&&&&&&&&&&&&&&OOOOOOOOOOOOOOOOOO######OO",
"++OOOOOOooooooooOOOO  &&**************&&  ooooooOOOO##########++",
"++OOOOOOooooooooOOOO  &&**************&&  ooooooOOOO##########++",
"OOOOOOoooooooooooo  $$******************$$  ooooooOO++####++++OO",
"OOOOOOoooooooooooo  $$******************$$  ooooooOO++####++++OO",
"++OOOOOOOOooooOOOO&&**********************&&ooOOOOOOOOOOOOOO####",
"++OOOOOOOOooooOOOO&&**********************&&ooOOOOOOOOOOOOOO####",
"####OOOOOOOOOOOO  $$**********************$$  OO++####OOOO######",
"####OOOOOOOOOOOO  $$**********************$$  OO++####OOOO######",
"####++ooooooOOOO  $$$$******************$$$$  OOOO####++OO++++##",
"####++ooooooOOOO  $$$$******************$$$$  OOOO####++OO++++##",
"++ooooooooOOOOOO  $$$$$$$$**********$$$$$$$$  OOOOOOOOOOOOOO++++",
"++ooooooooOOOOOO  $$$$$$$$**********$$$$$$$$  OOOOOOOOOOOOOO++++",
"OOooooooooooOOoo&&&&$$$$$$$$,,,,,,$$$$$$$$&&&&ooooooOOOOOOOOOOOO",
"OOooooooooooOOoo&&&&$$$$$$$$,,,,,,$$$$$$$$&&&&ooooooOOOOOOOOOOOO",
"OOOOooooooOOoo....%%>>$$$$>>$$$$$$>>$$$$>>%%....ooooooooooOOOOOO",
"OOOOooooooOOoo....%%>>$$$$>>$$$$$$>>$$$$>>%%....ooooooooooOOOOOO",
"OOOOOO++++++OO@@--  &&>>>>,,,,,,,,,,>>>>&&  --@@ooooooOOOOOOOOOO",
"OOOOOO++++++OO@@--  &&>>>>,,,,,,,,,,>>>>&&  --@@ooooooOOOOOOOOOO",
"OOOO++####++++@@--  ..  >>>>>>>>>>>>>>  ..  --@@OOOOOOOOOOOO##++",
"OOOO++####++++@@--  ..  >>>>>>>>>>>>>>  ..  --@@OOOOOOOOOOOO##++",
"OOOOOO####++OOOO  ..%%..XX          XX..%%..  OOOOOOOOOO++######",
"OOOOOO####++OOOO  ..%%..XX          XX..%%..  OOOOOOOOOO++######",
"ooooOOOOOOOOOOOOOO  %%-->>  @@@@@@  >>--%%  OOOOOOOOOOOOOO######",
"ooooOOOOOOOOOOOOOO  %%-->>  @@@@@@  >>--%%  OOOOOOOOOOOOOO######",
"ooooooOO++OOOOOOOOOO@@--::::::::::::::--@@OOOOOOOOOOOOOOOOOO++oo",
"ooooooOO++OOOOOOOOOO@@--::::::::::::::--@@OOOOOOOOOOOOOOOOOO++oo",
"ooOOOO########OOOOOO  @@--::::--::::--@@  ####OOOOOOOOOOOOOOOOOO",
"ooOOOO########OOOOOO  @@--::::--::::--@@  ####OOOOOOOOOOOOOOOOOO",
"OOOO++######++++OO  XX==  @@------@@  ==XX  ++++OOOOOOOOOOOOOOOO",
"OOOO++######++++OO  XX==  @@------@@  ==XX  ++++OOOOOOOOOOOOOOOO",
"OOOOOOOOOOOOOOOO@@XXXX==$$>>@@@@@@>>$$==XXXX@@OOOOOOOOOO######OO",
"OOOOOOOOOOOOOOOO@@XXXX==$$>>@@@@@@>>$$==XXXX@@OOOOOOOOOO######OO",
"++OOOOOOoooooo@@::--XX%%$$$$>>XX>>$$$$%%XX--::@@OOOO##########++",
"++OOOOOOoooooo@@::--XX%%$$$$>>XX>>$$$$%%XX--::@@OOOO##########++",
"OOOOOOoooooooo@@::::    @@$$>>XX>>$$@@    ::::@@ooOO++####++++OO",
"OOOOOOoooooooo@@::::    @@$$>>XX>>$$@@    ::::@@ooOO++####++++OO",
"++OOOOOOOOooooOO@@@@  ;;              ;;  @@@@OOOOOOOOOOOOOO####",
"++OOOOOOOOooooOO@@@@  ;;              ;;  @@@@OOOOOOOOOOOOOO####",
"####OOOOOOOOOOOO++##  XXXX;;;;XX;;;;XXXX  OOOOOO++####OOOO######",
"####OOOOOOOOOOOO++##  XXXX;;;;XX;;;;XXXX  OOOOOO++####OOOO######",
"####++ooooooOOOOOO##  $$$$          $$$$  ooOOOOOO####++OO++++##",
"####++ooooooOOOOOO##  $$$$          $$$$  ooOOOOOO####++OO++++##",
"++ooooooooOOOOOOOOOOOO    OO++++++oo    ooOOOOOOOOOOOOOOOOOO++++",
"++ooooooooOOOOOOOOOOOO    OO++++++oo    ooOOOOOOOOOOOOOOOOOO++++",
"OOooooooooooOOooooooOOOOOOOOOOOOOOooooooooooOOooooooOOOOOOOOOOOO",
"OOooooooooooOOooooooOOOOOOOOOOOOOOooooooooooOOooooooOOOOOOOOOOOO",
"OOOOooooooOOooooooooooooooOOOOOOOOOOooooooOOooooooooooooooOOOOOO",
"OOOOooooooOOooooooooooooooOOOOOOOOOOooooooOOooooooooooooooOOOOOO",
"OOOOOO++++++OOooooooooOOOOOOOOOOOOOOOO++++++OOooooooooOOOOOOOOOO",
"OOOOOO++++++OOooooooooOOOOOOOOOOOOOOOO++++++OOooooooooOOOOOOOOOO",
"OOOO++####++++OOOOOOOOOOOOOO##++OOOO++####++++OOOOOOOOOOOOOO##++",
"OOOO++####++++OOOOOOOOOOOOOO##++OOOO++####++++OOOOOOOOOOOOOO##++",
"OOOOOO####++OOOOOOOOOOOO++######OOOOOO####++OOOOOOOOOOOO++######",
"OOOOOO####++OOOOOOOOOOOO++######OOOOOO####++OOOOOOOOOOOO++######"
};
