/* XPM */
static char *result[] = {
/* columns rows colors chars-per-pixel */
"64 64 19 1 ",
"  c black",
". c #503018",
"X c #384040",
"o c #424A4A",
"O c #4A5252",
"+ c #4A5A5A",
"@ c #784040",
"# c #526363",
"$ c #C03838",
"% c #885028",
"& c #882840",
"* c #F06848",
"= c #C89800",
"- c #D8A078",
"; c #406888",
": c #9890B0",
"> c #F8D0B8",
", c #B8B0D0",
"< c #E8E8F8",
/* pixels */
"ooooOOOOOOOOOOOOOOOOOOOO&&&&&&&&&&&&&&&&&&&&OOOOOOOOOOOOOO######",
"ooooOOOOOOOOOOOOOOOOOOOO&&&&&&&&&&&&&&&&&&&&OOOOOOOOOOOOOO######",
"ooooooOO++OOOOOOOOOO&&&&$$******************&&  OOOOOOOOOOOO++oo",
"ooooooOO++OOOOOOOOOO&&&&$$******************&&  OOOOOOOOOOOO++oo",
"ooOOOO########OOOOOO&&&&$$******************&&  OOOOOOOOOOOOOOOO",
"ooOOOO########OOOOOO&&&&$$******************&&  OOOOOOOOOOOOOOOO",
"OOOO++######++++OO&&$$$$**********************$$    OOOOOOOOOOOO",
"OOOO++######++++OO&&$$$$**********************$$    OOOOOOOOOOOO",
"OOOOOOOOOOOOOOOOOO&&****************************&&&&OOOO######OO",
"OOOOOOOOOOOOOOOOOO&&****************************&&&&OOOO######OO",
"++OOOOOOooooooooOO&&****************************&&&&##########++",
"++OOOOOOooooooooOO&&****************************&&&&##########++",
"OOOOOOooooooooooXX,,****************************$$$$&&####++++OO",
"OOOOOOooooooooooXX,,****************************$$$$&&####++++OO",
"++OOOOOOOOooXXXX;;$$<<<<************************$$$$  OOOOOO####",
"++OOOOOOOOooXXXX;;$$<<<<************************$$$$  OOOOOO####",
"####OOOOOO  <<<<<<$$<<<<$$********************$$$$$$  OOOO######",
"####OOOOOO  <<<<<<$$<<<<$$********************$$$$$$  OOOO######",
"####++oooo  <<<<<<$$<<<<$$********************$$$$$$  ++OO++++##",
"####++oooo  <<<<<<$$<<<<$$********************$$$$$$  ++OO++++##",
"++oooooooo  <<<<<<,,$$$$$$$$$$$$$$$$$$$$$$$$$$$$$$$$  OOOOOO++++",
"++oooooooo  <<<<<<,,$$$$$$$$$$$$$$$$$$$$$$$$$$$$$$$$  OOOOOO++++",
"OOoooooooo  ,,,,<<&&$$$$$$$$$$$$$$$$$$$$$$$$$$$$$$$$  OOOOOOOOOO",
"OOoooooooo  ,,,,<<&&$$$$$$$$$$$$$$$$$$$$$$$$$$$$$$$$  OOOOOOOOOO",
"OOOOoooooo  ,,,,<<&&$$$$$$$$$$$$$$$$$$$$$$$$$$$$$$$$  ooooOOOOOO",
"OOOOoooooo  ,,,,<<&&$$$$$$$$$$$$$$$$$$$$$$$$$$$$$$$$  ooooOOOOOO",
"OOOOOO++++++    ,,,,&&&&$$$$$$$$$$$$$$$$$$$$$$$$    ..OOOOOOOOOO",
"OOOOOO++++++    ,,,,&&&&$$$$$$$$$$$$$$$$$$$$$$$$    ..OOOOOOOOOO",
"OOOO++####++++OO    XXXX                        %%%%..OOOOOO##++",
"OOOO++####++++OO    XXXX                        %%%%..OOOOOO##++",
"OOOOOO####++OOOO@@@@    ::@@@@..%%....%%%%%%%%%%....OOOO++######",
"OOOOOO####++OOOO@@@@    ::@@@@..%%....%%%%%%%%%%....OOOO++######",
"ooooOOOOOOOOOOOO@@@@    ::@@@@..%%....%%%%%%%%%%....OOOOOO######",
"ooooOOOOOOOOOOOO@@@@    ::@@@@..%%....%%%%%%%%%%....OOOOOO######",
"ooooooOO++OOOOOO@@--    <<----..------..%%%%%%..    OOOOOOOO++oo",
"ooooooOO++OOOOOO@@--    <<----..------..%%%%%%..    OOOOOOOO++oo",
"ooOOOO########OO-->>>>>>>>>>>>--------..%%%%%%..OOOOOOOOOOOOOOOO",
"ooOOOO########OO-->>>>>>>>>>>>--------..%%%%%%..OOOOOOOOOOOOOOOO",
"OOOO++######++++OO@@>>>>>>--------....%%      ++OOOOOOOOOOOOOOOO",
"OOOO++######++++OO@@>>>>>>--------....%%      ++OOOOOOOOOOOOOOOO",
"OOOOOOOOOOOOOOOOOO@@>>>>>>--------....%%      OOOOOOOOOO######OO",
"OOOOOOOOOOOOOOOOOO@@>>>>>>--------....%%      OOOOOOOOOO######OO",
"++OOOOOOooooooooOOOO@@@@@@@@@@--........====..ooOOOO##########++",
"++OOOOOOooooooooOOOO@@@@@@@@@@--........====..ooOOOO##########++",
"OOOOOOooooooooooooOO++##&&,,,,,,==%%%%========..ooOO++####++++OO",
"OOOOOOooooooooooooOO++##&&,,,,,,==%%%%========..ooOO++####++++OO",
"++OOOOOOOOooooOOOOOOOOOO&&,,,,,,==%%%%========..OOOOOOOOOOOO####",
"++OOOOOOOOooooOOOOOOOOOO&&,,,,,,==%%%%========..OOOOOOOOOOOO####",
"####OOOOOOOOOOOO++####OO$$    XXXX    ======%%  ++####OOOO######",
"####OOOOOOOOOOOO++####OO$$    XXXX    ======%%  ++####OOOO######",
"####++ooooooOOOOOO####++  >>>>>>XX    %%%%%%==  OO####++OO++++##",
"####++ooooooOOOOOO####++  >>>>>>XX    %%%%%%==  OO####++OO++++##",
"++ooooooooOOOOOOOOOOOOOO  ------XXXXXX  ====%%  OOOOOOOOOOOO++++",
"++ooooooooOOOOOOOOOOOOOO  ------XXXXXX  ====%%  OOOOOOOOOOOO++++",
"OOooooooooooOOooooooOOOO  ------XXXXXX  ====%%  ooooOOOOOOOOOOOO",
"OOooooooooooOOooooooOOOO  ------XXXXXX  ====%%  ooooOOOOOOOOOOOO",
"OOOOooooooOOooooooooooooXX      ;;;;;;        ooooooooooooOOOOOO",
"OOOOooooooOOooooooooooooXX      ;;;;;;        ooooooooooooOOOOOO",
"OOOOOO++++++OOooooooooOO  $$$$$$$$&&&&  ++++OOooooooooOOOOOOOOOO",
"OOOOOO++++++OOooooooooOO  $$$$$$$$&&&&  ++++OOooooooooOOOOOOOOOO",
"OOOO++####++++OOOOOOOOOO  $$$$$$$$&&&&  ##++++OOOOOOOOOOOOOO##++",
"OOOO++####++++OOOOOOOOOO  $$$$$$$$&&&&  ##++++OOOOOOOOOOOOOO##++",
"OOOOOO####++OOOOOOOOOOOO++            ####++OOOOOOOOOOOO++######",
"OOOOOO####++OOOOOOOOOOOO++            ####++OOOOOOOOOOOO++######"
};
