/* XPM */
static char *result[] = {
/* columns rows colors chars-per-pixel */
"64 64 19 1 ",
"  c black",
". c #503018",
"X c #384040",
"o c #424A4A",
"O c #4A5252",
"+ c #4A5A5A",
"@ c #784040",
"# c #526363",
"$ c #C03838",
"% c #885028",
"& c #882840",
"* c #F06848",
"= c #C89800",
"- c #D8A078",
"; c #406888",
": c #9890B0",
"> c #F8D0B8",
", c #B8B0D0",
"< c #E8E8F8",
/* pixels */
"ooooOOOOOOOOOOOOOOOOOOOOOO######ooooOOOOOOOOOOOOOOOOOOOOOO######",
"ooooOOOOOOOOOOOOOOOOOOOOOO######ooooOOOOOOOOOOOOOOOOOOOOOO######",
"ooooooOO++OOOOOOOOOOOOOOOOOO++ooooooooOO++OOOOOOOOOOOOOOOOOO++oo",
"ooooooOO++OOOOOOOOOOOOOOOOOO++ooooooooOO++OOOOOOOOOOOOOOOOOO++oo",
"ooOOOO########OOOOOOOOOOOOOOOOOOooOOOO########OOOOOOOOOOOOOOOOOO",
"ooOOOO########OOOOOOOOOOOOOOOOOOooOOOO########OOOOOOOOOOOOOOOOOO",
"OOOO++######++++OOOOOOOOOOOOOOOOOOOO++######++++OOOOOOOOOOOOOOOO",
"OOOO++######++++OOOOOOOOOOOOOOOOOOOO++######++++OOOOOOOOOOOOOOOO",
"OOOOOOOOOOOOOOOOOOOOOOOO##&&&&&&&&&&&&&&OOOOOOOOOOOOOOOO######OO",
"OOOOOOOOOOOOOOOOOOOOOOOO##&&&&&&&&&&&&&&OOOOOOOOOOOOOOOO######OO",
"++OOOOOOooooooooOOOO####&&$$************&&  ooooOOOO##########++",
"++OOOOOOooooooooOOOO####&&$$************&&  ooooOOOO##########++",
"OOOOOOooooooooooooOO++&&$$****************$$  ooooOO++####++++OO",
"OOOOOOooooooooooooOO++&&$$****************$$  ooooOO++####++++OO",
"++OOOOOOOOooooOOOOOOOO&&********************&&OOOOOOOOOOOOOO####",
"++OOOOOOOOooooOOOOOOOO&&********************&&OOOOOOOOOOOOOO####",
"####OOOOOOOOOOOO++##XX,,********************$$&&++####OOOO######",
"####OOOOOOOOOOOO++##XX,,********************$$&&++####OOOO######",
"####++ooooooOOOOOOXX;;$$<<******************$$  OO####++OO++++##",
"####++ooooooOOOOOOXX;;$$<<******************$$  OO####++OO++++##",
"++ooooooooOOOOOO  <<<<$$<<$$**************$$$$  OOOOOOOOOOOO++++",
"++ooooooooOOOOOO  <<<<$$<<$$**************$$$$  OOOOOOOOOOOO++++",
"OOooooooooooOOoo  <<<<,,$$$$$$$$$$$$$$$$$$$$$$  ooooOOOOOOOOOOOO",
"OOooooooooooOOoo  <<<<,,$$$$$$$$$$$$$$$$$$$$$$  ooooOOOOOOOOOOOO",
"OOOOooooooOOoooo  ,,<<&&$$$$$$$$$$$$$$$$$$$$$$  ooooooooooOOOOOO",
"OOOOooooooOOoooo  ,,<<&&$$$$$$$$$$$$$$$$$$$$$$  ooooooooooOOOOOO",
"OOOOOO++++++OOoooo  ,,,,&&$$$$$$$$$$$$$$$$$$  ..ooooooOOOOOOOOOO",
"OOOOOO++++++OOoooo  ,,,,&&$$$$$$$$$$$$$$$$$$  ..ooooooOOOOOOOOOO",
"OOOO++####++++OOOOOO    XX                  %%..OOOOOOOOOOOO##++",
"OOOO++####++++OOOOOO    XX                  %%..OOOOOOOOOOOO##++",
"OOOOOO####++OOOOOOOO@@@@  ::@@..%%..%%%%%%%%..OOOOOOOOOO++######",
"OOOOOO####++OOOOOOOO@@@@  ::@@..%%..%%%%%%%%..OOOOOOOOOO++######",
"ooooOOOOOOOOOOOOOOOO@@--  <<--..----..%%%%..  OOOOOOOOOOOO######",
"ooooOOOOOOOOOOOOOOOO@@--  <<--..----..%%%%..  OOOOOOOOOOOO######",
"ooooooOO++OOOOOOOOOO-->>>>>>>>------..%%%%..OOOOOOOOOOOOOOOO++oo",
"ooooooOO++OOOOOOOOOO-->>>>>>>>------..%%%%..OOOOOOOOOOOOOOOO++oo",
"ooOOOO########OOOOOOOO@@>>>>------..%%    ####OOOOOOOOOOOOOOOOOO",
"ooOOOO########OOOOOOOO@@>>>>------..%%    ####OOOOOOOOOOOOOOOOOO",
"OOOO++######++++OOOOOOOO@@@@@@--......==..##++++OOOOOOOOOOOOOOOO",
"OOOO++######++++OOOOOOOO@@@@@@--......==..##++++OOOOOOOOOOOOOOOO",
"OOOOOOOOOOOOOOOOOOOOOOOO##&&,,,,==%%======..OOOOOOOOOOOO######OO",
"OOOOOOOOOOOOOOOOOOOOOOOO##&&,,,,==%%======..OOOOOOOOOOOO######OO",
"++OOOOOOooooooooOOOO####XX$$  XXXX  ====%%  ooooOOOO##########++",
"++OOOOOOooooooooOOOO####XX$$  XXXX  ====%%  ooooOOOO##########++",
"OOOOOOooooooooooooOO++##XX  >>>>XX  %%%%==  ooooooOO++####++++OO",
"OOOOOOooooooooooooOO++##XX  >>>>XX  %%%%==  ooooooOO++####++++OO",
"++OOOOOOOOooooOOOOOOOOOOXX  ----XXXX  ==%%  ooOOOOOOOOOOOOOO####",
"++OOOOOOOOooooOOOOOOOOOOXX  ----XXXX  ==%%  ooOOOOOOOOOOOOOO####",
"####OOOOOOOOOOOO++####OOOOXX    ;;;;      OOOOOO++####OOOO######",
"####OOOOOOOOOOOO++####OOOOXX    ;;;;      OOOOOO++####OOOO######",
"####++ooooooOOOOOO####++OO  $$$$$$&&  ooooooOOOOOO####++OO++++##",
"####++ooooooOOOOOO####++OO  $$$$$$&&  ooooooOOOOOO####++OO++++##",
"++ooooooooOOOOOOOOOOOOOOOOOO        ooooooOOOOOOOOOOOOOOOOOO++++",
"++ooooooooOOOOOOOOOOOOOOOOOO        ooooooOOOOOOOOOOOOOOOOOO++++",
"OOooooooooooOOooooooOOOOOOOOOOOOOOooooooooooOOooooooOOOOOOOOOOOO",
"OOooooooooooOOooooooOOOOOOOOOOOOOOooooooooooOOooooooOOOOOOOOOOOO",
"OOOOooooooOOooooooooooooooOOOOOOOOOOooooooOOooooooooooooooOOOOOO",
"OOOOooooooOOooooooooooooooOOOOOOOOOOooooooOOooooooooooooooOOOOOO",
"OOOOOO++++++OOooooooooOOOOOOOOOOOOOOOO++++++OOooooooooOOOOOOOOOO",
"OOOOOO++++++OOooooooooOOOOOOOOOOOOOOOO++++++OOooooooooOOOOOOOOOO",
"OOOO++####++++OOOOOOOOOOOOOO##++OOOO++####++++OOOOOOOOOOOOOO##++",
"OOOO++####++++OOOOOOOOOOOOOO##++OOOO++####++++OOOOOOOOOOOOOO##++",
"OOOOOO####++OOOOOOOOOOOO++######OOOOOO####++OOOOOOOOOOOO++######",
"OOOOOO####++OOOOOOOOOOOO++######OOOOOO####++OOOOOOOOOOOO++######"
};
