/* XPM */
static char *result[] = {
/* columns rows colors chars-per-pixel */
"64 64 14 1 ",
"  c #40362D",
". c #4A4239",
"X c #424A4A",
"o c #524A42",
"O c #5A524A",
"+ c #4A5252",
"@ c #4A5A5A",
"# c #6B6352",
"$ c #6B6B5A",
"% c #526363",
"& c #7B7363",
"* c #848473",
"= c #948C84",
"- c #A59C8C",
/* pixels */
"XXXX++++++++++++++++++      ................++++++++++++++%%%%%%",
"XXXX++++++++++++++++++      ................++++++++++++++%%%%%%",
"XXXXXX++@@++++++++..  &&======&&&&======&&&&..++++++++++++++@@XX",
"XXXXXX++@@++++++++..  &&======&&&&======&&&&..++++++++++++++@@XX",
"XX++++%%%%%%%%++..&&----====================&&..++++++++++++++++",
"XX++++%%%%%%%%++..&&----====================&&..++++++++++++++++",
"++++@@%%%%%%@@@@..------====================&&&&..++++++++++++++",
"++++@@%%%%%%@@@@..------====================&&&&..++++++++++++++",
"++++++++++++++..----------================&&&&&&..++++++%%%%%%++",
"++++++++++++++..----------================&&&&&&..++++++%%%%%%++",
"@@++++++XXXXXX..==----------======******&&&&&&&&**..%%%%%%%%%%@@",
"@@++++++XXXXXX..==----------======******&&&&&&&&**..%%%%%%%%%%@@",
"++++++XXXXXXXX..**==----------==**------**##&&****  @@%%%%@@@@++",
"++++++XXXXXXXX..**==----------==**------**##&&****  @@%%%%@@@@++",
"@@++++++++XXXX  **==----------==**------**##&&****  ++++++++%%%%",
"@@++++++++XXXX  **==----------==**------**##&&****  ++++++++%%%%",
"%%%%++++++++++  **====--------**------------##****  %%++++%%%%%%",
"%%%%++++++++++  **====--------**------------##****  %%++++%%%%%%",
"%%%%@@XXXXXX++  ##****======**&&------------######  %%@@++@@@@%%",
"%%%%@@XXXXXX++  ##****======**&&------------######  %%@@++@@@@%%",
"@@XXXXXXXX++++++..##**********&&----------&&&&####  ++++++++@@@@",
"@@XXXXXXXX++++++..##**********&&----------&&&&####  ++++++++@@@@",
"++XXXXXXXXXX++XX..####******&&&&**********&&&&OO  XX++++++++++++",
"++XXXXXXXXXX++XX..####******&&&&**********&&&&OO  XX++++++++++++",
"++++XXXXXX++XXXX..&&######&&&&&&&&********&&OOOO......XXXX++++++",
"++++XXXXXX++XXXX..&&######&&&&&&&&********&&OOOO......XXXX++++++",
"++++++@@@@@@....##&&########oooo&&&&&&&&&&&&OOOO&&====&&..++++++",
"++++++@@@@@@....##&&########oooo&&&&&&&&&&&&OOOO&&====&&..++++++",
"++++@@%%%%..######&&##OOOOOOOOOOoooooooooooo##&&==========..%%@@",
"++++@@%%%%..######&&##OOOOOOOOOOoooooooooooo##&&==========..%%@@",
"++++++%%..####**##&&&&####OOOOOOOOOOOOOOOOOOOO========&&&&&&..%%",
"++++++%%..####**##&&&&####OOOOOOOOOOOOOOOOOOOO========&&&&&&..%%",
"XXXX++  ##==****####&&########OOOOOOOOOOOOOO##======&&****&&..%%",
"XXXX++  ##==****####&&########OOOOOOOOOOOOOO##======&&****&&..%%",
"XXXX..OO**==****####OOOO####OOOOOOOOOOOOOOOO##&&====&&****&&  XX",
"XXXX..OO**==****####OOOO####OOOOOOOOOOOOOOOO##&&====&&****&&  XX",
"XX++..&&**--******##OOOOOOOOOOOOOOOOOOOOOOOO##&&&&&&&&&&&&&&  ++",
"XX++..&&**--******##OOOOOOOOOOOOOOOOOOOOOOOO##&&&&&&&&&&&&&&  ++",
"++++OO****----******##OOOOOOOOOOOOOOOOOOOOOO&&&&####&&&&&&  ++++",
"++++OO****----******##OOOOOOOOOOOOOOOOOOOOOO&&&&####&&&&&&  ++++",
"++  ##****----******&&&&####OOOOOOOOOOOOOO##&&&&####oooooo  ..++",
"++  ##****----******&&&&####OOOOOOOOOOOOOO##&&&&####oooooo  ..++",
"@@  ********----==**&&&&&&&&&&####################oooooooo..oo..",
"@@  ********----==**&&&&&&&&&&####################oooooooo..oo..",
"++..====****==----==**######&&&&&&&&&&&&OOOO####OOOOOOoooooooo##",
"++..====****==----==**######&&&&&&&&&&&&OOOO####OOOOOOoooooooo##",
"@@##====********====****&&##########OOOOOOOOOOOOOOOOOOOO##oooo##",
"@@##====********====****&&##########OOOOOOOOOOOOOOOOOOOO##oooo##",
"%%##========****&&&&****&&&&&&&&########OOOOOO######**&&##oo####",
"%%##========****&&&&****&&&&&&&&########OOOOOO######**&&##oo####",
"%%$$**========**&&&&&&##############OOOOOOOOOO##******&&####&&##",
"%%$$**========**&&&&&&##############OOOOOOOOOO##******&&####&&##",
"@@XX$$======******==####OOOOOOOOOOOOOOOOOOOO&&******&&##----**##",
"@@XX$$======******==####OOOOOOOOOOOOOOOOOOOO&&******&&##----**##",
"++XX$$$$==********##------####OOOOOOOOOO##############------**++",
"++XX$$$$==********##------####OOOOOOOOOO##############------**++",
"++++XX$$********##--------**##OO********&&############****&&$$++",
"++++XX$$********##--------**##OO********&&############****&&$$++",
"++++++@@@@$$****##------**##OOOO**********&&&&&&&&&&&&&&$$$$++++",
"++++++@@@@$$****##------**##OOOO**********&&&&&&&&&&&&&&$$$$++++",
"++++@@%%%%@@$$$$$$########OOOO********&&&&&&&&$$$$$$$$++++++%%@@",
"++++@@%%%%@@$$$$$$########OOOO********&&&&&&&&$$$$$$$$++++++%%@@",
"++++++%%%%@@++++++$$OOOOOOOO$$$$$$$$$$$$$$$$++++++++++++@@%%%%%%",
"++++++%%%%@@++++++$$OOOOOOOO$$$$$$$$$$$$$$$$++++++++++++@@%%%%%%"
};
