/* XPM */
static char *result[] = {
/* columns rows colors chars-per-pixel */
"64 64 13 1 ",
"  c #082929",
". c #103131",
"X c #103939",
"o c #383E3E",
"O c #184A42",
"+ c #31524A",
"@ c #396352",
"# c #424A4A",
"$ c #4A5252",
"% c #4A5A5A",
"& c #426B5A",
"* c #526363",
"= c #4A846B",
/* pixels */
"####$$$$$$$$$$$$$$$$$$$$$$******####$$$$$$$$$$$$$$$$$$$$$$******",
"####$$$$$$$$$$$$$$$$$$$$$$******####$$$$$$$$$$$$$$$$$$$$$$******",
"######$$%%$$$$$$$$$$$$$$$$$$%%########$$%%$$$$$$$$$$$$$$$$$$%%##",
"######$$%%$$$$$$$$$$$$$$$$$$%%########$$%%$$$$$$$$$$$$$$$$$$%%##",
"##$$$$********$$$$$$$$$$$$$$$$$$##$$$$********$$$$$$$$$$$$$$$$$$",
"##$$$$********$$$$$$$$$$$$$$$$$$##$$$$********$$$$$$$$$$$$$$$$$$",
"$$$$%%******%%%%$$$$$$$$$$$$....XX$$%%******%%%%$$$$$$$$$$$$$$$$",
"$$$$%%******%%%%$$$$$$$$$$$$....XX$$%%******%%%%$$$$$$$$$$$$$$$$",
"$$$$$$$$$$$$$$$$$$$$$$$$**..&&++==..$$$$$$$$$$$$$$$$$$$$******$$",
"$$$$$$$$$$$$$$$$$$$$$$$$**..&&++==..$$$$$$$$$$$$$$$$$$$$******$$",
"%%$$$$$$########$$$$******..&&======XX$$########$$$$**********%%",
"%%$$$$$$########$$$$******..&&======XX$$########$$$$**********%%",
"$$$$$$############$$%%**..==========++..##########$$%%****%%%%$$",
"$$$$$$############$$%%**..==========++..##########$$%%****%%%%$$",
"%%$$$$$$$$####$$$$$$$$$$..========&&++..$$####$$$$$$$$$$$$$$****",
"%%$$$$$$$$####$$$$$$$$$$..========&&++..$$####$$$$$$$$$$$$$$****",
"****$$$$$$$$$$$$%%****..++&&======OOOO..$$$$$$$$%%****$$$$******",
"****$$$$$$$$$$$$%%****..++&&======OOOO..$$$$$$$$%%****$$$$******",
"****%%######$$$$$$**..OO&&&&&&&&++OO&&&&..##$$$$$$****%%$$%%%%**",
"****%%######$$$$$$**..OO&&&&&&&&++OO&&&&..##$$$$$$****%%$$%%%%**",
"%%########$$$$$$$$$$  ++@@@@&&++++&&====XX..$$$$$$$$$$$$$$$$%%%%",
"%%########$$$$$$$$$$  ++@@@@&&++++&&====XX..$$$$$$$$$$$$$$$$%%%%",
"$$##########$$######  ++++++@@@@@@&&====OO  $$######$$$$$$$$$$$$",
"$$##########$$######  ++++++@@@@@@&&====OO  $$######$$$$$$$$$$$$",
"$$$$######$$########  XX++OO@@@@@@OO++&&++  ##############$$$$$$",
"$$$$######$$########  XX++OO@@@@@@OO++&&++  ##############$$$$$$",
"$$$$$$%%%%%%$$######  XXOOOOOO++++OOXX++++  $$########$$$$$$$$$$",
"$$$$$$%%%%%%$$######  XXOOOOOO++++OOXX++++  $$########$$$$$$$$$$",
"$$$$%%****%%%%$$$$$$  XXXXOOOOOOOOXXXXOOOO  %%$$$$$$$$$$$$$$**%%",
"$$$$%%****%%%%$$$$$$  XXXXOOOOOOOOXXXXOOOO  %%$$$$$$$$$$$$$$**%%",
"$$$$$$****%%$$$$$$  XXXXXXXXOOXXXX....XX..  $$$$$$$$$$$$%%******",
"$$$$$$****%%$$$$$$  XXXXXXXXOOXXXX....XX..  $$$$$$$$$$$$%%******",
"####$$$$$$$$$$$$$$  ++XXXXOOOOXXXX........XX  $$$$$$$$$$$$******",
"####$$$$$$$$$$$$$$  ++XXXXOOOOXXXX........XX  $$$$$$$$$$$$******",
"######$$%%$$$$$$  @@++++OOOOXXXX........XXOO  $$$$$$$$$$$$$$%%##",
"######$$%%$$$$$$  @@++++OOOOXXXX........XXOO  $$$$$$$$$$$$$$%%##",
"##$$$$********$$  @@@@++++++++OO......XXXXOOXX  $$$$$$$$$$$$$$$$",
"##$$$$********$$  @@@@++++++++OO......XXXXOOXX  $$$$$$$$$$$$$$$$",
"$$$$%%******%%%%  ++@@++++++++++XX....XXOOOOXX  $$$$$$$$$$$$$$$$",
"$$$$%%******%%%%  ++@@++++++++++XX....XXOOOOXX  $$$$$$$$$$$$$$$$",
"$$$$$$$$$$$$$$$$  OOOO++++++++OOXXOOOO..OOOOXX  $$$$$$$$******$$",
"$$$$$$$$$$$$$$$$  OOOO++++++++OOXXOOOO..OOOOXX  $$$$$$$$******$$",
"%%$$$$$$########  OO++++OOOOOOOOXX....OOOOOO..  $$$$**********%%",
"%%$$$$$$########  OO++++OOOOOOOOXX....OOOOOO..  $$$$**********%%",
"$$$$$$##########oo..++++OOXX..XXXX..XXOOOOXX  oo##$$%%****%%%%$$",
"$$$$$$##########oo..++++OOXX..XXXX..XXOOOOXX  oo##$$%%****%%%%$$",
"%%$$$$$$$$####$$ooXXOO++++..    ............XXoo$$$$$$$$$$$$****",
"%%$$$$$$$$####$$ooXXOO++++..    ............XXoo$$$$$$$$$$$$****",
"****$$$$$$$$$$$$oooo..OOXX      OOOO........oooo%%****$$$$******",
"****$$$$$$$$$$$$oooo..OOXX      OOOO........oooo%%****$$$$******",
"****%%######$$$$ooooooXX..      OOOOOO..XXoooooo$$****%%$$%%%%**",
"****%%######$$$$ooooooXX..      OOOOOO..XXoooooo$$****%%$$%%%%**",
"%%########$$$$$$$$ooooooooXX........XXoooooooo$$$$$$$$$$$$$$%%%%",
"%%########$$$$$$$$ooooooooXX........XXoooooooo$$$$$$$$$$$$$$%%%%",
"$$##########$$######$$oooooooooooooooooooo##$$######$$$$$$$$$$$$",
"$$##########$$######$$oooooooooooooooooooo##$$######$$$$$$$$$$$$",
"$$$$######$$##############$$$$$$$$$$######$$##############$$$$$$",
"$$$$######$$##############$$$$$$$$$$######$$##############$$$$$$",
"$$$$$$%%%%%%$$########$$$$$$$$$$$$$$$$%%%%%%$$########$$$$$$$$$$",
"$$$$$$%%%%%%$$########$$$$$$$$$$$$$$$$%%%%%%$$########$$$$$$$$$$",
"$$$$%%****%%%%$$$$$$$$$$$$$$**%%$$$$%%****%%%%$$$$$$$$$$$$$$**%%",
"$$$$%%****%%%%$$$$$$$$$$$$$$**%%$$$$%%****%%%%$$$$$$$$$$$$$$**%%",
"$$$$$$****%%$$$$$$$$$$$$%%******$$$$$$****%%$$$$$$$$$$$$%%******",
"$$$$$$****%%$$$$$$$$$$$$%%******$$$$$$****%%$$$$$$$$$$$$%%******"
};
