/* XPM */
static char *result[] = {
/* columns rows colors chars-per-pixel */
"64 64 12 1 ",
"  c #082929",
". c #103131",
"X c #103939",
"o c #383E3E",
"O c #184A42",
"+ c #31524A",
"@ c #424A4A",
"# c #4A5252",
"$ c #4A5A5A",
"% c #426B5A",
"& c #526363",
"* c #4A846B",
/* pixels */
"@@@@######################&&&&&&@@@@######################&&&&&&",
"@@@@######################&&&&&&@@@@######################&&&&&&",
"@@@@@@##$$##################$$@@@@@@@@##$$##################$$@@",
"@@@@@@##$$##################$$@@@@@@@@##$$##################$$@@",
"@@####&&&&&&&&##################@@####&&&&&&&&##################",
"@@####&&&&&&&&##################@@####&&&&&&&&##################",
"####$$&&&&&&$$$$####################$$&&&&&&$$$$################",
"####$$&&&&&&$$$$####################$$&&&&&&$$$$################",
"########################&&&&&&##########################&&&&&&##",
"########################&&&&&&##########################&&&&&&##",
"$$######@@@@@@@@####&&&&&&&&&&$$$$######@@@@@@@@####&&&&&&&&&&$$",
"$$######@@@@@@@@####&&&&&&&&&&$$$$######@@@@@@@@####&&&&&&&&&&$$",
"######@@@@@@@@@@@@##$$&&&&$$$$########@@@@@@@@@@@@##$$&&&&$$$$##",
"######@@@@@@@@@@@@##$$&&&&$$$$########@@@@@@@@@@@@##$$&&&&$$$$##",
"$$########@@@@##############&&&&$$########@@@@##############&&&&",
"$$########@@@@##############&&&&$$########@@@@##############&&&&",
"&&&&############$$&&&&####&&&&XXXXXX############$$&&&&####&&&&&&",
"&&&&############$$&&&&####&&&&XXXXXX############$$&&&&####&&&&&&",
"&&&&$$@@@@@@######&&&&$$##$$XXOO****XX@@@@@@######&&&&$$##$$$$&&",
"&&&&$$@@@@@@######&&&&$$##$$XXOO****XX@@@@@@######&&&&$$##$$$$&&",
"$$@@@@@@@@##############XXXXOOOO****%%..@@##################$$$$",
"$$@@@@@@@@##############XXXXOOOO****%%..@@##################$$$$",
"##@@@@@@@@@@##@@@@@@##XX%%%%%%OO%%****..@@@@##@@@@@@############",
"##@@@@@@@@@@##@@@@@@##XX%%%%%%OO%%****..@@@@##@@@@@@############",
"####@@@@@@##@@@@@@@@@@..%%%%%%++OO%%OOOO..##@@@@@@@@@@@@@@######",
"####@@@@@@##@@@@@@@@@@..%%%%%%++OO%%OOOO..##@@@@@@@@@@@@@@######",
"######$$$$$$##@@@@@@..OO%%%%%%%%OOOOOOOOXX..##@@@@@@@@##########",
"######$$$$$$##@@@@@@..OO%%%%%%%%OOOOOOOOXX..##@@@@@@@@##########",
"####$$&&&&$$$$######..OO++%%%%%%OOOOOOXXOO..$$##############&&$$",
"####$$&&&&$$$$######..OO++%%%%%%OOOOOOXXOO..$$##############&&$$",
"######&&&&$$######..++OOOO%%%%OOXXOOOO..OOOO..##########$$&&&&&&",
"######&&&&$$######..++OOOO%%%%OOXXOOOO..OOOO..##########$$&&&&&&",
"@@@@##############..++++OOOOOOOOXX....OOOOOO..############&&&&&&",
"@@@@##############..++++OOOOOOOOXX....OOOOOO..############&&&&&&",
"@@@@@@##$$######oo..++++OOXX..XXXX..XXOOOOXX..oo############$$@@",
"@@@@@@##$$######oo..++++OOXX..XXXX..XXOOOOXX..oo############$$@@",
"@@####&&&&&&&&##ooXXOO++++..    ............XXoo################",
"@@####&&&&&&&&##ooXXOO++++..    ............XXoo################",
"####$$&&&&&&$$$$oooo..OOXX      OOOO........oooo################",
"####$$&&&&&&$$$$oooo..OOXX      OOOO........oooo################",
"################ooooooXX..      OOOOOO..XXoooooo########&&&&&&##",
"################ooooooXX..      OOOOOO..XXoooooo########&&&&&&##",
"$$######@@@@@@@@##ooooooooXX........XXoooooooo@@####&&&&&&&&&&$$",
"$$######@@@@@@@@##ooooooooXX........XXoooooooo@@####&&&&&&&&&&$$",
"######@@@@@@@@@@@@##$$oooooooooooooooooooo@@@@@@@@##$$&&&&$$$$##",
"######@@@@@@@@@@@@##$$oooooooooooooooooooo@@@@@@@@##$$&&&&$$$$##",
"$$########@@@@##############&&&&$$########@@@@##############&&&&",
"$$########@@@@##############&&&&$$########@@@@##############&&&&",
"&&&&############$$&&&&####&&&&&&&&&&############$$&&&&####&&&&&&",
"&&&&############$$&&&&####&&&&&&&&&&############$$&&&&####&&&&&&",
"&&&&$$@@@@@@######&&&&$$##$$$$&&&&&&$$@@@@@@######&&&&$$##$$$$&&",
"&&&&$$@@@@@@######&&&&$$##$$$$&&&&&&$$@@@@@@######&&&&$$##$$$$&&",
"$$@@@@@@@@##################$$$$$$@@@@@@@@##################$$$$",
"$$@@@@@@@@##################$$$$$$@@@@@@@@##################$$$$",
"##@@@@@@@@@@##@@@@@@##############@@@@@@@@@@##@@@@@@############",
"##@@@@@@@@@@##@@@@@@##############@@@@@@@@@@##@@@@@@############",
"####@@@@@@##@@@@@@@@@@@@@@##########@@@@@@##@@@@@@@@@@@@@@######",
"####@@@@@@##@@@@@@@@@@@@@@##########@@@@@@##@@@@@@@@@@@@@@######",
"######$$$$$$##@@@@@@@@################$$$$$$##@@@@@@@@##########",
"######$$$$$$##@@@@@@@@################$$$$$$##@@@@@@@@##########",
"####$$&&&&$$$$##############&&$$####$$&&&&$$$$##############&&$$",
"####$$&&&&$$$$##############&&$$####$$&&&&$$$$##############&&$$",
"######&&&&$$############$$&&&&&&######&&&&$$############$$&&&&&&",
"######&&&&$$############$$&&&&&&######&&&&$$############$$&&&&&&"
};
