/* XPM */
static char *result[] = {
/* columns rows colors chars-per-pixel */
"64 64 15 1 ",
"  c #312921",
". c #383E3E",
"X c #423929",
"o c #424A4A",
"O c #524A42",
"+ c #525242",
"@ c #5A524A",
"# c #4A5252",
"$ c #4A5A5A",
"% c #635A52",
"& c #6B6352",
"* c #526363",
"= c #7B7363",
"- c #848473",
"; c #948C84",
/* pixels */
"oooo######################******oooo######################******",
"oooo######################******oooo######################******",
"oooooo##$$##################$$oooooooo##$$##################$$oo",
"oooooo##$$##################$$oooooooo##$$##################$$oo",
"oo####********##################oo####********##################",
"oo####********##################oo####********##################",
"####$$******$$$$####################$$******$$$$################",
"####$$******$$$$####################$$******$$$$################",
"########################******##########################******##",
"########################******##########################******##",
"$$######oooooooo####**********$$$$######oooooooo####**********$$",
"$$######oooooooo####**********$$$$######oooooooo####**********$$",
"######oooooooooooo##$$****$$$$########oooooooooooo##$$****$$$$##",
"######oooooooooooo##$$****$$$$########oooooooooooo##$$****$$$$##",
"$$########oooo##############****$$########oooo##############****",
"$$########oooo##############****$$########oooo##############****",
"****############$$****####OOOO******############$$****####******",
"****############$$****####OOOO******############$$****####******",
"****$$oooooo######****$$OO;;;;OO****$$oooooo######****$$##$$$$**",
"****$$oooooo######****$$OO;;;;OO****$$oooooo######****$$##$$$$**",
"$$oooooooo############OO;;;;;;--OOoooooooo##################$$$$",
"$$oooooooo############OO;;;;;;--OOoooooooo##################$$$$",
"##oooooooooo##oooooo##OO;;;;;;--%%OOooooXXXX##oooooo############",
"##oooooooooo##oooooo##OO;;;;;;--%%OOooooXXXX##oooooo############",
"####oooooo##ooooooooOO;;;;;;--==%%%%XXXXOO--XXoooooooooooo######",
"####oooooo##ooooooooOO;;;;;;--==%%%%XXXXOO--XXoooooooooooo######",
"######$$$$$$##ooooooOO;;;;;;--==%%XXOO&&----OOXXoooooo##########",
"######$$$$$$##ooooooOO;;;;;;--==%%XXOO&&----OOXXoooooo##########",
"####$$****$$$$####OO%%==%%;;--==@@++XX----&&OOXX############**$$",
"####$$****$$$$####OO%%==%%;;--==@@++XX----&&OOXX############**$$",
"######****$$####XX++;;==%%%%====@@++OO====@@OOXX########$$******",
"######****$$####XX++;;==%%%%====@@++OO====@@OOXX########$$******",
"oooo############XX++==;;;;%%%%@@++OO++@@@@@@OOXX##########******",
"oooo############XX++==;;;;%%%%@@++OO++@@@@@@OOXX##########******",
"oooooo##$$######XX%%%%====%%@@OO++OOOO++@@@@OOXX############$$oo",
"oooooo##$$######XX%%%%====%%@@OO++OOOO++@@@@OOXX############$$oo",
"oo####********##..XX@@@@@@%%@@OO++OOOOOOXXXXXX..################",
"oo####********##..XX@@@@@@%%@@OO++OOOOOOXXXXXX..################",
"####$$******$$$$..  XXXXXX@@OOOOOOXXOOOOXXXX  ..################",
"####$$******$$$$..  XXXXXX@@OOOOOOXXOOOOXXXX  ..################",
"################....  XXXXXXOOOOOOXXXXXXXX  ....########******##",
"################....  XXXXXXOOOOOOXXXXXXXX  ....########******##",
"$$######oooooooo##....                    ....oo####**********$$",
"$$######oooooooo##....                    ....oo####**********$$",
"######oooooooooooo##........................oooooo##$$****$$$$##",
"######oooooooooooo##........................oooooo##$$****$$$$##",
"$$########oooo########....................oooo##############****",
"$$########oooo########....................oooo##############****",
"****############$$****####**********############$$****####******",
"****############$$****####**********############$$****####******",
"****$$oooooo######****$$##$$$$******$$oooooo######****$$##$$$$**",
"****$$oooooo######****$$##$$$$******$$oooooo######****$$##$$$$**",
"$$oooooooo##################$$$$$$oooooooo##################$$$$",
"$$oooooooo##################$$$$$$oooooooo##################$$$$",
"##oooooooooo##oooooo##############oooooooooo##oooooo############",
"##oooooooooo##oooooo##############oooooooooo##oooooo############",
"####oooooo##oooooooooooooo##########oooooo##oooooooooooooo######",
"####oooooo##oooooooooooooo##########oooooo##oooooooooooooo######",
"######$$$$$$##oooooooo################$$$$$$##oooooooo##########",
"######$$$$$$##oooooooo################$$$$$$##oooooooo##########",
"####$$****$$$$##############**$$####$$****$$$$##############**$$",
"####$$****$$$$##############**$$####$$****$$$$##############**$$",
"######****$$############$$******######****$$############$$******",
"######****$$############$$******######****$$############$$******"
};
