/* XPM */
static char *result[] = {
/* columns rows colors chars-per-pixel */
"64 64 10 1 ",
"  c #394A4A",
". c #424A4A",
"X c #4A5252",
"o c #4A5A5A",
"O c #526363",
"+ c #005284",
"@ c #10638C",
"# c #187394",
"$ c #107B9C",
"% c #10849C",
/* pixels */
"....XXXXXXXXXXXXXXXXXXXXXXOOOOOO....XXXXXXXXXXXXXXXXXXXXXXOOOOOO",
"....XXXXXXXXXXXXXXXXXXXXXXOOOOOO....XXXXXXXXXXXXXXXXXXXXXXOOOOOO",
"......XXooXXXXXXXXXXXXXXXXXXoo........XXooXXXXXXXXXXXXXXXXXXoo..",
"......XXooXXXXXXXXXXXXXXXXXXoo........XXooXXXXXXXXXXXXXXXXXXoo..",
"..XXXXOOOOOOOOXXXXXXXXXXXXXXXXXX..XXXXOOOOOOOOXXXXXXXXXXXXXXXXXX",
"..XXXXOOOOOOOOXXXXXXXXXXXXXXXXXX..XXXXOOOOOOOOXXXXXXXXXXXXXXXXXX",
"XXXXooOOOOOOoooo          XXXXXX          OOooooXXXXXXXXXXXXXXXX",
"XXXXooOOOOOOoooo          XXXXXX          OOooooXXXXXXXXXXXXXXXX",
"XXXXXXXX          ++++++          ++++++          XXXXXXOOOOOOXX",
"XXXXXXXX          ++++++          ++++++          XXXXXXOOOOOOXX",
"ooXXXXXX  ++++++++++++++++++++++++++++++++++++++        OOOOOOoo",
"ooXXXXXX  ++++++++++++++++++++++++++++++++++++++        OOOOOOoo",
"XXXXXX    ++++++++++++++++++++++++++++++++++++++++++++  OOooooXX",
"XXXXXX    ++++++++++++++++++++++++++++++++++++++++++++  OOooooXX",
"ooXXXX  ++++++++++@@####++++++++++@@########++++++++++  XXXXOOOO",
"ooXXXX  ++++++++++@@####++++++++++@@########++++++++++  XXXXOOOO",
"OOOOXX  ++++++@@@@######$$@@@@@@@@############@@@@++++  XXOOOOOO",
"OOOOXX  ++++++@@@@######$$@@@@@@@@############@@@@++++  XXOOOOOO",
"OOOOoo  ++++++$$##################################++++  XXooooOO",
"OOOOoo  ++++++$$##################################++++  XXooooOO",
"oo....    ++@@##########################$$$$######++++  XXXXoooo",
"oo....    ++@@##########################$$$$######++++  XXXXoooo",
"XX......  ++@@##############$$%%%%$$##############@@++  XXXXXXXX",
"XX......  ++@@##############$$%%%%$$##############@@++  XXXXXXXX",
"XXXX....  ++@@##############$$%%%%$$##############@@++    XXXXXX",
"XXXX....  ++@@##############$$%%%%$$##############@@++    XXXXXX",
"XXXXXXoo  ++@@######################################++++  XXXXXX",
"XXXXXXoo  ++@@######################################++++  XXXXXX",
"XXXXooOO  ++##################################$$####++++  XXOOoo",
"XXXXooOO  ++##################################$$####++++  XXOOoo",
"XXXXXXOO  ++@@######$$%%%%$$########################++    OOOOOO",
"XXXXXXOO  ++@@######$$%%%%$$########################++    OOOOOO",
"....XX    ++@@######$$%%%%$$######################@@++  XXOOOOOO",
"....XX    ++@@######$$%%%%$$######################@@++  XXOOOOOO",
"......  ++++##########################$$$$########@@++  XXXXoo..",
"......  ++++##########################$$$$########@@++  XXXXoo..",
"..XXXX  ++@@##########################$$$$########@@++  XXXXXXXX",
"..XXXX  ++@@##########################$$$$########@@++  XXXXXXXX",
"XXXXoo  ++@@################$$$$##################@@++  XXXXXXXX",
"XXXXoo  ++@@################$$$$##################@@++  XXXXXXXX",
"XXXXXX    ++######################################@@++    OOOOXX",
"XXXXXX    ++######################################@@++    OOOOXX",
"ooXXXXXX  ++##$$$$################################$$++++  OOOOoo",
"ooXXXXXX  ++##$$$$################################$$++++  OOOOoo",
"XXXXXX..  ++@@######################################@@++  ooooXX",
"XXXXXX..  ++@@######################################@@++  ooooXX",
"ooXXXXXX  ++@@######################################@@++  XXOOOO",
"ooXXXXXX  ++@@######################################@@++  XXOOOO",
"OOOOXXXX  ++@@##########$$$$##########$$%%%%$$######++    OOOOOO",
"OOOOXXXX  ++@@##########$$$$##########$$%%%%$$######++    OOOOOO",
"OOOOoo..  ++@@########################$$%%%%$$####@@++  XXooooOO",
"OOOOoo..  ++@@########################$$%%%%$$####@@++  XXooooOO",
"oo......  ++@@$$##################################@@++  XXXXoooo",
"oo......  ++@@$$##################################@@++  XXXXoooo",
"XX......    @@$$######@@@@@@@@##################@@@@    XXXXXXXX",
"XX......    @@$$######@@@@@@@@##################@@@@    XXXXXXXX",
"XXXX......    @@@@####          @@@@########@@        ....XXXXXX",
"XXXX......    @@@@####          @@@@########@@        ....XXXXXX",
"XXXXXXoooooo            XXXXXX                  ......XXXXXXXXXX",
"XXXXXXoooooo            XXXXXX                  ......XXXXXXXXXX",
"XXXXooOOOOooooXXXXXXXXXXXXXXOOooXXXXooOOOOooooXXXXXXXXXXXXXXOOoo",
"XXXXooOOOOooooXXXXXXXXXXXXXXOOooXXXXooOOOOooooXXXXXXXXXXXXXXOOoo",
"XXXXXXOOOOooXXXXXXXXXXXXooOOOOOOXXXXXXOOOOooXXXXXXXXXXXXooOOOOOO",
"XXXXXXOOOOooXXXXXXXXXXXXooOOOOOOXXXXXXOOOOooXXXXXXXXXXXXooOOOOOO"
};
