/* XPM */
static char *result[] = {
/* columns rows colors chars-per-pixel */
"64 64 10 1 ",
"  c #181818",
". c #302828",
"X c #383E3E",
"o c #484030",
"O c #424A4A",
"+ c #4A5252",
"@ c #4A5A5A",
"# c #526363",
"$ c #807040",
"% c #B8A860",
/* pixels */
"OOOO++++++++++++++++++++++######OOOO++++++++++++++++++++++######",
"OOOO++++++++++++++++++++++######OOOO++++++++++++++++++++++######",
"OOOOOO++@@++++++++++++++++++@@OOOOOOOO++@@++++++++++++++++++@@OO",
"OOOOOO++@@++++++++++++++++++@@OOOOOOOO++@@++++++++++++++++++@@OO",
"OO++++########++++++++++++++++++OO++++########++++++++++++++++++",
"OO++++########++++++++++++++++++OO++++########++++++++++++++++++",
"++++@@######@@@@++++++++++++++++++++@@######@@@@++++++++++++++++",
"++++@@######@@@@++++++++++++++++++++@@######@@@@++++++++++++++++",
"++++++++++++++++++++++++######++++++++++++++++++++++++++######++",
"++++++++++++++++++++++++######++++++++++++++++++++++++++######++",
"@@++++++OOOOOOOO++++##########@@@@++++++OOOOOOOO++++##########@@",
"@@++++++OOOOOOOO++++##########@@@@++++++OOOOOOOO++++##########@@",
"++++++OOOOOOOOOOOO++@@####@@@@++++++++OOOOOOOOOOOO++@@####@@@@++",
"++++++OOOOOOOOOOOO++@@####@@@@++++++++OOOOOOOOOOOO++@@####@@@@++",
"@@++++++++OOOO++++++++++++++####@@++++++++OOOO++++++++++++++####",
"@@++++++++OOOO++++++++++++++####@@++++++++OOOO++++++++++++++####",
"####++++++++++++@@####++++####oooooo++++++++++++@@####++++######",
"####++++++++++++@@####++++####oooooo++++++++++++@@####++++######",
"####@@OOOOOO++++++####@@++oooo%%$$%%ooOOOOOO++++++####@@++@@@@##",
"####@@OOOOOO++++++####@@++oooo%%$$%%ooOOOOOO++++++####@@++@@@@##",
"@@OOOOOOOO++++++++++++++oo%%%%%%%%$$$$ooOO++++++++++++++++++@@@@",
"@@OOOOOOOO++++++++++++++oo%%%%%%%%$$$$ooOO++++++++++++++++++@@@@",
"++OOOOOOOOOO++OOOOOO++oo$$$$%%%%$$ooooooOOOO++OOOOOO++++++++++++",
"++OOOOOOOOOO++OOOOOO++oo$$$$%%%%$$ooooooOOOO++OOOOOO++++++++++++",
"++++OOOOOO++OOOOOOOOOOoo%%%%$$oooooo%%%%oo++OOOOOOOOOOOOOO++++++",
"++++OOOOOO++OOOOOOOOOOoo%%%%$$oooooo%%%%oo++OOOOOOOOOOOOOO++++++",
"++++++@@@@@@++OOOOOOoo%%%%%%%%oo%%$$%%%%$$  ++OOOOOOOO++++++++++",
"++++++@@@@@@++OOOOOOoo%%%%%%%%oo%%$$%%%%$$  ++OOOOOOOO++++++++++",
"++++@@####@@@@++++++oo$$%%%%oo$$$$$$$$oooo  @@++++++++++++++##@@",
"++++@@####@@@@++++++oo$$%%%%oo$$$$$$$$oooo  @@++++++++++++++##@@",
"++++++####@@++++++  $$%%oooooooo$$oooooooooo  ++++++++++@@######",
"++++++####@@++++++  $$%%oooooooo$$oooooooooo  ++++++++++@@######",
"OOOO++++++++++++++  $$$$$$..$$$$oo..oooo$$oo  ++++++++++++######",
"OOOO++++++++++++++  $$$$$$..$$$$oo..oooo$$oo  ++++++++++++######",
"OOOOOO++@@++++++XX  oo$$oo..$$$$$$..oo$$oo$$  ++++++++++++++@@OO",
"OOOOOO++@@++++++XX  oo$$oo..$$$$$$..oo$$oo$$  ++++++++++++++@@OO",
"OO++++########++XX  $$oo..$$$$$$oooo..oo$$oo  XX++++++++++++++++",
"OO++++########++XX  $$oo..$$$$$$oooo..oo$$oo  XX++++++++++++++++",
"++++@@######@@@@XXXX  oo  oooooooooo  oooo  XXXX++++++++++++++++",
"++++@@######@@@@XXXX  oo  oooooooooo  oooo  XXXX++++++++++++++++",
"++++++++++++++++XXXXXX    oooooooooo      XXXXXX++++++++######++",
"++++++++++++++++XXXXXX    oooooooooo      XXXXXX++++++++######++",
"@@++++++OOOOOOOOXXXXXXXXXX          XXXXXXXXXXOO++++##########@@",
"@@++++++OOOOOOOOXXXXXXXXXX          XXXXXXXXXXOO++++##########@@",
"++++++OOOOOOOOOOOOXXXXXXXXXXXXXXXXXXXXXXXXXXOOOOOO++@@####@@@@++",
"++++++OOOOOOOOOOOOXXXXXXXXXXXXXXXXXXXXXXXXXXOOOOOO++@@####@@@@++",
"@@++++++++OOOO++++++++++XXXXXXXXXXXXXX++++OOOO++++++++++++++####",
"@@++++++++OOOO++++++++++XXXXXXXXXXXXXX++++OOOO++++++++++++++####",
"####++++++++++++@@####++++##########++++++++++++@@####++++######",
"####++++++++++++@@####++++##########++++++++++++@@####++++######",
"####@@OOOOOO++++++####@@++@@@@######@@OOOOOO++++++####@@++@@@@##",
"####@@OOOOOO++++++####@@++@@@@######@@OOOOOO++++++####@@++@@@@##",
"@@OOOOOOOO++++++++++++++++++@@@@@@OOOOOOOO++++++++++++++++++@@@@",
"@@OOOOOOOO++++++++++++++++++@@@@@@OOOOOOOO++++++++++++++++++@@@@",
"++OOOOOOOOOO++OOOOOO++++++++++++++OOOOOOOOOO++OOOOOO++++++++++++",
"++OOOOOOOOOO++OOOOOO++++++++++++++OOOOOOOOOO++OOOOOO++++++++++++",
"++++OOOOOO++OOOOOOOOOOOOOO++++++++++OOOOOO++OOOOOOOOOOOOOO++++++",
"++++OOOOOO++OOOOOOOOOOOOOO++++++++++OOOOOO++OOOOOOOOOOOOOO++++++",
"++++++@@@@@@++OOOOOOOO++++++++++++++++@@@@@@++OOOOOOOO++++++++++",
"++++++@@@@@@++OOOOOOOO++++++++++++++++@@@@@@++OOOOOOOO++++++++++",
"++++@@####@@@@++++++++++++++##@@++++@@####@@@@++++++++++++++##@@",
"++++@@####@@@@++++++++++++++##@@++++@@####@@@@++++++++++++++##@@",
"++++++####@@++++++++++++@@######++++++####@@++++++++++++@@######",
"++++++####@@++++++++++++@@######++++++####@@++++++++++++@@######"
};
