/* XPM */
static char *result[] = {
/* columns rows colors chars-per-pixel */
"64 64 12 1 ",
"  c black",
". c #381858",
"X c #103840",
"o c #424A4A",
"O c #4A5252",
"+ c #4A5A5A",
"@ c #526363",
"# c #407078",
"$ c #604080",
"% c #8860B8",
"& c #489098",
"* c #50B8B0",
/* pixels */
"ooooOOOOOOOOOOOOOOOOOOOOOO@@@@@@ooooOOOOOOOOOOOOOOOOOOOOOO@@@@@@",
"ooooOOOOOOOOOOOOOOOOOOOOOO@@@@@@ooooOOOOOOOOOOOOOOOOOOOOOO@@@@@@",
"ooooooOO++OOOOOOOOOOOOOOOOOO++ooooooooOO++OOOOOOOOOOOOOOOOOO++oo",
"ooooooOO++OOOOOOOOOOOOOOOOOO++ooooooooOO++OOOOOOOOOOOOOOOOOO++oo",
"ooOOOO@@@@@@@@OOOOOOOOOOOOOOOOOOooOOOO@@@@@@@@OOOOOOOOOOOOOOOOOO",
"ooOOOO@@@@@@@@OOOOOOOOOOOOOOOOOOooOOOO@@@@@@@@OOOOOOOOOOOOOOOOOO",
"OOOO++@@@@@@++++OOOOOOOOOOOOOOOOOOOO++@@@@@@++++OOOOOOOOOOOOOOOO",
"OOOO++@@@@@@++++OOOOOOOOOOOOOOOOOOOO++@@@@@@++++OOOOOOOOOOOOOOOO",
"OOOOOOOOOOOOOOOOOOOOOOOO@@@@@@OOOOOOOOOOOOOOOOOOOOOOOOOO@@@@@@OO",
"OOOOOOOOOOOOOOOOOOOOOOOO@@@@@@OOOOOOOOOOOOOOOOOOOOOOOOOO@@@@@@OO",
"++XXXXXXooooooooOOOO@@@@@@@@@@++++OOOOOOooooooooOOOO@@@@XXXXXX++",
"++XXXXXXooooooooOOOO@@@@@@@@@@++++OOOOOOooooooooOOOO@@@@XXXXXX++",
"XX******XXooooooooOO++@@  XX++OOOOOOXX  ooooooooooOO++XX******XX",
"XX******XXooooooooOO++@@  XX++OOOOOOXX  ooooooooooOO++XX******XX",
"XX******XXXXXXOOOOOOOOOO  XX@@@@++OOXX  OOooooOOOOXXXXXX******XX",
"XX******XXXXXXOOOOOOOOOO  XX@@@@++OOXX  OOooooOOOOXXXXXX******XX",
"@@XX..%%******XX++@@@@  **XXXXXXXXXXXX**  OOOOOOXX******%%..XX@@",
"@@XX..%%******XX++@@@@  **XXXXXXXXXXXX**  OOOOOOXX******%%..XX@@",
"@@@@..%%%%%%$$**XX@@@@  **##********##**  ooOOXX**$$%%%%%%..++@@",
"@@@@..%%%%%%$$**XX@@@@  **##********##**  ooOOXX**$$%%%%%%..++@@",
"++oooo..$$$$%%**XXOO  &&****************&&  OOXX**%%$$$$..OO++++",
"++oooo..$$$$%%**XXOO  &&****************&&  OOXX**%%$$$$..OO++++",
"OOoooo..%%%%%%&&XXoo  &&****************&&  OOXX&&%%%%%%..OOOOOO",
"OOoooo..%%%%%%&&XXoo  &&****************&&  OOXX&&%%%%%%..OOOOOO",
"OOOOoo..%%%%%%&&XXoo  ##****************##  ooXX&&%%%%%%..OOOOOO",
"OOOOoo..%%%%%%&&XXoo  ##****************##  ooXX&&%%%%%%..OOOOOO",
"OOOOOO++....%%$$&&XX  ##&&************&&##  XX&&$$%%....OOOOOOOO",
"OOOOOO++....%%$$&&XX  ##&&************&&##  XX&&$$%%....OOOOOOOO",
"OOOO++@@....$$$$##&&  ####&&&&&&&&&&&&####  &&##$$$$....OOOO@@++",
"OOOO++@@....$$$$##&&  ####&&&&&&&&&&&&####  &&##$$$$....OOOO@@++",
"OOOOOO@@....$$$$$$##&&####################&&##$$$$$$....++@@@@@@",
"OOOOOO@@....$$$$$$##&&####################&&##$$$$$$....++@@@@@@",
"ooooOOOO......$$$$$$$$####################$$$$$$$$......OO@@@@@@",
"ooooOOOO......$$$$$$$$####################$$$$$$$$......OO@@@@@@",
"ooooooOO++OOOO....$$XX####################XX$$....OOOOOOOOOO++oo",
"ooooooOO++OOOO....$$XX####################XX$$....OOOOOOOOOO++oo",
"ooOOOO@@@@@@@@....$$XX####################XX$$....OOOOOOOOOOOOOO",
"ooOOOO@@@@@@@@....$$XX####################XX$$....OOOOOOOOOOOOOO",
"OOOO++@@@@@@++++OO..  ####################  ..++OOOOOOOOOOOOOOOO",
"OOOO++@@@@@@++++OO..  ####################  ..++OOOOOOOOOOOOOOOO",
"OOOOOOOOOOOOOOOOOOOO  XX################XX  OOOOOOOOOOOO@@@@@@OO",
"OOOOOOOOOOOOOOOOOOOO  XX################XX  OOOOOOOOOOOO@@@@@@OO",
"++OOOOOOooooooooOOOO@@  ################  ooooooOOOO@@@@@@@@@@++",
"++OOOOOOooooooooOOOO@@  ################  ooooooOOOO@@@@@@@@@@++",
"OOOOOOooooooooooooOO++XX  ############  XXooooooooOO++@@@@++++OO",
"OOOOOOooooooooooooOO++XX  ############  XXooooooooOO++@@@@++++OO",
"++OOOOOOOOooooOOOOOOOOXX##            ##XXooooOOOOOOOOOOOOOO@@@@",
"++OOOOOOOOooooOOOOOOOOXX##            ##XXooooOOOOOOOOOOOOOO@@@@",
"@@@@OOOOOOOOOOOO++@@@@XX##XX@@@@@@@@XX##XXOOOOOO++@@@@OOOO@@@@@@",
"@@@@OOOOOOOOOOOO++@@@@XX##XX@@@@@@@@XX##XXOOOOOO++@@@@OOOO@@@@@@",
"@@@@++ooooooOOOOOO@@@@++XX++++@@@@@@++XXooooOOOOOO@@@@++OO++++@@",
"@@@@++ooooooOOOOOO@@@@++XX++++@@@@@@++XXooooOOOOOO@@@@++OO++++@@",
"++ooooooooOOOOOOOOOOOOOOOOOO++++++ooooooooOOOOOOOOOOOOOOOOOO++++",
"++ooooooooOOOOOOOOOOOOOOOOOO++++++ooooooooOOOOOOOOOOOOOOOOOO++++",
"OOooooooooooOOooooooOOOOOOOOOOOOOOooooooooooOOooooooOOOOOOOOOOOO",
"OOooooooooooOOooooooOOOOOOOOOOOOOOooooooooooOOooooooOOOOOOOOOOOO",
"OOOOooooooOOooooooooooooooOOOOOOOOOOooooooOOooooooooooooooOOOOOO",
"OOOOooooooOOooooooooooooooOOOOOOOOOOooooooOOooooooooooooooOOOOOO",
"OOOOOO++++++OOooooooooOOOOOOOOOOOOOOOO++++++OOooooooooOOOOOOOOOO",
"OOOOOO++++++OOooooooooOOOOOOOOOOOOOOOO++++++OOooooooooOOOOOOOOOO",
"OOOO++@@@@++++OOOOOOOOOOOOOO@@++OOOO++@@@@++++OOOOOOOOOOOOOO@@++",
"OOOO++@@@@++++OOOOOOOOOOOOOO@@++OOOO++@@@@++++OOOOOOOOOOOOOO@@++",
"OOOOOO@@@@++OOOOOOOOOOOO++@@@@@@OOOOOO@@@@++OOOOOOOOOOOO++@@@@@@",
"OOOOOO@@@@++OOOOOOOOOOOO++@@@@@@OOOOOO@@@@++OOOOOOOOOOOO++@@@@@@"
};
