/* XPM */
static char *result[] = {
/* columns rows colors chars-per-pixel */
"64 64 13 1 ",
"  c black",
". c gray19",
"X c #585038",
"o c #424A4A",
"O c #4A5252",
"+ c #4A5A5A",
"@ c #705848",
"# c #787050",
"$ c #526363",
"% c #907060",
"& c #A09068",
"* c #C09878",
"= c #989898",
/* pixels */
"ooooOOOOOOOOOOOOOOOOOOOOOO$$$$$$ooooOOOOOOOOOOOOOOOOOOOOOO$$$$$$",
"ooooOOOOOOOOOOOOOOOOOOOOOO$$$$$$ooooOOOOOOOOOOOOOOOOOOOOOO$$$$$$",
"ooooooOO++OOOOOOOOOOOOOOOOOO++ooooooooOO++OOOOOOOOOOOOOOOOOO++oo",
"ooooooOO++OOOOOOOOOOOOOOOOOO++ooooooooOO++OOOOOOOOOOOOOOOOOO++oo",
"ooOOOO$$$$$$$$OOOOOOOOOOOOOOOOOOooOOOO$$$$$$$$OOOOOOOOOOOOOOOOOO",
"ooOOOO$$$$$$$$OOOOOOOOOOOOOOOOOOooOOOO$$$$$$$$OOOOOOOOOOOOOOOOOO",
"OOOO++$$$$$$++++OOOOOOOOOOOOOOOOOOOO++$$$$$$++++OOOOOOOOOOOOOOOO",
"OOOO++$$$$$$++++OOOOOOOOOOOOOOOOOOOO++$$$$$$++++OOOOOOOOOOOOOOOO",
"OOOOOOOOOOOOOOOOOOOOOOOO$$$$$$OOOOOOOOOOOOOOOOOOOOOOOOOO$$$$$$OO",
"OOOOOOOOOOOOOOOOOOOOOOOO$$$$$$OOOOOOOOOOOOOOOOOOOOOOOOOO$$$$$$OO",
"++OOOOOOooooooooOOOO$$$$$$$$$$++++OOOOOOooooooooOOOO$$$$$$$$$$++",
"++OOOOOOooooooooOOOO$$$$$$$$$$++++OOOOOOooooooooOOOO$$$$$$$$$$++",
"OOOOOOooooooooooooOO++$$......OO......ooooooooooooOO++$$$$++++OO",
"OOOOOOooooooooooooOO++$$......OO......ooooooooooooOO++$$$$++++OO",
"++OOOOOOOOooooOOOOOO....&&&&##..##&&&&....ooooOOOOOOOOOOOOOO$$$$",
"++OOOOOOOOooooOOOOOO....&&&&##..##&&&&....ooooOOOOOOOOOOOOOO$$$$",
"$$$$OOOOOOOOOOOO++..&&&&&&&&&&XX&&&&&&&&&&..OOOO++$$$$OOOO$$$$$$",
"$$$$OOOOOOOOOOOO++..&&&&&&&&&&XX&&&&&&&&&&..OOOO++$$$$OOOO$$$$$$",
"$$$$++ooooooOOOO  ##&&&&&&&&&&XX&&&&&&&&&&##  OOOO$$$$++OO++++$$",
"$$$$++ooooooOOOO  ##&&&&&&&&&&XX&&&&&&&&&&##  OOOO$$$$++OO++++$$",
"++ooooooooOOOO  ##XX&&&&##XXXX##XXXX##&&&&XX##  OOOOOOOOOOOO++++",
"++ooooooooOOOO  ##XX&&&&##XXXX##XXXX##&&&&XX##  OOOOOOOOOOOO++++",
"OOooooooooooOO  ####XXXXXX##&&&&&&##XXXXXX####  ooooOOOOOOOOOOOO",
"OOooooooooooOO  ####XXXXXX##&&&&&&##XXXXXX####  ooooOOOOOOOOOOOO",
"OOOOooooooOO  XXXX&&&&XX##&&&&&&&&&&##XX&&&&XXXX  ooooooooOOOOOO",
"OOOOooooooOO  XXXX&&&&XX##&&&&&&&&&&##XX&&&&XXXX  ooooooooOOOOOO",
"OOOOOO++++....XX&&&&&&####&&&&&&&&&&####&&&&&&XX....ooOOOOOOOOOO",
"OOOOOO++++....XX&&&&&&####&&&&&&&&&&####&&&&&&XX....ooOOOOOOOOOO",
"OOOO++$$..%%**..&&&&##XX####&&&&&&####XX##&&&&..**%%..OOOOOO$$++",
"OOOO++$$..%%**..&&&&##XX####&&&&&&####XX##&&&&..**%%..OOOOOO$$++",
"OOOOOO$$..****..####XXXX##############XXXX####..****....++$$$$$$",
"OOOOOO$$..****..####XXXX##############XXXX####..****....++$$$$$$",
"ooooOO..%%****  XXXXXX##XXXXXXXXXXXXXX##XXXXXX  ****%%..OO$$$$$$",
"ooooOO..%%****  XXXXXX##XXXXXXXXXXXXXX##XXXXXX  ****%%..OO$$$$$$",
"oooooo..%%%%  XXXX##XX&&&&####XX####&&&&XX##XXXX  %%%%..OOOO++oo",
"oooooo..%%%%  XXXX##XX&&&&####XX####&&&&XX##XXXX  %%%%..OOOO++oo",
"ooOOOO  %%%%..XX######&&&&&&##XX##&&&&&&######XX..    OOOOOOOOOO",
"ooOOOO  %%%%..XX######&&&&&&##XX##&&&&&&######XX..    OOOOOOOOOO",
"OOOO++$$    ++....##XX########XX########XX####..OOOOOOOOOOOOOOOO",
"OOOO++$$    ++....##XX########XX########XX####..OOOOOOOOOOOOOOOO",
"OOOOOOOOOOOOOO..%%  XX####XXXXXXXXXX####XXXX....OOOOOOOO$$$$$$OO",
"OOOOOOOOOOOOOO..%%  XX####XXXXXXXXXX####XXXX....OOOOOOOO$$$$$$OO",
"++OOOOOOoooo..%%@@@@  XXXXXX######XXXXXXXX  %%..OOOO$$$$$$$$$$++",
"++OOOOOOoooo..%%@@@@  XXXXXX######XXXXXXXX  %%..OOOO$$$$$$$$$$++",
"OOOOOOoooooo  @@@@@@..XXXXXXXX##XXXXXXXX  @@@@%%..OO++$$$$++++OO",
"OOOOOOoooooo  @@@@@@..XXXXXXXX##XXXXXXXX  @@@@%%..OO++$$$$++++OO",
"++OOOOOOOOoo  @@==@@      XXXXXXXXXX    ..@@@@@@  OOOOOOOOOO$$$$",
"++OOOOOOOOoo  @@==@@      XXXXXXXXXX    ..@@@@@@  OOOOOOOOOO$$$$",
"$$$$OOOOOOOOOO      $$OOOO          OOOO  @@==@@  $$$$OOOO$$$$$$",
"$$$$OOOOOOOOOO      $$OOOO          OOOO  @@==@@  $$$$OOOO$$$$$$",
"$$$$++ooooooOOOOOO$$$$++OO++++$$$$$$++oooo      OO$$$$++OO++++$$",
"$$$$++ooooooOOOOOO$$$$++OO++++$$$$$$++oooo      OO$$$$++OO++++$$",
"++ooooooooOOOOOOOOOOOOOOOOOO++++++ooooooooOOOOOOOOOOOOOOOOOO++++",
"++ooooooooOOOOOOOOOOOOOOOOOO++++++ooooooooOOOOOOOOOOOOOOOOOO++++",
"OOooooooooooOOooooooOOOOOOOOOOOOOOooooooooooOOooooooOOOOOOOOOOOO",
"OOooooooooooOOooooooOOOOOOOOOOOOOOooooooooooOOooooooOOOOOOOOOOOO",
"OOOOooooooOOooooooooooooooOOOOOOOOOOooooooOOooooooooooooooOOOOOO",
"OOOOooooooOOooooooooooooooOOOOOOOOOOooooooOOooooooooooooooOOOOOO",
"OOOOOO++++++OOooooooooOOOOOOOOOOOOOOOO++++++OOooooooooOOOOOOOOOO",
"OOOOOO++++++OOooooooooOOOOOOOOOOOOOOOO++++++OOooooooooOOOOOOOOOO",
"OOOO++$$$$++++OOOOOOOOOOOOOO$$++OOOO++$$$$++++OOOOOOOOOOOOOO$$++",
"OOOO++$$$$++++OOOOOOOOOOOOOO$$++OOOO++$$$$++++OOOOOOOOOOOOOO$$++",
"OOOOOO$$$$++OOOOOOOOOOOO++$$$$$$OOOOOO$$$$++OOOOOOOOOOOO++$$$$$$",
"OOOOOO$$$$++OOOOOOOOOOOO++$$$$$$OOOOOO$$$$++OOOOOOOOOOOO++$$$$$$"
};
