/* XPM */
static char *result[] = {
/* columns rows colors chars-per-pixel */
"64 64 15 1 ",
"  c black",
". c #381858",
"X c #103840",
"o c #383850",
"O c #424A4A",
"+ c #4A5252",
"@ c #4A5A5A",
"# c #526363",
"$ c #407078",
"% c #604080",
"& c #8860B8",
"* c #489098",
"= c #50B8B0",
"- c #B8B8C0",
"; c #E8E8F8",
/* pixels */
"OOOO++++++++++++++++++++++######OOOO++++++++++++++++++++++######",
"OOOO++++++++++++++++++++++######OOOO++++++++++++++++++++++######",
"OOOOOO++@@++++++++++++++++++@@OOOOOOOO++@@++++++++++++++++++@@OO",
"OOOOOO++@@++++++++++++++++++@@OOOOOOOO++@@++++++++++++++++++@@OO",
"OO++++########++++++++++++++++++OO++++########++++++++++++++++++",
"OO++++########++++++++++++++++++OO++++########++++++++++++++++++",
"++++@@######@@@@++++++++++++++++++++@@######@@@@++++++++++++++++",
"++++@@######@@@@++++++++++++++++++++@@######@@@@++++++++++++++++",
"++++++++++++++++++++++++######++++++++++++++++++++++++++######++",
"++++++++++++++++++++++++######++++++++++++++++++++++++++######++",
"@@++++++OOOOOOOO++XXXXXXXXXX##@@@@++++++OOOOOOOO++++##########@@",
"@@++++++OOOOOOOO++XXXXXXXXXX##@@@@++++++OOOOOOOO++++##########@@",
"++++++OOOOOOOOOOOO++XX$$$$$$XXXX++++++OOOOOOOOOOOO++@@####@@@@++",
"++++++OOOOOOOOOOOO++XX$$$$$$XXXX++++++OOOOOOOOOOOO++@@####@@@@++",
"@@++++++++OOOO++++++++..%%%%%%$$XX++++++XXXXXX++++++++++++++####",
"@@++++++++OOOO++++++++..%%%%%%$$XX++++++XXXXXX++++++++++++++####",
"####++++++++XXXXXXXXXXXX%%%%%%$$XX##++XX$$****XXXX####++++######",
"####++++++++XXXXXXXXXXXX%%%%%%$$XX##++XX$$****XXXX####++++######",
"####@@OOOOXX**==========      %%XX##@@    ****====XX##@@++@@@@##",
"####@@OOOOXX**==========      %%XX##@@    ****====XX##@@++@@@@##",
"@@OOOOOOOOXX**==========      %%XXOOOO    ****====XX++++++++@@@@",
"@@OOOOOOOOXX**==========      %%XXOOOO    ****====XX++++++++@@@@",
"++OOOOOOOOOO++..&&&&&&&&======  $$XX  ====    ======XX++++++++++",
"++OOOOOOOOOO++..&&&&&&&&======  $$XX  ====    ======XX++++++++++",
"++++OOOOOO++OOOO..&&&&&&$$$$==  $$XXXX==&&==========XXOOOO++++++",
"++++OOOOOO++OOOO..&&&&&&$$$$==  $$XXXX==&&==========XXOOOO++++++",
"++++++@@@@@@++OO..%%&&&&%%%%**  XXXX$$**======;;====XX++++++++++",
"++++++@@@@@@++OO..%%&&&&%%%%**  XXXX$$**======;;====XX++++++++++",
"++++@@####@@@@++++..&&%%&&&&$$**XX$$$$****====--XX--XX++++++##@@",
"++++@@####@@@@++++..&&%%&&&&$$**XX$$$$****====--XX--XX++++++##@@",
"++++++####@@++++++..%%&&&&&&%%**XX$$$$$$**********XX++++@@######",
"++++++####@@++++++..%%&&&&&&%%**XX$$$$$$**********XX++++@@######",
"OOOO++++++++++++++..&&&&%%%%%%%%**XXXX$$$$$$$$  ;;  ++++++######",
"OOOO++++++++++++++..&&&&%%%%%%%%**XXXX$$$$$$$$  ;;  ++++++######",
"OOOOOO++@@++++++++......%%%%%%%%%%**$$$$$$          ++++++++@@OO",
"OOOOOO++@@++++++++......%%%%%%%%%%**$$$$$$          ++++++++@@OO",
"OO++++########++++......%%%%%%%%%%**$$$$$$          ++++++++++++",
"OO++++########++++......%%%%%%%%%%**$$$$$$          ++++++++++++",
"++++@@######@@@@++++++++......%%%%%%$$$$$$      oo  ++++++++++++",
"++++@@######@@@@++++++++......%%%%%%$$$$$$      oo  ++++++++++++",
"++++++++++++++++++++++++######..%%..$$$$$$    oooo++++++######++",
"++++++++++++++++++++++++######..%%..$$$$$$    oooo++++++######++",
"@@++++++OOOOOOOO++++##########    ..$$$$$$    oo  ++##########@@",
"@@++++++OOOOOOOO++++##########    ..$$$$$$    oo  ++##########@@",
"++++++OOOOOOOOOOOO++@@####@@@@++XX$$$$$$$$    --  ++@@####@@@@++",
"++++++OOOOOOOOOOOO++@@####@@@@++XX$$$$$$$$    --  ++@@####@@@@++",
"@@++++++++OOOO++++++++++++++####@@  $$$$$$$$$$  ++++++++++++####",
"@@++++++++OOOO++++++++++++++####@@  $$$$$$$$$$  ++++++++++++####",
"####++++++++++++@@####++++######XX$$          ++@@####++++######",
"####++++++++++++@@####++++######XX$$          ++@@####++++######",
"####@@OOOOOO++++++####@@++@@@@##XXXX$$$$XXOO++++++####@@++@@@@##",
"####@@OOOOOO++++++####@@++@@@@##XXXX$$$$XXOO++++++####@@++@@@@##",
"@@OOOOOOOO++++++++++++++++++@@@@@@OOXXXXXX++++++++++++++++++@@@@",
"@@OOOOOOOO++++++++++++++++++@@@@@@OOXXXXXX++++++++++++++++++@@@@",
"++OOOOOOOOOO++OOOOOO++++++++++++++OOOOOOOOOO++OOOOOO++++++++++++",
"++OOOOOOOOOO++OOOOOO++++++++++++++OOOOOOOOOO++OOOOOO++++++++++++",
"++++OOOOOO++OOOOOOOOOOOOOO++++++++++OOOOOO++OOOOOOOOOOOOOO++++++",
"++++OOOOOO++OOOOOOOOOOOOOO++++++++++OOOOOO++OOOOOOOOOOOOOO++++++",
"++++++@@@@@@++OOOOOOOO++++++++++++++++@@@@@@++OOOOOOOO++++++++++",
"++++++@@@@@@++OOOOOOOO++++++++++++++++@@@@@@++OOOOOOOO++++++++++",
"++++@@####@@@@++++++++++++++##@@++++@@####@@@@++++++++++++++##@@",
"++++@@####@@@@++++++++++++++##@@++++@@####@@@@++++++++++++++##@@",
"++++++####@@++++++++++++@@######++++++####@@++++++++++++@@######",
"++++++####@@++++++++++++@@######++++++####@@++++++++++++@@######"
};
