/* XPM */
static char *result[] = {
/* columns rows colors chars-per-pixel */
"64 64 16 1 ",
"  c black",
". c gray19",
"X c #681018",
"o c #585038",
"O c #424A4A",
"+ c #4A5252",
"@ c #4A5A5A",
"# c #705848",
"$ c #787050",
"% c #526363",
"& c #907060",
"* c #A09068",
"= c #C09878",
"- c #A0A0A0",
"; c #C0C0C0",
": c #E8E8F8",
/* pixels */
"OOOO++++++++++++++++++++++%%%%%%OOOO++++++++++++++++++++++%%%%%%",
"OOOO++++++++++++++++++++++%%%%%%OOOO++++++++++++++++++++++%%%%%%",
"OOOOOO++@@++++++++++++++++++@@OOOOOOOO++@@++++++++++++++++++@@OO",
"OOOOOO++@@++++++++++++++++++@@OOOOOOOO++@@++++++++++++++++++@@OO",
"OO++++%%%%%%%%++++++++++++++++++OO++++%%%%%%%%++++++++++++++++++",
"OO++++%%%%%%%%++++++++++++++++++OO++++%%%%%%%%++++++++++++++++++",
"++++@@%%%%%%@@@@++++++++++++++++++++@@%%%%%%@@@@++++++++++++++++",
"++++@@%%%%%%@@@@++++++++++++++++++++@@%%%%%%@@@@++++++++++++++++",
"++++++++++++++++++++++++%%%%%%++++++++++++++++++++++++++%%%%%%++",
"++++++++++++++++++++++++%%%%%%++++++++++++++++++++++++++%%%%%%++",
"@@++++++OOOOOOOO++++%%%%%%%%%%@@@@++++++OOOOOOOO++++%%%%%%%%%%@@",
"@@++++++OOOOOOOO++++%%%%%%%%%%@@@@++++++OOOOOOOO++++%%%%%%%%%%@@",
"++++++OOOOOOOOOOOO++@@  ..........++++OOOOOOOOOOOO++@@%%%%@@@@++",
"++++++OOOOOOOOOOOO++@@  ..........++++OOOOOOOOOOOO++@@%%%%@@@@++",
"@@++++++++OOOO++++  ..oo$$******$$....++++OOOO++++++++++++++%%%%",
"@@++++++++OOOO++++  ..oo$$******$$....++++OOOO++++++++++++++%%%%",
"%%%%++++++++++++  **$$oooooooooooo$$$$..  ++++++@@%%%%++++%%%%%%",
"%%%%++++++++++++  **$$oooooooooooo$$$$..  ++++++@@%%%%++++%%%%%%",
"%%%%@@OOOOOO++  **$$$$oo**********oo$$oooo  ++++++%%%%@@++@@@@%%",
"%%%%@@OOOOOO++  **$$$$oo**********oo$$oooo  ++++++%%%%@@++@@@@%%",
"@@OOOOOOOO++..$$oooooo**************oo****$$  ++++++++++++++@@@@",
"@@OOOOOOOO++..$$oooooo**************oo****$$  ++++++++++++++@@@@",
"++OOOOOOOOOO..oo****oo**************oo******..OOOOOO++++++++++++",
"++OOOOOOOOOO..oo****oo**************oo******..OOOOOO++++++++++++",
"++++OOOOOO..oo******oo**************oo******$$..OOOOOOOOOO++++++",
"++++OOOOOO..oo******oo**************oo******$$..OOOOOOOOOO++++++",
"++++++@@@@..oo****$$oo$$$$******$$$$oo******$$..OOOOOO++++++++++",
"++++++@@@@..oo****$$oo$$$$******$$$$oo******$$..OOOOOO++++++++++",
"++++@@%%  $$oo$$oooooo$$$$$$$$$$$$$$oo$$$$$$......++++++++++%%@@",
"++++@@%%  $$oo$$oooooo$$$$$$$$$$$$$$oo$$$$$$......++++++++++%%@@",
"++++++%%  **$$oo******oo$$$$$$$$$$oooooooo..&&====..++++@@%%%%%%",
"++++++%%  **$$oo******oo$$$$$$$$$$oooooooo..&&====..++++@@%%%%%%",
"OOOO++++  **$$oo******oooooooooooo****$$oo&&========..++++%%%%%%",
"OOOO++++  **$$oo******oooooooooooo****$$oo&&========..++++%%%%%%",
"OOOOOO++..$$oo$$$$**$$$$oooo......$$$$$$oo&&&&::======..++++@@OO",
"OOOOOO++..$$oo$$$$**$$$$oooo......$$$$$$oo&&&&::======..++++@@OO",
"OO++++%%%%..oo$$$$$$$$$$oo  ##====..$$$$..&&==::XX--==..++++++++",
"OO++++%%%%..oo$$$$$$$$$$oo  ##====..$$$$..&&==::XX--==..++++++++",
"++++@@%%%%..oooo$$$$oooooo  ======&&..oo..&&&&&&  &&  ++++++++++",
"++++@@%%%%..oooo$$$$oooooo  ======&&..oo..&&&&&&  &&  ++++++++++",
"++++++++++..oooooooooooooo  ====&&&&..oo....####    ++++%%%%%%++",
"++++++++++..oooooooooooooo  ====&&&&..oo....####    ++++%%%%%%++",
"@@++++++OOOO..oooooooooooo..&&&&;;  oooooo      ++++%%%%%%%%%%@@",
"@@++++++OOOO..oooooooooooo..&&&&;;  oooooo      ++++%%%%%%%%%%@@",
"++++++OOOOOO....oooooooo  ..;;&&    oooooo..OOOOOO++@@%%%%@@@@++",
"++++++OOOOOO....oooooooo  ..;;&&    oooooo..OOOOOO++@@%%%%@@@@++",
"@@++++++++OOOO++....oooo  &&....##  oo....OOOO++++++++++++++%%%%",
"@@++++++++OOOO++....oooo  &&....##  oo....OOOO++++++++++++++%%%%",
"%%%%++++++++++++@@%%......  ######--..++++++++++@@%%%%++++%%%%%%",
"%%%%++++++++++++@@%%......  ######--..++++++++++@@%%%%++++%%%%%%",
"%%%%@@OOOOOO++++++%%%%@@++@@        @@OOOOOO++++++%%%%@@++@@@@%%",
"%%%%@@OOOOOO++++++%%%%@@++@@        @@OOOOOO++++++%%%%@@++@@@@%%",
"@@OOOOOOOO++++++++++++++++++@@@@@@OOOOOOOO++++++++++++++++++@@@@",
"@@OOOOOOOO++++++++++++++++++@@@@@@OOOOOOOO++++++++++++++++++@@@@",
"++OOOOOOOOOO++OOOOOO++++++++++++++OOOOOOOOOO++OOOOOO++++++++++++",
"++OOOOOOOOOO++OOOOOO++++++++++++++OOOOOOOOOO++OOOOOO++++++++++++",
"++++OOOOOO++OOOOOOOOOOOOOO++++++++++OOOOOO++OOOOOOOOOOOOOO++++++",
"++++OOOOOO++OOOOOOOOOOOOOO++++++++++OOOOOO++OOOOOOOOOOOOOO++++++",
"++++++@@@@@@++OOOOOOOO++++++++++++++++@@@@@@++OOOOOOOO++++++++++",
"++++++@@@@@@++OOOOOOOO++++++++++++++++@@@@@@++OOOOOOOO++++++++++",
"++++@@%%%%@@@@++++++++++++++%%@@++++@@%%%%@@@@++++++++++++++%%@@",
"++++@@%%%%@@@@++++++++++++++%%@@++++@@%%%%@@@@++++++++++++++%%@@",
"++++++%%%%@@++++++++++++@@%%%%%%++++++%%%%@@++++++++++++@@%%%%%%",
"++++++%%%%@@++++++++++++@@%%%%%%++++++%%%%@@++++++++++++@@%%%%%%"
};
