/* XPM */
static char *result[] = {
/* columns rows colors chars-per-pixel */
"64 64 16 1 ",
"  c black",
". c gray19",
"X c #681018",
"o c #585038",
"O c #424A4A",
"+ c #4A5252",
"@ c #4A5A5A",
"# c #705848",
"$ c #787050",
"% c #526363",
"& c #907060",
"* c #A09068",
"= c #C09878",
"- c #989898",
"; c #C0C0C0",
": c #E8E8F8",
/* pixels */
"OOOO++++++++++++++++++++++%%%%%%OOOO++++++++++++++++++++++%%%%%%",
"OOOO++++++++++++++++++++++%%%%%%OOOO++++++++++++++++++++++%%%%%%",
"OOOOOO++@@++++++++++++++++++@@OOOOOOOO++@@++++++++++++++++++@@OO",
"OOOOOO++@@++++++++++++++++++@@OOOOOOOO++@@++++++++++++++++++@@OO",
"OO++++%%%%%%%%++++++++++++++++++OO++++%%%%%%%%++++++++++++++++++",
"OO++++%%%%%%%%++++++++++++++++++OO++++%%%%%%%%++++++++++++++++++",
"++++@@%%%%%%@@@@++++++++++++++++++++@@%%%%%%@@@@++++++++++++++++",
"++++@@%%%%%%@@@@++++++++++++++++++++@@%%%%%%@@@@++++++++++++++++",
"++++++++++++++++++++++++%%%%%%++++++++++++++++++++++++++%%%%%%++",
"++++++++++++++++++++++++%%%%%%++++++++++++++++++++++++++%%%%%%++",
"@@++++++OOOOOOOO++++%%%%%%%%%%@@@@++++++OOOOOOOO++++%%%%%%%%%%@@",
"@@++++++OOOOOOOO++++%%%%%%%%%%@@@@++++++OOOOOOOO++++%%%%%%%%%%@@",
"++++++OOOOOOOOOOOO++@@%%......++......OOOOOOOOOOOO++@@%%%%@@@@++",
"++++++OOOOOOOOOOOO++@@%%......++......OOOOOOOOOOOO++@@%%%%@@@@++",
"@@++++++++OOOO++++++....****$$..$$****....OOOO++++++++++++++%%%%",
"@@++++++++OOOO++++++....****$$..$$****....OOOO++++++++++++++%%%%",
"%%%%++++++++++++@@..**********oo**********..++++@@%%%%++++%%%%%%",
"%%%%++++++++++++@@..**********oo**********..++++@@%%%%++++%%%%%%",
"%%%%@@OOOOOO++++  $$**********oo**********$$  ++++%%%%@@++@@@@%%",
"%%%%@@OOOOOO++++  $$**********oo**********$$  ++++%%%%@@++@@@@%%",
"@@OOOOOOOO++++  $$oo****$$oooo$$oooo$$****oo$$  ++++++++++++@@@@",
"@@OOOOOOOO++++  $$oo****$$oooo$$oooo$$****oo$$  ++++++++++++@@@@",
"++OOOOOOOOOO++  $$$$oooooo$$******$$oooooo$$$$  OOOO++++++++++++",
"++OOOOOOOOOO++  $$$$oooooo$$******$$oooooo$$$$  OOOO++++++++++++",
"++++OOOOOO++  oooo****oo$$**********$$oo****oooo  OOOOOOOO++++++",
"++++OOOOOO++  oooo****oo$$**********$$oo****oooo  OOOOOOOO++++++",
"++++++@@@@@@  oo******$$$$**********$$$$******oo....OO++++++++++",
"++++++@@@@@@  oo******$$$$**********$$$$******oo....OO++++++++++",
"++++@@%%%%....oo****$$oo$$          $$oo$$****..&&&&..++++++%%@@",
"++++@@%%%%....oo****$$oo$$          $$oo$$****..&&&&..++++++%%@@",
"++++++%%..&&&&..$$$$oooo  &&======&&  oooo$$$$  ====..++@@%%%%%%",
"++++++%%..&&&&..$$$$oooo  &&======&&  oooo$$$$  ====..++@@%%%%%%",
"OOOO++++..====  oooooo  &&==========&&  oooooo  ##==&&..++%%%%%%",
"OOOO++++..====  oooooo  &&==========&&  oooooo  ##==&&..++%%%%%%",
"OOOOOO..&&==##  oo****  &&==========&&  ****oo  ;;&&&&..++++@@OO",
"OOOOOO..&&==##  oo****  &&==========&&  ****oo  ;;&&&&..++++@@OO",
"OO++++..&&&&;;  **$$$$  ;;&&======&&;;  $$$$**..  ..;;..++++++++",
"OO++++..&&&&;;  **$$$$  ;;&&======&&;;  $$$$**..  ..;;..++++++++",
"++++@@..;;..  ..oo$$oo  ::XX======XX::  oo$$oo..++  ..++++++++++",
"++++@@..;;..  ..oo$$oo  ::XX======XX::  oo$$oo..++  ..++++++++++",
"++++++++..  ++....oooo  &&  &&==&&  &&  oooo....++++++++%%%%%%++",
"++++++++..  ++....oooo  &&  &&==&&  &&  oooo....++++++++%%%%%%++",
"@@++++++OOOO  ####  oooo  ##########  oooo  ##..++++%%%%%%%%%%@@",
"@@++++++OOOO  ####  oooo  ##########  oooo  ##..++++%%%%%%%%%%@@",
"++++++OOOOOO  &&####..oooo..      ..oooo  ######..++@@%%%%@@@@++",
"++++++OOOOOO  &&####..oooo..      ..oooo  ######..++@@%%%%@@@@++",
"@@++++++++OO  --&&--      oooooooooo    ..####&&  ++++++++++%%%%",
"@@++++++++OO  --&&--      oooooooooo    ..####&&  ++++++++++%%%%",
"%%%%++++++++++      %%++++          ++++  --&&--  %%%%++++%%%%%%",
"%%%%++++++++++      %%++++          ++++  --&&--  %%%%++++%%%%%%",
"%%%%@@OOOOOO++++++%%%%@@++@@@@%%%%%%@@OOOO      ++%%%%@@++@@@@%%",
"%%%%@@OOOOOO++++++%%%%@@++@@@@%%%%%%@@OOOO      ++%%%%@@++@@@@%%",
"@@OOOOOOOO++++++++++++++++++@@@@@@OOOOOOOO++++++++++++++++++@@@@",
"@@OOOOOOOO++++++++++++++++++@@@@@@OOOOOOOO++++++++++++++++++@@@@",
"++OOOOOOOOOO++OOOOOO++++++++++++++OOOOOOOOOO++OOOOOO++++++++++++",
"++OOOOOOOOOO++OOOOOO++++++++++++++OOOOOOOOOO++OOOOOO++++++++++++",
"++++OOOOOO++OOOOOOOOOOOOOO++++++++++OOOOOO++OOOOOOOOOOOOOO++++++",
"++++OOOOOO++OOOOOOOOOOOOOO++++++++++OOOOOO++OOOOOOOOOOOOOO++++++",
"++++++@@@@@@++OOOOOOOO++++++++++++++++@@@@@@++OOOOOOOO++++++++++",
"++++++@@@@@@++OOOOOOOO++++++++++++++++@@@@@@++OOOOOOOO++++++++++",
"++++@@%%%%@@@@++++++++++++++%%@@++++@@%%%%@@@@++++++++++++++%%@@",
"++++@@%%%%@@@@++++++++++++++%%@@++++@@%%%%@@@@++++++++++++++%%@@",
"++++++%%%%@@++++++++++++@@%%%%%%++++++%%%%@@++++++++++++@@%%%%%%",
"++++++%%%%@@++++++++++++@@%%%%%%++++++%%%%@@++++++++++++@@%%%%%%"
};
