/* XPM */
static char *result[] = {
/* columns rows colors chars-per-pixel */
"64 64 15 1 ",
"  c black",
". c #381858",
"X c #103840",
"o c #383850",
"O c #424A4A",
"+ c #4A5252",
"@ c #4A5A5A",
"# c #526363",
"$ c #407078",
"% c #604080",
"& c #8860B8",
"* c #489098",
"= c #50B8B0",
"- c #B8B8C0",
"; c #E8E8F8",
/* pixels */
"OOOO++++++++++++++++++++++######OOOO++++++++++++++++++++++######",
"OOOO++++++++++++++++++++++######OOOO++++++++++++++++++++++######",
"OOOOOO++@@++++++++++++++++++@@OOOOOOOO++@@++++++++++++++++++@@OO",
"OOOOOO++@@++++++++++++++++++@@OOOOOOOO++@@++++++++++++++++++@@OO",
"OO++++########++++++++++++++++++OO++++########++++++++++++++++++",
"OO++++########++++++++++++++++++OO++++########++++++++++++++++++",
"++++@@######@@@@++++++++++++++++++++@@######@@@@++++++++++++++++",
"++++@@######@@@@++++++++++++++++++++@@######@@@@++++++++++++++++",
"++++++++++++++++++++++++######++++++++++++++++++++++++++######++",
"++++++++++++++++++++++++######++++++++++++++++++++++++++######++",
"@@XXXXXXOOOOOOOO++++##########@@@@++++++OOOOOOOO++++####XXXXXX@@",
"@@XXXXXXOOOOOOOO++++##########@@@@++++++OOOOOOOO++++####XXXXXX@@",
"XX======XXOOOOOOOO++@@####@@@@++++++++OOOOOOOOOOOO++@@XX======XX",
"XX======XXOOOOOOOO++@@####@@@@++++++++OOOOOOOOOOOO++@@XX======XX",
"XX======XXXXXX++++++++++++++####@@++++++++OOOO++++XXXXXX======XX",
"XX======XXXXXX++++++++++++++####@@++++++++OOOO++++XXXXXX======XX",
"##XX..&&======XX@@####++  XX########XX  ++++++++XX======&&..XX##",
"##XX..&&======XX@@####++  XX########XX  ++++++++XX======&&..XX##",
"####..&&&&&&%%==XX####  ==XXXXXXXXXXXX==  OO++XX==%%&&&&&&..@@##",
"####..&&&&&&%%==XX####  ==XXXXXXXXXXXX==  OO++XX==%%&&&&&&..@@##",
"@@OOOO..%%%%&&==XX++++  &&$$========$$&&  ++++XX==&&%%%%..++@@@@",
"@@OOOO..%%%%&&==XX++++  &&$$========$$&&  ++++XX==&&%%%%..++@@@@",
"++OOOO..&&&&&&**XXOO  **&&============&&**  ++XX**&&&&&&..++++++",
"++OOOO..&&&&&&**XXOO  **&&============&&**  ++XX**&&&&&&..++++++",
"++++OO..&&&&&&**XXOO  **================**  OOXX**&&&&&&..++++++",
"++++OO..&&&&&&**XXOO  **================**  OOXX**&&&&&&..++++++",
"++++++@@....&&%%**XX  ;;================;;  XX**%%&&....++++++++",
"++++++@@....&&%%**XX  ;;================;;  XX**%%&&....++++++++",
"++++@@##....%%%%$$**  --XX;;========;;XX--  **$$%%%%....++++##@@",
"++++@@##....%%%%$$**  --XX;;========;;XX--  **$$%%%%....++++##@@",
"++++++##....%%%%%%$$$$********************$$$$%%%%%%....@@######",
"++++++##....%%%%%%$$$$********************$$$$%%%%%%....@@######",
"OOOO++++......%%%%%%%%**oo;;        ;;oo**%%%%%%%%......++######",
"OOOO++++......%%%%%%%%**oo;;        ;;oo**%%%%%%%%......++######",
"OOOOOO++@@++++....%%XX$$                $$XX%%....++++++++++@@OO",
"OOOOOO++@@++++....%%XX$$                $$XX%%....++++++++++@@OO",
"OO++++########....%%XX$$                $$XX%%....++++++++++++++",
"OO++++########....%%XX$$                $$XX%%....++++++++++++++",
"++++@@######@@@@++..  $$    oooooooo    $$  ..@@++++++++++++++++",
"++++@@######@@@@++..  $$    oooooooo    $$  ..@@++++++++++++++++",
"++++++++++++++++++++  $$oooooooooooooooo$$  ++++++++++++######++",
"++++++++++++++++++++  $$oooooooooooooooo$$  ++++++++++++######++",
"@@++++++OOOOOOOO++++##  $$--oooooooo--$$  OOOOOO++++##########@@",
"@@++++++OOOOOOOO++++##  $$--oooooooo--$$  OOOOOO++++##########@@",
"++++++OOOOOOOOOOOO++@@XX  $$$$$$$$$$$$  XXOOOOOOOO++@@####@@@@++",
"++++++OOOOOOOOOOOO++@@XX  $$$$$$$$$$$$  XXOOOOOOOO++@@####@@@@++",
"@@++++++++OOOO++++++++XX$$            $$XXOOOO++++++++++++++####",
"@@++++++++OOOO++++++++XX$$            $$XXOOOO++++++++++++++####",
"####++++++++++++@@####XX$$XX########XX$$XX++++++@@####++++######",
"####++++++++++++@@####XX$$XX########XX$$XX++++++@@####++++######",
"####@@OOOOOO++++++####@@XX@@@@######@@XXOOOO++++++####@@++@@@@##",
"####@@OOOOOO++++++####@@XX@@@@######@@XXOOOO++++++####@@++@@@@##",
"@@OOOOOOOO++++++++++++++++++@@@@@@OOOOOOOO++++++++++++++++++@@@@",
"@@OOOOOOOO++++++++++++++++++@@@@@@OOOOOOOO++++++++++++++++++@@@@",
"++OOOOOOOOOO++OOOOOO++++++++++++++OOOOOOOOOO++OOOOOO++++++++++++",
"++OOOOOOOOOO++OOOOOO++++++++++++++OOOOOOOOOO++OOOOOO++++++++++++",
"++++OOOOOO++OOOOOOOOOOOOOO++++++++++OOOOOO++OOOOOOOOOOOOOO++++++",
"++++OOOOOO++OOOOOOOOOOOOOO++++++++++OOOOOO++OOOOOOOOOOOOOO++++++",
"++++++@@@@@@++OOOOOOOO++++++++++++++++@@@@@@++OOOOOOOO++++++++++",
"++++++@@@@@@++OOOOOOOO++++++++++++++++@@@@@@++OOOOOOOO++++++++++",
"++++@@####@@@@++++++++++++++##@@++++@@####@@@@++++++++++++++##@@",
"++++@@####@@@@++++++++++++++##@@++++@@####@@@@++++++++++++++##@@",
"++++++####@@++++++++++++@@######++++++####@@++++++++++++@@######",
"++++++####@@++++++++++++@@######++++++####@@++++++++++++@@######"
};
