/* XPM */
static char *result[] = {
/* columns rows colors chars-per-pixel */
"64 64 15 1 ",
"  c black",
". c #381858",
"X c #103840",
"o c #383850",
"O c #424A4A",
"+ c #4A5252",
"@ c #4A5A5A",
"# c #526363",
"$ c #407078",
"% c #604080",
"& c #8860B8",
"* c #489098",
"= c #50B8B0",
"- c #B8B8C0",
"; c #E8E8F8",
/* pixels */
"OOOO++++++++++++++++++++++######OOOO++++++++++++++++++++++######",
"OOOO++++++++++++++++++++++######OOOO++++++++++++++++++++++######",
"OOOOOO++@@++++++++++++++++++@@OOOOOOOO++@@++++++++++++++++++@@OO",
"OOOOOO++@@++++++++++++++++++@@OOOOOOOO++@@++++++++++++++++++@@OO",
"OO++++########++++++++++++++++++OO++++########++++++++++++++++++",
"OO++++########++++++++++++++++++OO++++########++++++++++++++++++",
"++++@@######@@@@++++++++++++++++++++@@######@@@@++++++++++++++++",
"++++@@######@@@@++++++++++++++++++++@@######@@@@++++++++++++++++",
"++++++++++++++++++++++++######++++++++++++++++++++++++++######++",
"++++++++++++++++++++++++######++++++++++++++++++++++++++######++",
"@@++++++OOOOOOOO++++##########@@@@++XXXXXXXXXXOO++++##########@@",
"@@++++++OOOOOOOO++++##########@@@@++XXXXXXXXXXOO++++##########@@",
"++++++OOOOOOOOOOOO++@@####@@@@++XXXX$$$$$$XXOOOOOO++@@####@@@@++",
"++++++OOOOOOOOOOOO++@@####@@@@++XXXX$$$$$$XXOOOOOO++@@####@@@@++",
"@@++++++++OOOO++++XXXXXX++++##XX$$%%%%%%..OOOO++++++++++++++####",
"@@++++++++OOOO++++XXXXXX++++##XX$$%%%%%%..OOOO++++++++++++++####",
"####++++++++++XXXX****$$XX####XX$$%%%%%%XXXXXXXXXXXX##++++######",
"####++++++++++XXXX****$$XX####XX$$%%%%%%XXXXXXXXXXXX##++++######",
"####@@OOOOOOXX====****    @@@@XX%%      ==========**XX@@++@@@@##",
"####@@OOOOOOXX====****    @@@@XX%%      ==========**XX@@++@@@@##",
"@@OOOOOOOO++XX====****    ++@@XX%%      ==========**XX++++++@@@@",
"@@OOOOOOOO++XX====****    ++@@XX%%      ==========**XX++++++@@@@",
"++OOOOOOOOXX======    ====  XX$$  ======&&&&&&&&..OO++++++++++++",
"++OOOOOOOOXX======    ====  XX$$  ======&&&&&&&&..OO++++++++++++",
"++++OOOOOOXX==========&&==XXXX$$  ==$$$$&&&&&&..OOOOOOOOOO++++++",
"++++OOOOOOXX==========&&==XXXX$$  ==$$$$&&&&&&..OOOOOOOOOO++++++",
"++++++@@@@XX====;;======**$$XXXX  **%%%%&&&&%%..OOOOOO++++++++++",
"++++++@@@@XX====;;======**$$XXXX  **%%%%&&&&%%..OOOOOO++++++++++",
"++++@@####XX--XX--====****$$$$XX**$$&&&&%%&&..++++++++++++++##@@",
"++++@@####XX--XX--====****$$$$XX**$$&&&&%%&&..++++++++++++++##@@",
"++++++####@@XX**********$$$$$$XX**%%&&&&&&%%..++++++++++@@######",
"++++++####@@XX**********$$$$$$XX**%%&&&&&&%%..++++++++++@@######",
"OOOO++++++++  ;;  $$$$$$$$XXXX**%%%%%%%%&&&&..++++++++++++######",
"OOOO++++++++  ;;  $$$$$$$$XXXX**%%%%%%%%&&&&..++++++++++++######",
"OOOOOO++@@++          $$$$$$**%%%%%%%%%%......++++++++++++++@@OO",
"OOOOOO++@@++          $$$$$$**%%%%%%%%%%......++++++++++++++@@OO",
"OO++++######          $$$$$$**%%%%%%%%%%......++++++++++++++++++",
"OO++++######          $$$$$$**%%%%%%%%%%......++++++++++++++++++",
"++++@@######  oo      $$$$$$%%%%%%......####@@@@++++++++++++++++",
"++++@@######  oo      $$$$$$%%%%%%......####@@@@++++++++++++++++",
"++++++++++++++oooo    $$$$$$..%%..++++++++++++++++++++++######++",
"++++++++++++++oooo    $$$$$$..%%..++++++++++++++++++++++######++",
"@@++++++OOOOOO  oo    $$$$$$..    ++++++OOOOOOOO++++##########@@",
"@@++++++OOOOOO  oo    $$$$$$..    ++++++OOOOOOOO++++##########@@",
"++++++OOOOOOOO  --    $$$$$$$$XX++++++OOOOOOOOOOOO++@@####@@@@++",
"++++++OOOOOOOO  --    $$$$$$$$XX++++++OOOOOOOOOOOO++@@####@@@@++",
"@@++++++++OOOO++  $$$$$$$$$$  ##@@++++++++OOOO++++++++++++++####",
"@@++++++++OOOO++  $$$$$$$$$$  ##@@++++++++OOOO++++++++++++++####",
"####++++++++++++@@          $$XX####++++++++++++@@####++++######",
"####++++++++++++@@          $$XX####++++++++++++@@####++++######",
"####@@OOOOOO++++++####XX$$$$XXXX####@@OOOOOO++++++####@@++@@@@##",
"####@@OOOOOO++++++####XX$$$$XXXX####@@OOOOOO++++++####@@++@@@@##",
"@@OOOOOOOO++++++++++++XXXXXX@@@@@@OOOOOOOO++++++++++++++++++@@@@",
"@@OOOOOOOO++++++++++++XXXXXX@@@@@@OOOOOOOO++++++++++++++++++@@@@",
"++OOOOOOOOOO++OOOOOO++++++++++++++OOOOOOOOOO++OOOOOO++++++++++++",
"++OOOOOOOOOO++OOOOOO++++++++++++++OOOOOOOOOO++OOOOOO++++++++++++",
"++++OOOOOO++OOOOOOOOOOOOOO++++++++++OOOOOO++OOOOOOOOOOOOOO++++++",
"++++OOOOOO++OOOOOOOOOOOOOO++++++++++OOOOOO++OOOOOOOOOOOOOO++++++",
"++++++@@@@@@++OOOOOOOO++++++++++++++++@@@@@@++OOOOOOOO++++++++++",
"++++++@@@@@@++OOOOOOOO++++++++++++++++@@@@@@++OOOOOOOO++++++++++",
"++++@@####@@@@++++++++++++++##@@++++@@####@@@@++++++++++++++##@@",
"++++@@####@@@@++++++++++++++##@@++++@@####@@@@++++++++++++++##@@",
"++++++####@@++++++++++++@@######++++++####@@++++++++++++@@######",
"++++++####@@++++++++++++@@######++++++####@@++++++++++++@@######"
};
