/* XPM */
static char *result[] = {
/* columns rows colors chars-per-pixel */
"64 64 16 1 ",
"  c black",
". c gray19",
"X c #681018",
"o c #585038",
"O c #424A4A",
"+ c #4A5252",
"@ c #4A5A5A",
"# c #705848",
"$ c #787050",
"% c #526363",
"& c #907060",
"* c #A09068",
"= c #C09878",
"- c #A0A0A0",
"; c #C0C0C0",
": c #E8E8F8",
/* pixels */
"OOOO++++++++++++++++++++++%%%%%%OOOO++++++++++++++++++++++%%%%%%",
"OOOO++++++++++++++++++++++%%%%%%OOOO++++++++++++++++++++++%%%%%%",
"OOOOOO++@@++++++++++++++++++@@OOOOOOOO++@@++++++++++++++++++@@OO",
"OOOOOO++@@++++++++++++++++++@@OOOOOOOO++@@++++++++++++++++++@@OO",
"OO++++%%%%%%%%++++++++++++++++++OO++++%%%%%%%%++++++++++++++++++",
"OO++++%%%%%%%%++++++++++++++++++OO++++%%%%%%%%++++++++++++++++++",
"++++@@%%%%%%@@@@++++++++++++++++++++@@%%%%%%@@@@++++++++++++++++",
"++++@@%%%%%%@@@@++++++++++++++++++++@@%%%%%%@@@@++++++++++++++++",
"++++++++++++++++++++++++%%%%%%++++++++++++++++++++++++++%%%%%%++",
"++++++++++++++++++++++++%%%%%%++++++++++++++++++++++++++%%%%%%++",
"@@++++++OOOOOOOO++++%%%%%%%%%%@@@@++++++OOOOOOOO++++%%%%%%%%%%@@",
"@@++++++OOOOOOOO++++%%%%%%%%%%@@@@++++++OOOOOOOO++++%%%%%%%%%%@@",
"++++++OOOOOOOOOOOO++@@%%%%@@@@..........  OOOOOOOO++@@%%%%@@@@++",
"++++++OOOOOOOOOOOO++@@%%%%@@@@..........  OOOOOOOO++@@%%%%@@@@++",
"@@++++++++OOOO++++++++++++....$$******$$oo..  ++++++++++++++%%%%",
"@@++++++++OOOO++++++++++++....$$******$$oo..  ++++++++++++++%%%%",
"%%%%++++++++++++@@%%%%  ..$$$$oooooooooooo$$**  @@%%%%++++%%%%%%",
"%%%%++++++++++++@@%%%%  ..$$$$oooooooooooo$$**  @@%%%%++++%%%%%%",
"%%%%@@OOOOOO++++++%%  oooo$$oo**********oo$$$$**  %%%%@@++@@@@%%",
"%%%%@@OOOOOO++++++%%  oooo$$oo**********oo$$$$**  %%%%@@++@@@@%%",
"@@OOOOOOOO++++++++  $$****oo**************oooooo$$..++++++++@@@@",
"@@OOOOOOOO++++++++  $$****oo**************oooooo$$..++++++++@@@@",
"++OOOOOOOOOO++OOOO..******oo**************oo****oo..++++++++++++",
"++OOOOOOOOOO++OOOO..******oo**************oo****oo..++++++++++++",
"++++OOOOOO++OOOO..$$******oo**************oo******oo..OOOO++++++",
"++++OOOOOO++OOOO..$$******oo**************oo******oo..OOOO++++++",
"++++++@@@@@@++OO..$$******oo$$$$******$$$$oo$$****oo..++++++++++",
"++++++@@@@@@++OO..$$******oo$$$$******$$$$oo$$****oo..++++++++++",
"++++@@%%%%@@@@......$$$$$$oo$$$$$$$$$$$$$$oooooo$$oo$$  ++++%%@@",
"++++@@%%%%@@@@......$$$$$$oo$$$$$$$$$$$$$$oooooo$$oo$$  ++++%%@@",
"++++++%%%%@@..====&&..oooooooo$$$$$$$$$$oo******oo$$**  @@%%%%%%",
"++++++%%%%@@..====&&..oooooooo$$$$$$$$$$oo******oo$$**  @@%%%%%%",
"OOOO++++++..========&&oo$$****oooooooooooo******oo$$**  ++%%%%%%",
"OOOO++++++..========&&oo$$****oooooooooooo******oo$$**  ++%%%%%%",
"OOOOOO++..======::&&&&oo$$$$$$......oooo$$$$**$$$$oo$$..++++@@OO",
"OOOOOO++..======::&&&&oo$$$$$$......oooo$$$$**$$$$oo$$..++++@@OO",
"OO++++%%..==--XX::==&&..$$$$..====##  oo$$$$$$$$$$oo..++++++++++",
"OO++++%%..==--XX::==&&..$$$$..====##  oo$$$$$$$$$$oo..++++++++++",
"++++@@%%%%  &&  &&&&&&..oo..&&======  oooooo$$$$oooo..++++++++++",
"++++@@%%%%  &&  &&&&&&..oo..&&======  oooooo$$$$oooo..++++++++++",
"++++++++++++    ####....oo..&&&&====  oooooooooooooo..++%%%%%%++",
"++++++++++++    ####....oo..&&&&====  oooooooooooooo..++%%%%%%++",
"@@++++++OOOOOOOO      oooooo  ;;&&&&..oooooooooooo..%%%%%%%%%%@@",
"@@++++++OOOOOOOO      oooooo  ;;&&&&..oooooooooooo..%%%%%%%%%%@@",
"++++++OOOOOOOOOOOO++..oooooo    &&;;..  oooooooo....@@%%%%@@@@++",
"++++++OOOOOOOOOOOO++..oooooo    &&;;..  oooooooo....@@%%%%@@@@++",
"@@++++++++OOOO++++++++....oo  ##....&&  oooo....++++++++++++%%%%",
"@@++++++++OOOO++++++++....oo  ##....&&  oooo....++++++++++++%%%%",
"%%%%++++++++++++@@%%%%++++..--######  ......++++@@%%%%++++%%%%%%",
"%%%%++++++++++++@@%%%%++++..--######  ......++++@@%%%%++++%%%%%%",
"%%%%@@OOOOOO++++++%%%%@@++@@        @@OOOOOO++++++%%%%@@++@@@@%%",
"%%%%@@OOOOOO++++++%%%%@@++@@        @@OOOOOO++++++%%%%@@++@@@@%%",
"@@OOOOOOOO++++++++++++++++++@@@@@@OOOOOOOO++++++++++++++++++@@@@",
"@@OOOOOOOO++++++++++++++++++@@@@@@OOOOOOOO++++++++++++++++++@@@@",
"++OOOOOOOOOO++OOOOOO++++++++++++++OOOOOOOOOO++OOOOOO++++++++++++",
"++OOOOOOOOOO++OOOOOO++++++++++++++OOOOOOOOOO++OOOOOO++++++++++++",
"++++OOOOOO++OOOOOOOOOOOOOO++++++++++OOOOOO++OOOOOOOOOOOOOO++++++",
"++++OOOOOO++OOOOOOOOOOOOOO++++++++++OOOOOO++OOOOOOOOOOOOOO++++++",
"++++++@@@@@@++OOOOOOOO++++++++++++++++@@@@@@++OOOOOOOO++++++++++",
"++++++@@@@@@++OOOOOOOO++++++++++++++++@@@@@@++OOOOOOOO++++++++++",
"++++@@%%%%@@@@++++++++++++++%%@@++++@@%%%%@@@@++++++++++++++%%@@",
"++++@@%%%%@@@@++++++++++++++%%@@++++@@%%%%@@@@++++++++++++++%%@@",
"++++++%%%%@@++++++++++++@@%%%%%%++++++%%%%@@++++++++++++@@%%%%%%",
"++++++%%%%@@++++++++++++@@%%%%%%++++++%%%%@@++++++++++++@@%%%%%%"
};
