/* XPM */
static char * Collectible_xpm[] = {
"64 64 439 2",
"  	c None",
". 	c #AFB86D",
"+ 	c #A8AD60",
"@ 	c #C9D278",
"# 	c #DAE57A",
"$ 	c #E4E98B",
"% 	c #999860",
"& 	c #B8BF72",
"* 	c #AEB54F",
"= 	c #E1E67F",
"- 	c #CFCE7B",
"; 	c #83824A",
"> 	c #060606",
", 	c #999C4D",
"' 	c #C8C872",
") 	c #ADA962",
"! 	c #ACA878",
"~ 	c #312D20",
"{ 	c #101010",
"] 	c #FFFFFF",
"^ 	c #ACA480",
"/ 	c #635441",
"( 	c #1F140C",
"_ 	c #231D1A",
": 	c #0D0D0D",
"< 	c #969F77",
"[ 	c #A8B485",
"} 	c #FCF7F4",
"| 	c #FFFDFA",
"1 	c #7D7462",
"2 	c #20180C",
"3 	c #30202A",
"4 	c #0E010F",
"5 	c #030004",
"6 	c #E4EA94",
"7 	c #F8F8D5",
"8 	c #FDFBEA",
"9 	c #FFFFE4",
"0 	c #E6E6B4",
"a 	c #E3EC9B",
"b 	c #1E1A00",
"c 	c #9C967C",
"d 	c #DBDBBF",
"e 	c #1B1E0C",
"f 	c #29252D",
"g 	c #01000E",
"h 	c #E0E763",
"i 	c #ECF076",
"j 	c #FFFFDC",
"k 	c #FFFBF3",
"l 	c #FFFCE6",
"m 	c #FFFFC8",
"n 	c #DBE874",
"o 	c #D7E26C",
"p 	c #97944F",
"q 	c #3C3B1E",
"r 	c #1F2115",
"s 	c #0C0D12",
"t 	c #040814",
"u 	c #D4E357",
"v 	c #F0FA52",
"w 	c #E4E85D",
"x 	c #FFFFD1",
"y 	c #FBF1E5",
"z 	c #CDC2A6",
"A 	c #FFFFC1",
"B 	c #E5EF72",
"C 	c #E0EA65",
"D 	c #A39C42",
"E 	c #342500",
"F 	c #281D0B",
"G 	c #251F1C",
"H 	c #050605",
"I 	c #DCEC8B",
"J 	c #D5E762",
"K 	c #D7DB52",
"L 	c #E1DF72",
"M 	c #FFF5CB",
"N 	c #8D806D",
"O 	c #958963",
"P 	c #FFFFB8",
"Q 	c #E1EC61",
"R 	c #E8F05C",
"S 	c #E0D36A",
"T 	c #C5B174",
"U 	c #837262",
"V 	c #221617",
"W 	c #040500",
"X 	c #AAA873",
"Y 	c #AAB17F",
"Z 	c #242900",
"` 	c #2C2100",
" .	c #312100",
"..	c #41311A",
"+.	c #9B8C6F",
"@.	c #C0B37F",
"#.	c #E7E382",
"$.	c #E7EE52",
"%.	c #E4E945",
"&.	c #EBDA64",
"*.	c #C5AA63",
"=.	c #7E6851",
"-.	c #1E1010",
";.	c #171713",
">.	c #D3D6AD",
",.	c #D0CC90",
"'.	c #B8B25C",
").	c #A7A359",
"!.	c #202005",
"~.	c #1D1C17",
"{.	c #6F605B",
"].	c #B7A493",
"^.	c #54471D",
"/.	c #A09555",
"(.	c #938733",
"_.	c #E5DE6A",
":.	c #F0F553",
"<.	c #F1EF4C",
"[.	c #EDD760",
"}.	c #CCAE65",
"|.	c #9F856A",
"1.	c #22110F",
"2.	c #151512",
"3.	c #E7ECCB",
"4.	c #FDFDBF",
"5.	c #D8D581",
"6.	c #E8DC6A",
"7.	c #B9AE52",
"8.	c #211C06",
"9.	c #211F20",
"0.	c #756D58",
"a.	c #B5AC75",
"b.	c #EAE884",
"c.	c #E8E769",
"d.	c #E0D754",
"e.	c #E8DF52",
"f.	c #E7E248",
"g.	c #F9EE5E",
"h.	c #C9AD40",
"i.	c #BD9C55",
"j.	c #C2AA88",
"k.	c #2A1C14",
"l.	c #080308",
"m.	c #E4EEA7",
"n.	c #F6FDC7",
"o.	c #FFFFD0",
"p.	c #EEE78C",
"q.	c #EAD868",
"r.	c #D7C66C",
"s.	c #272205",
"t.	c #1B180F",
"u.	c #1E1900",
"v.	c #79773A",
"w.	c #82841F",
"x.	c #E6E66A",
"y.	c #F5EC63",
"z.	c #F3E457",
"A.	c #F2E559",
"B.	c #EAD659",
"C.	c #CBAD4B",
"D.	c #C7A867",
"E.	c #AF9A7B",
"F.	c #2E2218",
"G.	c #0B070B",
"H.	c #04010A",
"I.	c #808A3D",
"J.	c #E0E78A",
"K.	c #FFFFBE",
"L.	c #FFFFC3",
"M.	c #BFB55E",
"N.	c #A68E38",
"O.	c #EDD58D",
"P.	c #E2D9AE",
"Q.	c #383718",
"R.	c #282802",
"S.	c #1C1D00",
"T.	c #242200",
"U.	c #494307",
"V.	c #C4B24E",
"W.	c #F7DE68",
"X.	c #F4DA69",
"Y.	c #DFC45D",
"Z.	c #CDAD58",
"`.	c #9F824A",
" +	c #948172",
".+	c #261D23",
"++	c #130C14",
"@+	c #AEB25D",
"#+	c #E9EE7A",
"$+	c #F1F18D",
"%+	c #E8E888",
"&+	c #DFDD76",
"*+	c #C6BC5A",
"=+	c #A28736",
"-+	c #B99D5C",
";+	c #5C5020",
">+	c #272400",
",+	c #B0B187",
"'+	c #A8A987",
")+	c #41402E",
"!+	c #473E1D",
"~+	c #C4AE59",
"{+	c #B2922B",
"]+	c #B7943A",
"^+	c #B79443",
"/+	c #AA8944",
"(+	c #A08558",
"_+	c #91837A",
":+	c #1F1820",
"<+	c #0A050C",
"[+	c #AEAF52",
"}+	c #EBED65",
"|+	c #EDEE64",
"1+	c #EEF061",
"2+	c #EEF05E",
"3+	c #EAE35F",
"4+	c #A48C2C",
"5+	c #A88B49",
"6+	c #433005",
"7+	c #271F00",
"8+	c #C2C290",
"9+	c #A8AB7C",
"0+	c #202304",
"a+	c #474012",
"b+	c #C3AB53",
"c+	c #C6A443",
"d+	c #A67E38",
"e+	c #A37A44",
"f+	c #A48252",
"g+	c #A38B69",
"h+	c #564C42",
"i+	c #1F1A1E",
"j+	c #0B080F",
"k+	c #BEB95B",
"l+	c #E5E050",
"m+	c #F2ED53",
"n+	c #EBE946",
"o+	c #EDF049",
"p+	c #F0EB59",
"q+	c #F2DC76",
"r+	c #9E8238",
"s+	c #9C884D",
"t+	c #7E7437",
"u+	c #787832",
"v+	c #1F2500",
"w+	c #262C00",
"x+	c #CFCD83",
"y+	c #F4DD77",
"z+	c #E1BD5C",
"A+	c #C89C5F",
"B+	c #AF835C",
"C+	c #9D7957",
"D+	c #533920",
"E+	c #23190D",
"F+	c #1B1A16",
"G+	c #040205",
"H+	c #040A11",
"I+	c #B5AC51",
"J+	c #E6DA54",
"K+	c #F8ED57",
"L+	c #EBE545",
"M+	c #F2F350",
"N+	c #EAE758",
"O+	c #A08D27",
"P+	c #A08832",
"Q+	c #BAAA48",
"R+	c #B6AF45",
"S+	c #B2B449",
"T+	c #70760A",
"U+	c #5C6600",
"V+	c #E2E36B",
"W+	c #FCE969",
"X+	c #E4C457",
"Y+	c #C9A05E",
"Z+	c #AB7F58",
"`+	c #9A7356",
" @	c #563A25",
".@	c #292011",
"+@	c #1D1D15",
"@@	c #000000",
"#@	c #03090C",
"$@	c #211C0C",
"%@	c #B8A761",
"&@	c #CCB649",
"*@	c #E5D050",
"=@	c #F9EA5B",
"-@	c #EBE84F",
";@	c #EBE859",
">@	c #948413",
",@	c #DAC558",
"'@	c #F7EA68",
")@	c #EEE85E",
"!@	c #E4E45E",
"~@	c #EBEF66",
"{@	c #E5F15D",
"]@	c #F0F461",
"^@	c #F5E359",
"/@	c #EACA5B",
"(@	c #CBA463",
"_@	c #A27852",
":@	c #A87F61",
"<@	c #9E7F6A",
"[@	c #65574E",
"}@	c #201C19",
"|@	c #0C0E0D",
"1@	c #1C1619",
"2@	c #7A603F",
"3@	c #C5A262",
"4@	c #CCAA50",
"5@	c #E0C957",
"6@	c #F1E960",
"7@	c #EBE958",
"8@	c #FFF467",
"9@	c #F3E757",
"0@	c #EDE248",
"a@	c #F5EF51",
"b@	c #EDEA4F",
"c@	c #EAEB4F",
"d@	c #E5ED4A",
"e@	c #ECED53",
"f@	c #F5E35D",
"g@	c #D3B34E",
"h@	c #CDA66B",
"i@	c #AB815B",
"j@	c #A87E56",
"k@	c #97755A",
"l@	c #735F61",
"m@	c #1B131E",
"n@	c #0E0F13",
"o@	c #191219",
"p@	c #C7A580",
"q@	c #C4A565",
"r@	c #C5AB54",
"s@	c #C0B341",
"t@	c #D2C845",
"u@	c #E7D74C",
"v@	c #F3E151",
"w@	c #F8E753",
"x@	c #F9E955",
"y@	c #F3E551",
"z@	c #F5E955",
"A@	c #ECE650",
"B@	c #E8DF54",
"C@	c #CEB745",
"D@	c #C7A752",
"E@	c #A17D4D",
"F@	c #A67F60",
"G@	c #9F7857",
"H@	c #A68773",
"I@	c #200C15",
"J@	c #201728",
"K@	c #261B11",
"L@	c #594830",
"M@	c #C0AB7E",
"N@	c #BAA262",
"O@	c #C3AA58",
"P@	c #C6AC4B",
"Q@	c #C9AA3E",
"R@	c #D6B544",
"S@	c #D9B545",
"T@	c #D8B648",
"U@	c #DAB84C",
"V@	c #D2B146",
"W@	c #CCAB4A",
"X@	c #CBA656",
"Y@	c #BE975C",
"Z@	c #A27E5A",
"`@	c #987561",
" #	c #A6887D",
".#	c #513937",
"+#	c #261923",
"@#	c #1F1927",
"##	c #17130E",
"$#	c #211A0C",
"%#	c #68573D",
"&#	c #BCA47B",
"*#	c #BEA36C",
"=#	c #C3A461",
"-#	c #CDA95D",
";#	c #CEA959",
">#	c #CBA554",
",#	c #C8A251",
"'#	c #CEA95B",
")#	c #CFA960",
"!#	c #C6A061",
"~#	c #B99362",
"{#	c #A4805C",
"]#	c #A3826F",
"^#	c #80655E",
"/#	c #5B4548",
"(#	c #281822",
"_#	c #1C121B",
":#	c #0E0D14",
"<#	c #110A09",
"[#	c #947C62",
"}#	c #B19776",
"|#	c #C3A37A",
"1#	c #C5A677",
"2#	c #BBA26C",
"3#	c #C4AB73",
"4#	c #C3AA72",
"5#	c #BDA370",
"6#	c #AC9164",
"7#	c #987E59",
"8#	c #987E65",
"9#	c #9D8376",
"0#	c #2F1A17",
"a#	c #2E1B21",
"b#	c #21141E",
"c#	c #1C141F",
"d#	c #1A171E",
"e#	c #201610",
"f#	c #2C180E",
"g#	c #2D1808",
"h#	c #5B4631",
"i#	c #5D4F34",
"j#	c #645639",
"k#	c #605235",
"l#	c #5B4D32",
"m#	c #4B3C25",
"n#	c #2F1F0F",
"o#	c #21130A",
"p#	c #211313",
"q#	c #1E111A",
"r#	c #1A101B",
"s#	c #19131F",
"t#	c #0D0916",
"u#	c #0E010A",
"v#	c #30212B",
"w#	c #1E1419",
"x#	c #1A1618",
"y#	c #1B1716",
"z#	c #16120F",
"A#	c #1E1A17",
"B#	c #24211C",
"C#	c #171310",
"D#	c #0E0A0B",
"E#	c #0C070D",
"F#	c #0B0A13",
"                                                                                                                                ",
"                                                                                                                                ",
"                                                                                                                                ",
"                                                                                                                                ",
"                                                                                                                                ",
"                                                                                                                                ",
"                                                                                                                                ",
"                                                                                                                                ",
"                                                                                                                                ",
"                                                                                                                                ",
"                                                                                                                                ",
"                                                                                                                                ",
"                                                                                                                                ",
"                                                                                                                                ",
"                                                                                                                                ",
"                                                                                                                                ",
"                                                                                                                                ",
"                                                                                                                                ",
"                                                                                                                                ",
"                                                                                                                                ",
"                                                                                                                                ",
"                                                                                                                                ",
"                                                                                                                                ",
"                                                                                                                                ",
"                                                                                                                                ",
"                                                                                                                                ",
"                                                                                      . +                                       ",
"                                                                                      @ # $ %                                   ",
"                                                                                      & * = - ;   >                             ",
"                                                                                        , ' ) ! ~ {                             ",
"                                                                                  ] ]     ^ / ( _ :                             ",
"                                                                          < [       } | 1 2 3 4 5                               ",
"                                                                      6 7 8 9 0 a   b c d e f g                                 ",
"                                                                    h i j k l m n o p   q r s t                                 ",
"                                                                  u v w x y z A B C D E F G H                                   ",
"                                                                I J K L M N O P Q R S T U V W                                   ",
"                                                              X Y Z `  ...+.@.#.$.%.&.*.=.-.;.                                  ",
"                                                        >.,.'.).!.~.{.].^./.(._.:.<.[.}.|.1.2.                                  ",
"                                                    3.j 4.5.6.7.8.9.0.a.b.c.d.e.f.g.h.i.j.k.l.                                  ",
"                                                  m.n.o.A p.q.r.s.t.u.v.w.x.y.z.A.B.C.D.E.F.G.H.                                ",
"                                                I.J.K.L.P M.N.O.P.Q.R.S.T.U.V.W.X.Y.Z.`. +.+++                                  ",
"                                                @+#+$+%+&+*+=+-+;+>+,+'+)+!+~+{+]+^+/+(+_+:+<+                                  ",
"                                                [+}+|+1+2+3+4+5+6+7+8+9+0+a+b+c+d+e+f+g+h+i+j+                                  ",
"                                                k+l+m+n+o+p+q+r+s+t+u+v+w+x+y+z+A+B+C+D+E+F+G+                                  ",
"                                            H+  I+J+K+L+M+N+O+P+Q+R+S+T+U+V+W+X+Y+Z+`+ @.@+@@@                                  ",
"                                            #@$@%@&@*@=@-@;@>@,@'@)@!@~@{@]@^@/@(@_@:@<@[@}@|@                                  ",
"                                              1@2@3@4@5@6@7@8@9@0@a@b@c@d@e@f@g@h@i@j@k@l@m@n@                                  ",
"                                              o@  p@q@r@s@t@u@v@w@x@y@z@A@B@C@D@E@F@G@H@I@J@                                    ",
"                                                K@L@M@N@O@P@Q@R@S@S@T@U@V@W@X@Y@Z@`@ #.#+#@#                                    ",
"                                                ##$#%#&#*#=#-#X@;#>#,#'#)#!#~#{#]#^#/#(#_#:#                                    ",
"                                                  <#    [#}#|#1#2#3#4#5#6#7#8#9#0#a#b#c#d#                                      ",
"                                                      e#  f#g#h#i#j#k#l#m#n#o#p#q#r#s#t#                                        ",
"                                                          u#v#w#x#y#z#A#B#C#D#E#F#                                              ",
"                                                                                                                                ",
"                                                                                                                                ",
"                                                                                                                                ",
"                                                                                                                                ",
"                                                                                                                                ",
"                                                                                                                                ",
"                                                                                                                                ",
"                                                                                                                                ",
"                                                                                                                                ",
"                                                                                                                                ",
"                                                                                                                                "};
