/* XPM */
static char *result[] = {
/* columns rows colors chars-per-pixel */
"64 64 11 1 ",
"  c #40362D",
". c #4E4339",
"X c #424A4A",
"o c #584E43",
"O c #4A5252",
"+ c #4A5A5A",
"@ c #526363",
"# c #8C826C",
"$ c #968C77",
"% c #A19682",
"& c #AA9F8C",
/* pixels */
"XXXXOOOOOOOOOOOOOOOOOOOOOO@@@@@@XXXXOOOOOOOOOOOOOOOOOOOOOO@@@@@@",
"XXXXOOOOOOOOOOOOOOOOOOOOOO@@@@@@XXXXOOOOOOOOOOOOOOOOOOOOOO@@@@@@",
"XXXXXXOO++OOoooo..      ooOO++XXXXXXXXOO++OOoooo..      ooOO++XX",
"XXXXXXOO++OOoooo..      ooOO++XXXXXXXXOO++OOoooo..      ooOO++XX",
"XXOO..      ####$$$$####      ..XXOO..      $$$$%%%%####      OO",
"XXOO..      ####$$$$####      ..XXOO..      $$$$%%%%####      OO",
"      ##$$%%%%%%%%%%%%%%$$####        ####$$$$%%%%%%%%%%$$##    ",
"      ##$$%%%%%%%%%%%%%%$$####        ####$$$$%%%%%%%%%%$$##    ",
"%%%%%%%%%%&&&&%%%%%%%%%%%%$$%%%%%%%%%%%%%%&&&&%%%%%%%%%%%%$$%%%%",
"%%%%%%%%%%&&&&%%%%%%%%%%%%$$%%%%%%%%%%%%%%&&&&%%%%%%%%%%%%$$%%%%",
"%%%%%%%%&&&&%%%%&&%%%%%%%%%%%%%%%%%%%%%%&&&&%%%%&&%%%%%%%%%%%%%%",
"%%%%%%%%&&&&%%%%&&%%%%%%%%%%%%%%%%%%%%%%&&&&%%%%&&%%%%%%%%%%%%%%",
"%%%%%%%%%%%%%%%%%%%%%%%%%%%%%%%%%%%%%%%%%%%%%%%%%%%%%%%%%%%%%%%%",
"%%%%%%%%%%%%%%%%%%%%%%%%%%%%%%%%%%%%%%%%%%%%%%%%%%%%%%%%%%%%%%%%",
"%%%%%%%%%%%%$$%%%%%%%%$$%%%%%%%%%%%%%%%%%%%%$$%%%%%%%%$$%%%%%%%%",
"%%%%%%%%%%%%$$%%%%%%%%$$%%%%%%%%%%%%%%%%%%%%$$%%%%%%%%$$%%%%%%%%",
"$$%%$$%%%%%%$$$$%%$$$$$$$$$$$$$$$$%%$$%%%%%%$$$$%%$$$$$$$$$$$$$$",
"$$%%$$%%%%%%$$$$%%$$$$$$$$$$$$$$$$%%$$%%%%%%$$$$%%$$$$$$$$$$$$$$",
"$$$$$$%%%%$$$$$$####$$$$$$$$$$##$$$$$$%%%%$$$$$$####$$$$$$$$$$##",
"$$$$$$%%%%$$$$$$####$$$$$$$$$$##$$$$$$%%%%$$$$$$####$$$$$$$$$$##",
"%%$$$$$$$$$$$$$$$$%%%%%%%%%%$$%%%%$$$$$$$$$$$$$$$$%%%%%%%%%%$$%%",
"%%$$$$$$$$$$$$$$$$%%%%%%%%%%$$%%%%$$$$$$$$$$$$$$$$%%%%%%%%%%$$%%",
"%%%%$$$$$$%%%%$$%%%%%%%%%%%%%%%%%%%%$$$$$$%%%%$$%%%%%%%%%%%%%%%%",
"%%%%$$$$$$%%%%$$%%%%%%%%%%%%%%%%%%%%$$$$$$%%%%$$%%%%%%%%%%%%%%%%",
"$$%%%%%%%%%%%%%%%%%%%%%%&&%%%%%%$$%%%%%%%%%%%%%%%%%%%%%%&&%%%%%%",
"$$%%%%%%%%%%%%%%%%%%%%%%&&%%%%%%$$%%%%%%%%%%%%%%%%%%%%%%&&%%%%%%",
"##%%%%%%%%%%%%%%%%%%%%%%%%%%&&&&##%%%%%%%%%%%%%%%%%%%%%%%%%%&&&&",
"##%%%%%%%%%%%%%%%%%%%%%%%%%%&&&&##%%%%%%%%%%%%%%%%%%%%%%%%%%&&&&",
"$$%%%%$$%%%%%%%%%%%%%%%%%%%%%%%%$$%%%%$$%%%%%%%%%%%%%%%%%%%%%%%%",
"$$%%%%$$%%%%%%%%%%%%%%%%%%%%%%%%$$%%%%$$%%%%%%%%%%%%%%%%%%%%%%%%",
"%%%%%%%%%%%%%%$$$$%%%%%%%%%%%%%%%%%%%%%%%%%%%%$$$$%%%%%%%%%%%%%%",
"%%%%%%%%%%%%%%$$$$%%%%%%%%%%%%%%%%%%%%%%%%%%%%$$$$%%%%%%%%%%%%%%",
"%%%%%%%%%%%%%%%%%%%%%%%%%%%%%%%%%%%%%%%%%%%%%%%%%%%%%%%%%%%%%%%%",
"%%%%%%%%%%%%%%%%%%%%%%%%%%%%%%%%%%%%%%%%%%%%%%%%%%%%%%%%%%%%%%%%",
"%%%%%%%%%%%%%%%%%%%%%%%%%%%%%%%%%%%%%%%%%%%%%%%%%%%%%%%%%%%%%%%%",
"%%%%%%%%%%%%%%%%%%%%%%%%%%%%%%%%%%%%%%%%%%%%%%%%%%%%%%%%%%%%%%%%",
"&&%%%%%%%%%%%%%%%%%%%%$$$$%%%%%%&&%%%%%%%%%%%%%%%%%%%%$$$$%%%%%%",
"&&%%%%%%%%%%%%%%%%%%%%$$$$%%%%%%&&%%%%%%%%%%%%%%%%%%%%$$$$%%%%%%",
"%%%%%%%%%%%%%%%%%%%%$$$$%%%%%%%%%%%%%%%%%%%%%%%%%%%%$$$$%%%%%%%%",
"%%%%%%%%%%%%%%%%%%%%$$$$%%%%%%%%%%%%%%%%%%%%%%%%%%%%$$$$%%%%%%%%",
"%%%%%%%%%%&&&&%%%%%%%%%%%%$$%%%%%%%%%%%%%%&&&&%%%%%%%%%%%%$$%%%%",
"%%%%%%%%%%&&&&%%%%%%%%%%%%$$%%%%%%%%%%%%%%&&&&%%%%%%%%%%%%$$%%%%",
"%%%%%%%%&&&&%%%%&&%%%%%%%%%%%%%%%%%%%%%%&&&&%%%%&&%%%%%%%%%%%%%%",
"%%%%%%%%&&&&%%%%&&%%%%%%%%%%%%%%%%%%%%%%&&&&%%%%&&%%%%%%%%%%%%%%",
"%%%%%%%%%%%%%%%%%%%%%%%%%%%%%%%%%%%%%%%%%%%%%%%%%%%%%%%%%%%%%%%%",
"%%%%%%%%%%%%%%%%%%%%%%%%%%%%%%%%%%%%%%%%%%%%%%%%%%%%%%%%%%%%%%%%",
"%%%%%%%%%%%%$$%%%%%%%%$$%%%%%%%%%%%%%%%%%%%%$$%%%%%%%%$$%%%%%%%%",
"%%%%%%%%%%%%$$%%%%%%%%$$%%%%%%%%%%%%%%%%%%%%$$%%%%%%%%$$%%%%%%%%",
"##%%$$%%%%%%$$$$%%$$$$$$$$$$$$$$##%%$$%%%%%%$$$$%%$$$$$$$$$$$$$$",
"##%%$$%%%%%%$$$$%%$$$$$$$$$$$$$$##%%$$%%%%%%$$$$%%$$$$$$$$$$$$$$",
"$$$$$$%%%%$$$$$$####$$$$$$$$$$##$$$$$$%%%%$$$$$$####$$$$$$$$$$##",
"$$$$$$%%%%$$$$$$####$$$$$$$$$$##$$$$$$%%%%$$$$$$####$$$$$$$$$$##",
"%%$$$$$$$$$$$$$$$$%%%%%%%%%%$$%%%%$$$$$$$$$$$$$$$$%%%%%%%%%%$$%%",
"%%$$$$$$$$$$$$$$$$%%%%%%%%%%$$%%%%$$$$$$$$$$$$$$$$%%%%%%%%%%$$%%",
"%%%%$$$$$$%%%%$$%%%%%%%%%%%%%%%%%%%%$$$$$$%%%%$$%%%%%%%%%%%%%%%%",
"%%%%$$$$$$%%%%$$%%%%%%%%%%%%%%%%%%%%$$$$$$%%%%$$%%%%%%%%%%%%%%%%",
"%%%%%%%%%%%%%%%%%%%%%%%%&&%%%%%%%%%%%%%%%%%%%%%%%%%%%%%%&&%%%%%%",
"%%%%%%%%%%%%%%%%%%%%%%%%&&%%%%%%%%%%%%%%%%%%%%%%%%%%%%%%&&%%%%%%",
"&&%%%%%%%%%%%%%%%%%%%%%%%%%%&&&&&&%%%%%%%%%%%%%%%%%%%%%%%%%%&&&&",
"&&%%%%%%%%%%%%%%%%%%%%%%%%%%&&&&&&%%%%%%%%%%%%%%%%%%%%%%%%%%&&&&",
"&&%%%%$$%%%%%%%%%%%%%%%%%%%%%%%%&&%%%%$$%%%%%%%%%%%%%%%%%%%%%%%%",
"&&%%%%$$%%%%%%%%%%%%%%%%%%%%%%%%&&%%%%$$%%%%%%%%%%%%%%%%%%%%%%%%",
"&&%%%%%%%%%%%%$$$$%%%%%%%%%%%%%%&&%%%%%%%%%%%%$$$$%%%%%%%%%%%%%%",
"&&%%%%%%%%%%%%$$$$%%%%%%%%%%%%%%&&%%%%%%%%%%%%$$$$%%%%%%%%%%%%%%"
};
