/* XPM */
static char *result[] = {
/* columns rows colors chars-per-pixel */
"64 64 62 1 ",
"  c #40362D",
". c #4E4339",
"X c #424A4A",
"o c #4A5252",
"O c #525A52",
"+ c #62584E",
"@ c #6C6258",
"# c #776C58",
"$ c #737363",
"% c #827758",
"& c #8C826C",
"* c #908570",
"= c #968C77",
"- c #958C78",
"; c #978D78",
": c #968C79",
"> c #978D79",
", c #978E7A",
"< c #988E79",
"1 c #998F7A",
"2 c #998F7C",
"3 c #9A907C",
"4 c #9B917D",
"5 c #9C917D",
"6 c #9F9481",
"7 c #9F9583",
"8 c #A09582",
"9 c #A09682",
"0 c #A19682",
"q c #A09683",
"w c #A19683",
"e c #A19783",
"r c #A29783",
"t c #A19784",
"y c #A19785",
"u c #A29784",
"i c #A29785",
"p c #A19786",
"a c #A19885",
"s c #A29884",
"d c #A39884",
"f c #A29885",
"g c #A39885",
"h c #A29886",
"j c #A39886",
"k c #A49885",
"l c #A49985",
"z c #A49A86",
"x c #A59A86",
"c c #A59A87",
"v c #A69B87",
"b c #A49A88",
"n c #A59B88",
"m c #A69C8A",
"M c #A99F8C",
"N c #A99F8D",
"B c #AA9F8C",
"V c #ABA08E",
"C c #ACA18E",
"Z c #ADA18F",
"A c #ADA28F",
"S c #ACA290",
/* pixels */
"ggdd<<dduuuurrrr;;;;;;>>,,--::2277pphhbbmm==%%####++..##$$OOXXXX",
"ggdd<<dduuuurrrr;;;;;;>>,,--::2277pphhbbmm==%%####++..##$$OOXXXX",
"kkggdddduuuuuuuuuu>>uuuu33>>>>ffyyjjSSaaqq====%%##++..##$$OOXXXX",
"kkggdddduuuuuuuuuu>>uuuu33>>>>ffyyjjSSaaqq====%%##++..##$$OOXXXX",
"11ggddddVVuussddddddggddgguuuuffiinn============&&@@@@....$$ooXX",
"11ggddddVVuussddddddggddgguuuuffiinn============&&@@@@....$$ooXX",
"**ZZCCuurr====ggddggllAAsseeeeww99MMNN====qqqq77======&&&&      ",
"**ZZCCuurr====ggddggllAAsseeeeww99MMNN====qqqq77======&&&&      ",
"44ggrrrrrr==ddxxddggvvccddeeeeww0000ww996688eezz99ttBB0000000000",
"44ggrrrrrr==ddxxddggvvccddeeeeww0000ww996688eezz99ttBB0000000000",
"00rr0000000000BB0000BBBB000000000000wwuu550000BB0000BBBB00000000",
"00rr0000000000BB0000BBBB000000000000wwuu550000BB0000BBBB00000000",
"0000000000000000000000000000000000000000000000000000000000000000",
"0000000000000000000000000000000000000000000000000000000000000000",
"00000000==00000000==00000000000000000000==00000000==000000000000",
"00000000==00000000==00000000000000000000==00000000==000000000000",
"==============00====000000==00================00====000000==00==",
"==============00====000000==00================00====000000==00==",
"&&==========&&&&======0000======&&==========&&&&======0000======",
"&&==========&&&&======0000======&&==========&&&&======0000======",
"00==0000000000================0000==0000000000================00",
"00==0000000000================0000==0000000000================00",
"0000000000000000==0000======00000000000000000000==0000======0000",
"0000000000000000==0000======00000000000000000000==0000======0000",
"000000BB0000000000000000000000==000000BB0000000000000000000000==",
"000000BB0000000000000000000000==000000BB0000000000000000000000==",
"BBBB00000000000000000000000000&&BBBB00000000000000000000000000&&",
"BBBB00000000000000000000000000&&BBBB00000000000000000000000000&&",
"000000000000000000000000==0000==000000000000000000000000==0000==",
"000000000000000000000000==0000==000000000000000000000000==0000==",
"00000000000000====0000000000000000000000000000====00000000000000",
"00000000000000====0000000000000000000000000000====00000000000000",
"0000000000000000000000000000000000000000000000000000000000000000",
"0000000000000000000000000000000000000000000000000000000000000000",
"0000000000000000000000000000000000000000000000000000000000000000",
"0000000000000000000000000000000000000000000000000000000000000000",
"000000====00000000000000000000BB000000====00000000000000000000BB",
"000000====00000000000000000000BB000000====00000000000000000000BB",
"00000000====0000000000000000000000000000====00000000000000000000",
"00000000====0000000000000000000000000000====00000000000000000000",
"0000==000000000000BBBB00000000000000==000000000000BBBB0000000000",
"0000==000000000000BBBB00000000000000==000000000000BBBB0000000000",
"00000000000000BB0000BBBB0000000000000000000000BB0000BBBB00000000",
"00000000000000BB0000BBBB0000000000000000000000BB0000BBBB00000000",
"0000000000000000000000000000000000000000000000000000000000000000",
"0000000000000000000000000000000000000000000000000000000000000000",
"00000000==00000000==00000000000000000000==00000000==000000000000",
"00000000==00000000==00000000000000000000==00000000==000000000000",
"==============00====000000==00&&==============00====000000==00&&",
"==============00====000000==00&&==============00====000000==00&&",
"&&==========&&&&======0000======&&==========&&&&======0000======",
"&&==========&&&&======0000======&&==========&&&&======0000======",
"00==0000000000================0000==0000000000================00",
"00==0000000000================0000==0000000000================00",
"0000000000000000==0000======00000000000000000000==0000======0000",
"0000000000000000==0000======00000000000000000000==0000======0000",
"000000BB000000000000000000000000000000BB000000000000000000000000",
"000000BB000000000000000000000000000000BB000000000000000000000000",
"BBBB00000000000000000000000000BBBBBB00000000000000000000000000BB",
"BBBB00000000000000000000000000BBBBBB00000000000000000000000000BB",
"000000000000000000000000==0000BB000000000000000000000000==0000BB",
"000000000000000000000000==0000BB000000000000000000000000==0000BB",
"00000000000000====000000000000BB00000000000000====000000000000BB",
"00000000000000====000000000000BB00000000000000====000000000000BB"
};
