/* XPM */
static char *result[] = {
/* columns rows colors chars-per-pixel */
"64 64 62 1 ",
"  c #40362D",
". c #4E4339",
"X c #424A4A",
"o c #4A5252",
"O c #525A52",
"+ c #62584E",
"@ c #6C6258",
"# c #776C58",
"$ c #737363",
"% c #827758",
"& c #8C826C",
"* c #908570",
"= c #968C77",
"- c #958C78",
"; c #978D78",
": c #968C79",
"> c #978D79",
", c #978E7A",
"< c #988E79",
"1 c #998F7A",
"2 c #998F7C",
"3 c #9A907C",
"4 c #9B917D",
"5 c #9C917D",
"6 c #9F9481",
"7 c #9F9583",
"8 c #A09582",
"9 c #A09682",
"0 c #A19682",
"q c #A09683",
"w c #A19683",
"e c #A19783",
"r c #A29783",
"t c #A19784",
"y c #A19785",
"u c #A29784",
"i c #A29785",
"p c #A19786",
"a c #A19885",
"s c #A29884",
"d c #A39884",
"f c #A29885",
"g c #A39885",
"h c #A29886",
"j c #A39886",
"k c #A49885",
"l c #A49985",
"z c #A49A86",
"x c #A59A86",
"c c #A59A87",
"v c #A69B87",
"b c #A49A88",
"n c #A59B88",
"m c #A69C8A",
"M c #A99F8C",
"N c #A99F8D",
"B c #AA9F8C",
"V c #ABA08E",
"C c #ACA18E",
"Z c #ADA18F",
"A c #ADA28F",
"S c #ACA290",
/* pixels */
"XXXXOO$$##..++####%%==mmbbhhpp7722::--,,>>;;;;;;rrrruuuudd<<ddgg",
"XXXXOO$$##..++####%%==mmbbhhpp7722::--,,>>;;;;;;rrrruuuudd<<ddgg",
"XXXXOO$$##..++##%%====qqaaSSjjyyff>>>>33uuuu>>uuuuuuuuuuddddggkk",
"XXXXOO$$##..++##%%====qqaaSSjjyyff>>>>33uuuu>>uuuuuuuuuuddddggkk",
"XXoo$$....@@@@&&============nniiffuuuuggddggddddddssuuVVddddgg11",
"XXoo$$....@@@@&&============nniiffuuuuggddggddddddssuuVVddddgg11",
"      &&&&======77qqqq====NNMM99wweeeessAAllggddgg====rruuCCZZ**",
"      &&&&======77qqqq====NNMM99wweeeessAAllggddgg====rruuCCZZ**",
"0000000000BBtt99zzee886699ww0000wweeeeddccvvggddxxdd==rrrrrrgg44",
"0000000000BBtt99zzee886699ww0000wweeeeddccvvggddxxdd==rrrrrrgg44",
"00000000BBBB0000BB000055uuww000000000000BBBB0000BB0000000000rr00",
"00000000BBBB0000BB000055uuww000000000000BBBB0000BB0000000000rr00",
"0000000000000000000000000000000000000000000000000000000000000000",
"0000000000000000000000000000000000000000000000000000000000000000",
"000000000000==00000000==00000000000000000000==00000000==00000000",
"000000000000==00000000==00000000000000000000==00000000==00000000",
"==00==000000====00================00==000000====00==============",
"==00==000000====00================00==000000====00==============",
"======0000======&&&&==========&&======0000======&&&&==========&&",
"======0000======&&&&==========&&======0000======&&&&==========&&",
"00================0000000000==0000================0000000000==00",
"00================0000000000==0000================0000000000==00",
"0000======0000==00000000000000000000======0000==0000000000000000",
"0000======0000==00000000000000000000======0000==0000000000000000",
"==0000000000000000000000BB000000==0000000000000000000000BB000000",
"==0000000000000000000000BB000000==0000000000000000000000BB000000",
"&&00000000000000000000000000BBBB&&00000000000000000000000000BBBB",
"&&00000000000000000000000000BBBB&&00000000000000000000000000BBBB",
"==0000==000000000000000000000000==0000==000000000000000000000000",
"==0000==000000000000000000000000==0000==000000000000000000000000",
"00000000000000====0000000000000000000000000000====00000000000000",
"00000000000000====0000000000000000000000000000====00000000000000",
"0000000000000000000000000000000000000000000000000000000000000000",
"0000000000000000000000000000000000000000000000000000000000000000",
"0000000000000000000000000000000000000000000000000000000000000000",
"0000000000000000000000000000000000000000000000000000000000000000",
"BB00000000000000000000====000000BB00000000000000000000====000000",
"BB00000000000000000000====000000BB00000000000000000000====000000",
"00000000000000000000====0000000000000000000000000000====00000000",
"00000000000000000000====0000000000000000000000000000====00000000",
"0000000000BBBB000000000000==00000000000000BBBB000000000000==0000",
"0000000000BBBB000000000000==00000000000000BBBB000000000000==0000",
"00000000BBBB0000BB0000000000000000000000BBBB0000BB00000000000000",
"00000000BBBB0000BB0000000000000000000000BBBB0000BB00000000000000",
"0000000000000000000000000000000000000000000000000000000000000000",
"0000000000000000000000000000000000000000000000000000000000000000",
"000000000000==00000000==00000000000000000000==00000000==00000000",
"000000000000==00000000==00000000000000000000==00000000==00000000",
"&&00==000000====00==============&&00==000000====00==============",
"&&00==000000====00==============&&00==000000====00==============",
"======0000======&&&&==========&&======0000======&&&&==========&&",
"======0000======&&&&==========&&======0000======&&&&==========&&",
"00================0000000000==0000================0000000000==00",
"00================0000000000==0000================0000000000==00",
"0000======0000==00000000000000000000======0000==0000000000000000",
"0000======0000==00000000000000000000======0000==0000000000000000",
"000000000000000000000000BB000000000000000000000000000000BB000000",
"000000000000000000000000BB000000000000000000000000000000BB000000",
"BB00000000000000000000000000BBBBBB00000000000000000000000000BBBB",
"BB00000000000000000000000000BBBBBB00000000000000000000000000BBBB",
"BB0000==000000000000000000000000BB0000==000000000000000000000000",
"BB0000==000000000000000000000000BB0000==000000000000000000000000",
"BB000000000000====00000000000000BB000000000000====00000000000000",
"BB000000000000====00000000000000BB000000000000====00000000000000"
};
