/* XPM */
static char *result[] = {
/* columns rows colors chars-per-pixel */
"64 64 13 1 ",
"  c #502820",
". c #513121",
"X c #553525",
"o c #583828",
"O c #673F27",
"+ c #6C442C",
"@ c #604030",
"# c #684838",
"$ c #6F4D3C",
"% c #424A4A",
"& c #4A5252",
"* c #4A5A5A",
"= c #526363",
/* pixels */
"%%%%&&&&&&&&&&&&&&&&&&&&&&======%%%%&&&&&&&&&&&&&&&&&&&&&&======",
"%%%%&&&&&&&&&&&&&&&&&&&&&&======%%%%&&&&&&&&&&&&&&&&&&&&&&======",
"%%%%%%&&**&&&&&&&&&&&&&&&&&&**%%%%%%%%&&**&&&&&&&&&&&&&&&&&&**%%",
"%%%%%%&&**&&&&&&&&&&&&&&&&&&**%%%%%%%%&&**&&&&&&&&&&&&&&&&&&**%%",
"%%&&&&==........&&&&&&&&&&&&&&&&%%&&&&==........&&&&&&&&&&&&&&&&",
"%%&&&&==........&&&&&&&&&&&&&&&&%%&&&&==........&&&&&&&&&&&&&&&&",
"&&&&**..........XXXXXXXXXXXXXX..&&&&**....$$XXXXXX$$..&&&&&&&&&&",
"&&&&**..........XXXXXXXXXXXXXX..&&&&**....$$XXXXXX$$..&&&&&&&&&&",
"&&&&&&&&&&XXXXXXXX$$$$$$++++++++..&&&&&&XXXXXX$$$$$$$$$$======&&",
"&&&&&&&&&&XXXXXXXX$$$$$$++++++++..&&&&&&XXXXXX$$$$$$$$$$======&&",
"**&&&&&&XXXXXX$$$$$$$$$$$$$$++++++&&&&XXXX$$$$$$$$$$$$$$$$====**",
"**&&&&&&XXXXXX$$$$$$$$$$$$$$++++++&&&&XXXX$$$$$$$$$$$$$$$$====**",
"&&&&&&..XXXX$$$$$$$$$$$$$$$$$$$$$$&&@@XXXXXX$$$$$$$$$$$$$$****&&",
"&&&&&&..XXXX$$$$$$$$$$$$$$$$$$$$$$&&@@XXXXXX$$$$$$$$$$$$$$****&&",
"**....XXXX$$$$$$$$$$$$$$$$$$$$$$$$XX$$ooXXXX$$$$$$$$$$$$$$&&====",
"**....XXXX$$$$$$$$$$$$$$$$$$$$$$$$XX$$ooXXXX$$$$$$$$$$$$$$&&====",
"==....XXXX$$$$$$$$$$$$$$$$$$$$$$$$XXXX$$ooXX$$$$$$$$$$..&&======",
"==....XXXX$$$$$$$$$$$$$$$$$$$$$$$$XXXX$$ooXX$$$$$$$$$$..&&======",
"====....XX$$$$$$$$$$$$$$$$$$OOOOOOOOOOXX$$$$$$..oooooooo..****==",
"====....XX$$$$$$$$$$$$$$$$$$OOOOOOOOOOXX$$$$$$..oooooooo..****==",
"**%%%%%%..XX$$$$$$$$$$$$$$$$$$$$OOOOOOXXXX$$$$..........&&&&****",
"**%%%%%%..XX$$$$$$$$$$$$$$$$$$$$OOOOOOXXXX$$$$..........&&&&****",
"&&%%%%%%%%..XX$$$$$$$$$$@@######@@..OOOO$$$$$$$$$$$$..&&&&&&&&&&",
"&&%%%%%%%%..XX$$$$$$$$$$@@######@@..OOOO$$$$$$$$$$$$..&&&&&&&&&&",
"&&&&%%%%%%&&%%$$$$$$$$@@##########@@OOOO$$$$$$$$$$$$$$%%%%&&&&&&",
"&&&&%%%%%%&&%%$$$$$$$$@@##########@@OOOO$$$$$$$$$$$$$$%%%%&&&&&&",
"&&&&&&******&&%%$$$$..##########@@##XX$$$$$$$$++$$$$$$&&&&&&&&&&",
"&&&&&&******&&%%$$$$..##########@@##XX$$$$$$$$++$$$$$$&&&&&&&&&&",
"&&&&**====****&&&&&&&&&&&&&&@@....XXXX$$$$$$$$++$$$$$$..&&&&==**",
"&&&&**====****&&&&&&&&&&&&&&@@....XXXX$$$$$$$$++$$$$$$..&&&&==**",
"&&&&&&====**&&&&&&&&&&..XXXXXXXXXXXXXX$$$$$$++++OOOO$$$$  ======",
"&&&&&&====**&&&&&&&&&&..XXXXXXXXXXXXXX$$$$$$++++OOOO$$$$  ======",
"%%%%&&&&++++++++..&&$$$$$$$$$$$$$$$$$$$$$$oo......OOOO$$$$  ====",
"%%%%&&&&++++++++..&&$$$$$$$$$$$$$$$$$$$$$$oo......OOOO$$$$  ====",
"%%%%%%++++$$$$$$$$$$oo....$$$$$$$$OOOOoooo..........  $$$$$$**%%",
"%%%%%%++++$$$$$$$$$$oo....$$$$$$$$OOOOoooo..........  $$$$$$**%%",
"%%&&$$$$$$$$$$$$$$$$..&&..$$$$$$$$OO++oooo..........XX$$$$$$&&&&",
"%%&&$$$$$$$$$$$$$$$$..&&..$$$$$$$$OO++oooo..........XX$$$$$$&&&&",
"&&&&$$$$$$$$$$$$$$$$$$&&&&@@$$$$$$$$++oooooooooo@@@@XX$$$$$$&&&&",
"&&&&$$$$$$$$$$$$$$$$$$&&&&@@$$$$$$$$++oooooooooo@@@@XX$$$$$$&&&&",
"&&&&$$++++$$$$$$$$$$$$&&====..$$$$$$++XXXXoo@@####XXXX$$$$..==&&",
"&&&&$$++++$$$$$$$$$$$$&&====..$$$$$$++XXXXoo@@####XXXX$$$$..==&&",
"**&&&&&&++$$$$$$  &&==========**$$$$$$$$$$$$$$$$$$$$$$$$..====**",
"**&&&&&&++$$$$$$  &&==========**$$$$$$$$$$$$$$$$$$$$$$$$..====**",
"&&&&&&%%%%%%%%%%%%&&**====****&&&&..$$$$$$$$$$$$$$$$  ====****&&",
"&&&&&&%%%%%%%%%%%%&&**====****&&&&..$$$$$$$$$$$$$$$$  ====****&&",
"**&&&&&&&&%%%%&&&&&&&&&&&&&&====**..................&&&&&&&&====",
"**&&&&&&&&%%%%&&&&&&&&&&&&&&====**..................&&&&&&&&====",
"====&&&&&&oo########@@oo&&========..........oo......==&&&&======",
"====&&&&&&oo########@@oo&&========..........oo......==&&&&======",
"====**%%####@@$$$$$$$$@@..****======......%%..............****==",
"====**%%####@@$$$$$$$$@@..****======......%%..............****==",
"**%%%%%%####$$$$$$$$$$@@@@&&******%%%%%%%%&&&&........&&&&&&****",
"**%%%%%%####$$$$$$$$$$@@@@&&******%%%%%%%%&&&&........&&&&&&****",
"&&%%%%%%%%@@@@$$$$$$$$..@@&&&&&&&&%%%%%%%%%%&&%%%%%%&&&&&&&&&&&&",
"&&%%%%%%%%@@@@$$$$$$$$..@@&&&&&&&&%%%%%%%%%%&&%%%%%%&&&&&&&&&&&&",
"&&&&%%%%%%&&oooo$$$$@@@@%%&&&&&&&&&&%%%%%%&&%%%%%%%%%%%%%%&&&&&&",
"&&&&%%%%%%&&oooo$$$$@@@@%%&&&&&&&&&&%%%%%%&&%%%%%%%%%%%%%%&&&&&&",
"&&&&&&******&&%%%%%%%%&&&&&&&&&&&&&&&&******&&%%%%%%%%&&&&&&&&&&",
"&&&&&&******&&%%%%%%%%&&&&&&&&&&&&&&&&******&&%%%%%%%%&&&&&&&&&&",
"&&&&**====****&&&&&&&&&&&&&&==**&&&&**====****&&&&&&&&&&&&&&==**",
"&&&&**====****&&&&&&&&&&&&&&==**&&&&**====****&&&&&&&&&&&&&&==**",
"&&&&&&====**&&&&&&&&&&&&**======&&&&&&====**&&&&&&&&&&&&**======",
"&&&&&&====**&&&&&&&&&&&&**======&&&&&&====**&&&&&&&&&&&&**======"
};
