/* XPM */
static char *result[] = {
/* columns rows colors chars-per-pixel */
"64 64 20 1 ",
"  c black",
". c #2F1607",
"X c #392918",
"o c #492109",
"O c #562E16",
"+ c #583018",
"@ c #5E361E",
"# c #5F371F",
"$ c #523929",
"% c #673F27",
"& c #6C442C",
"* c #6F4D3C",
"= c #6B5239",
"- c #424A4A",
"; c #4A5252",
": c #4A5A5A",
"> c #526363",
", c #84634A",
"< c #8C7352",
"1 c #9C846B",
/* pixels */
"----;;;;;;;;;;;;;;;;;;;;;;>>>>>>----;;;;;;;;;;;;;;;;;;;;;;>>>>>>",
"----;;;;;;;;;;;;;;;;;;;;;;>>>>>>----;;;;;;;;;;;;;;;;;;;;;;>>>>>>",
"------;;::;;;;;;;;;;;;;;;;;;::--------;;::;;;;;;;;;;;;;;;;;;::--",
"------;;::;;;;;;;;;;;;;;;;;;::--------;;::;;;;;;;;;;;;;;;;;;::--",
"--;;;;>>>>>>>>;;;;;;;;;;;;;;;;++++++++++++>>>>;;;;;;;;;;;;;;;;;;",
"--;;;;>>>>>>>>;;;;;;;;;;;;;;;;++++++++++++>>>>;;;;;;;;;;;;;;;;;;",
";;;;::>>>>>>++++++$$$$;;;;++&&&&********&&$$$$::;;;;;;;;;;;;;;;;",
";;;;::>>>>>>++++++$$$$;;;;++&&&&********&&$$$$::;;;;;;;;;;;;;;;;",
";;;;;;;;++%%****$$1111$$++++%%%%%%******$$1111$$++++;;;;>>>>>>;;",
";;;;;;;;++%%****$$1111$$++++%%%%%%******$$1111$$++++;;;;>>>>>>;;",
"::;;;;++********$$1111$$++++%%%%%%******$$1111$$****&&++>>>>>>::",
"::;;;;++********$$1111$$++++%%%%%%******$$1111$$****&&++>>>>>>::",
";;;;;;++********$$<<<<$$++++%%%%%%%%****$$<<<<$$******%%++::::;;",
";;;;;;++********$$<<<<$$++++%%%%%%%%****$$<<<<$$******%%++::::;;",
"::;;;;++++******$$<<,,$$================$$<<,,$$******%%++;;>>>>",
"::;;;;++++******$$<<,,$$================$$<<,,$$******%%++;;>>>>",
">>>>++%%%%&&&&**$$,,,,$$,,111111111111,,$$,,,,$$**%%&&++;;>>>>>>",
">>>>++%%%%&&&&**$$,,,,$$,,111111111111,,$$,,,,$$**%%&&++;;>>>>>>",
">>++**%%%%%%&&@@$$,,,,$$,,<<<<<<<<<<<<,,$$,,,,$$&&++++++;;::::>>",
">>++**%%%%%%&&@@$$,,,,$$,,<<<<<<<<<<<<,,$$,,,,$$&&++++++;;::::>>",
"::++******%%&&@@$$,,,,$$&&&&@@@@&&&&&&&&$$,,,,$$&&&&++%%++;;::::",
"::++******%%&&@@$$,,,,$$&&&&@@@@&&&&&&&&$$,,,,$$&&&&++%%++;;::::",
";;++********@@@@$$,,,,$$@@@@OO@@@@@@&&&&$$,,,,$$&&&&****%%##;;;;",
";;++********@@@@$$,,,,$$@@@@OO@@@@@@&&&&$$,,,,$$&&&&****%%##;;;;",
";;;;********@@@@$$,,==$$@@@@oo@@@@@@@@@@$$,,==$$&&@@******++;;;;",
";;;;********@@@@$$,,==$$@@@@oo@@@@@@@@@@$$,,==$$&&@@******++;;;;",
";;;;&&****&&@@@@$$,,==$$@@OOooOO@@@@@@@@$$,,==$$@@@@******++;;;;",
";;;;&&****&&@@@@$$,,==$$@@OOooOO@@@@@@@@$$,,==$$@@@@******++;;;;",
";;;;++++&&&&@@OO$$====$$,,<<<<<<<<<<<<,,$$====$$@@@@%%****++>>::",
";;;;++++&&&&@@OO$$====$$,,<<<<<<<<<<<<,,$$====$$@@@@%%****++>>::",
";;++&&**%%##OOooXX====XX==,,,,,,,,,,,,==XX====XXooOO%%****##>>>>",
";;++&&**%%##OOooXX====XX==,,,,,,,,,,,,==XX====XXooOO%%****##>>>>",
"--++&&******ooooXX====XX==,,,,,,,,,,,,==XX====XXoooo%%%%++++>>>>",
"--++&&******ooooXX====XX==,,,,,,,,,,,,==XX====XXoooo%%%%++++>>>>",
"----%%******....XX====XX........oooooo..XX====XXoo..++++++;;::--",
"----%%******....XX====XX........oooooo..XX====XXoo..++++++;;::--",
"--;;##******....XX====XX................XX====XX....##;;;;;;;;;;",
"--;;##******....XX====XX................XX====XX....##;;;;;;;;;;",
";;;;++****%%....XX====XX    ..        ..XX====XX  ..++;;;;;;;;;;",
";;;;++****%%....XX====XX    ..        ..XX====XX  ..++;;;;;;;;;;",
";;;;++&&%%%%&&  XX====XX                XX====XX  %%++++>>>>>>;;",
";;;;++&&%%%%&&  XX====XX                XX====XX  %%++++>>>>>>;;",
"::;;;;++&&&&++  XX====XX                XX====XX  ****%%++>>>>::",
"::;;;;++&&&&++  XX====XX                XX====XX  ****%%++>>>>::",
";;;;;;--++++****XX====XX==,,,,,,,,,,,,==XX====XX********&&::::;;",
";;;;;;--++++****XX====XX==,,,,,,,,,,,,==XX====XX********&&::::;;",
"::;;;;;;++%%******&&==XX================XX==%%**********&&;;>>>>",
"::;;;;;;++%%******&&==XX================XX==%%**********&&;;>>>>",
">>>>;;++++**********##++&&%%%%**********&&++**********&&;;>>>>>>",
">>>>;;++++**********##++&&%%%%**********&&++**********&&;;>>>>>>",
">>>>::++&&**********&&++%%****************++++%%****++::;;::::>>",
">>>>::++&&**********&&++%%****************++++%%****++::;;::::>>",
"::------++##%%****%%++++++**************%%++++++&&++;;;;;;;;::::",
"::------++##%%****%%++++++**************%%++++++&&++;;;;;;;;::::",
";;--------%%##&&++++;;;;;;&&%%********&&++--;;------;;;;;;;;;;;;",
";;--------%%##&&++++;;;;;;&&%%********&&++--;;------;;;;;;;;;;;;",
";;;;------;;--------------;;;;;;######----;;--------------;;;;;;",
";;;;------;;--------------;;;;;;######----;;--------------;;;;;;",
";;;;;;::::::;;--------;;;;;;;;;;;;;;;;::::::;;--------;;;;;;;;;;",
";;;;;;::::::;;--------;;;;;;;;;;;;;;;;::::::;;--------;;;;;;;;;;",
";;;;::>>>>::::;;;;;;;;;;;;;;>>::;;;;::>>>>::::;;;;;;;;;;;;;;>>::",
";;;;::>>>>::::;;;;;;;;;;;;;;>>::;;;;::>>>>::::;;;;;;;;;;;;;;>>::",
";;;;;;>>>>::;;;;;;;;;;;;::>>>>>>;;;;;;>>>>::;;;;;;;;;;;;::>>>>>>",
";;;;;;>>>>::;;;;;;;;;;;;::>>>>>>;;;;;;>>>>::;;;;;;;;;;;;::>>>>>>"
};
