/* XPM */
static char *result[] = {
/* columns rows colors chars-per-pixel */
"64 64 4 1 ",
"  c #424A4A",
". c #4A5252",
"X c #4A5A5A",
"o c #526363",
/* pixels */
"    ......................oooooo    ......................oooooo",
"    ......................oooooo    ......................oooooo",
"      ..XX..................XX        ..XX..................XX  ",
"      ..XX..................XX        ..XX..................XX  ",
"  ....oooooooo..................  ....oooooooo..................",
"  ....oooooooo..................  ....oooooooo..................",
"....XXooooooXXXX....................XXooooooXXXX................",
"....XXooooooXXXX....................XXooooooXXXX................",
"........................oooooo..........................oooooo..",
"........................oooooo..........................oooooo..",
"XX......        ....ooooooooooXXXX......        ....ooooooooooXX",
"XX......        ....ooooooooooXXXX......        ....ooooooooooXX",
"......            ..XXooooXXXX........            ..XXooooXXXX..",
"......            ..XXooooXXXX........            ..XXooooXXXX..",
"XX........    ..............ooooXX........    ..............oooo",
"XX........    ..............ooooXX........    ..............oooo",
"oooo............XXoooo....oooooooooo............XXoooo....oooooo",
"oooo............XXoooo....oooooooooo............XXoooo....oooooo",
"ooooXX      ......ooooXX..XXXXooooooXX      ......ooooXX..XXXXoo",
"ooooXX      ......ooooXX..XXXXooooooXX      ......ooooXX..XXXXoo",
"XX        ..................XXXXXX        ..................XXXX",
"XX        ..................XXXXXX        ..................XXXX",
"..          ..      ..............          ..      ............",
"..          ..      ..............          ..      ............",
"....      ..              ..........      ..              ......",
"....      ..              ..........      ..              ......",
"......XXXXXX..        ................XXXXXX..        ..........",
"......XXXXXX..        ................XXXXXX..        ..........",
"....XXooooXXXX..............ooXX....XXooooXXXX..............ooXX",
"....XXooooXXXX..............ooXX....XXooooXXXX..............ooXX",
"......ooooXX............XXoooooo......ooooXX............XXoooooo",
"......ooooXX............XXoooooo......ooooXX............XXoooooo",
"    ......................oooooo    ......................oooooo",
"    ......................oooooo    ......................oooooo",
"      ..XX..................XX        ..XX..................XX  ",
"      ..XX..................XX        ..XX..................XX  ",
"  ....oooooooo..................  ....oooooooo..................",
"  ....oooooooo..................  ....oooooooo..................",
"....XXooooooXXXX....................XXooooooXXXX................",
"....XXooooooXXXX....................XXooooooXXXX................",
"........................oooooo..........................oooooo..",
"........................oooooo..........................oooooo..",
"XX......        ....ooooooooooXXXX......        ....ooooooooooXX",
"XX......        ....ooooooooooXXXX......        ....ooooooooooXX",
"......            ..XXooooXXXX........            ..XXooooXXXX..",
"......            ..XXooooXXXX........            ..XXooooXXXX..",
"XX........    ..............ooooXX........    ..............oooo",
"XX........    ..............ooooXX........    ..............oooo",
"oooo............XXoooo....oooooooooo............XXoooo....oooooo",
"oooo............XXoooo....oooooooooo............XXoooo....oooooo",
"ooooXX      ......ooooXX..XXXXooooooXX      ......ooooXX..XXXXoo",
"ooooXX      ......ooooXX..XXXXooooooXX      ......ooooXX..XXXXoo",
"XX        ..................XXXXXX        ..................XXXX",
"XX        ..................XXXXXX        ..................XXXX",
"..          ..      ..............          ..      ............",
"..          ..      ..............          ..      ............",
"....      ..              ..........      ..              ......",
"....      ..              ..........      ..              ......",
"......XXXXXX..        ................XXXXXX..        ..........",
"......XXXXXX..        ................XXXXXX..        ..........",
"....XXooooXXXX..............ooXX....XXooooXXXX..............ooXX",
"....XXooooXXXX..............ooXX....XXooooXXXX..............ooXX",
"......ooooXX............XXoooooo......ooooXX............XXoooooo",
"......ooooXX............XXoooooo......ooooXX............XXoooooo"
};
