/* XPM */
static char *result[] = {
/* columns rows colors chars-per-pixel */
"64 64 17 1 ",
"  c #40362D",
". c #4E4339",
"X c #424A4A",
"o c #584E43",
"O c #4A5252",
"+ c #4A5A5A",
"@ c #525A52",
"# c #62584E",
"$ c #6C6258",
"% c #776C58",
"& c #526363",
"* c #737363",
"= c #827758",
"- c #8C826C",
"; c #968C77",
": c #A19682",
"> c #AA9F8C",
/* pixels */
"::::;;::::::::::::::::::::::::::;;;;--;;==##%%%%##oo##  --**@@&&",
"::::;;::::::::::::::::::::::::::;;;;--;;==##%%%%##oo##  --**@@&&",
"::::;;::::::::;;::::::::::::::::;;;;--;;==##%%%%##oo##  --**@@XX",
"::::;;::::::::;;::::::::::::::::;;;;--;;==##%%%%##oo##  --**@@XX",
"::::;;;;::;;;;;;;;;;;;;;::------------;;;;##%%####oooo  --**@@OO",
"::::;;;;::;;;;;;;;;;;;;;::------------;;;;##%%####oooo  --**@@OO",
"::;;;;;;----;;;;;;;;;;--;;;;--------::::--%%########oo  %%**@@OO",
"::;;;;;;----;;;;;;;;;;--;;;;--------::::--%%########oo  %%**@@OO",
";;;;;;;;;;::::::::::;;::;;::::::;;::::;;==--##oo####oo  %%**@@OO",
";;;;;;;;;;::::::::::;;::;;::::::;;::::;;==--##oo####oo  %%**@@OO",
";;::::;;::::::::::::::::::::::;;;;====%%==--%%oooo####..%%**@@++",
";;::::;;::::::::::::::::::::::;;;;====%%==--%%oooo####..%%**@@++",
"::::::::::::::::>>::::::::::::------==%%;;----##..##oo..--**@@OO",
"::::::::::::::::>>::::::::::::------==%%;;----##..##oo..--**@@OO",
"::::::::::::::::::::>>>>::>>>>;;----====;;----$$oo  ..%%--**@@&&",
"::::::::::::::::::::>>>>::>>>>;;----====;;----$$oo  ..%%--**@@&&",
"::::::::::::::::::::::::::>>>>::::;;====;;--==$$##  %%%%--**@@&&",
"::::::::::::::::::::::::::>>>>::::;;====;;--==$$##  %%%%--**@@&&",
"::::::;;;;::::::::::::::::>>::::::::;;==;;$$==####..%%--**@@OO&&",
"::::::;;;;::::::::::::::::>>::::::::;;==;;$$==####..%%--**@@OO&&",
"::::::::::::::::::::::::::;;::::::;;;;----$$$$####oo..--**@@OO++",
"::::::::::::::::::::::::::;;::::::;;;;----$$$$####oo..--**@@OO++",
"::::;;;;::::::;;;;------;;;;;;::::--====----##oo####  %%%%**@@OO",
"::::;;;;::::::;;;;------;;;;;;::::--====----##oo####  %%%%**@@OO",
"----;;>>>>>>>>--;;--------::::::::::;;;;;;--$$oo####..  %%**@@OO",
"----;;>>>>>>>>--;;--------::::::::::;;;;;;--$$oo####..  %%**@@OO",
"::::;;::::::::::;;;;--------;;;;::::;;::;;====oo..####  %%**@@OO",
"::::;;::::::::::;;;;--------;;;;::::;;::;;====oo..####  %%**@@OO",
"::::::::::::::;;;;----;;;;;;;;;;----;;;;--==%%##..oo##  --**@@++",
"::::::::::::::;;;;----;;;;;;;;;;----;;;;--==%%##..oo##  --**@@++",
"::::::::::::::>>;;;;;;;;;;::::::;;;;--;;==%%%%%%##oo##  --**@@&&",
"::::::::::::::>>;;;;;;;;;;::::::;;;;--;;==%%%%%%##oo##  --**@@&&",
"::::;;::::::::::::::::::::::::::;;;;--;;==##%%%%##oo##  --**@@&&",
"::::;;::::::::::::::::::::::::::;;;;--;;==##%%%%##oo##  --**@@&&",
"::::;;::::::::;;::::::::::::::::;;;;--;;==##%%%%##oo##  --**@@XX",
"::::;;::::::::;;::::::::::::::::;;;;--;;==##%%%%##oo##  --**@@XX",
"::::;;;;::;;;;;;;;;;;;;;::------------;;;;##%%####oooo  --**@@OO",
"::::;;;;::;;;;;;;;;;;;;;::------------;;;;##%%####oooo  --**@@OO",
"::;;;;;;----;;;;;;;;;;--;;;;--------::::--%%########oo  %%**@@OO",
"::;;;;;;----;;;;;;;;;;--;;;;--------::::--%%########oo  %%**@@OO",
";;;;;;;;;;::::::::::;;::;;::::::;;::::;;==--##oo####oo  %%**@@OO",
";;;;;;;;;;::::::::::;;::;;::::::;;::::;;==--##oo####oo  %%**@@OO",
";;::::;;::::::::::::::::::::::;;;;====%%==--%%oooo####..%%**@@++",
";;::::;;::::::::::::::::::::::;;;;====%%==--%%oooo####..%%**@@++",
"::::::::::::::::>>::::::::::::------==%%;;----##..##oo..--**@@OO",
"::::::::::::::::>>::::::::::::------==%%;;----##..##oo..--**@@OO",
"::::::::::::::::::::>>>>::>>>>;;----====;;----$$oo  ..%%--**@@&&",
"::::::::::::::::::::>>>>::>>>>;;----====;;----$$oo  ..%%--**@@&&",
"::::::::::::::::::::::::::>>>>::::;;====;;--==$$##  %%%%--**@@&&",
"::::::::::::::::::::::::::>>>>::::;;====;;--==$$##  %%%%--**@@&&",
"::::::;;;;::::::::::::::::>>::::::::;;==;;$$==####..%%--**@@OO&&",
"::::::;;;;::::::::::::::::>>::::::::;;==;;$$==####..%%--**@@OO&&",
"::::::::::::::::::::::::::;;::::::;;;;----$$$$####oo..--**@@OO++",
"::::::::::::::::::::::::::;;::::::;;;;----$$$$####oo..--**@@OO++",
"::::;;;;::::::;;;;------;;;;;;::::--====----##oo####  %%%%**@@OO",
"::::;;;;::::::;;;;------;;;;;;::::--====----##oo####  %%%%**@@OO",
"----;;>>>>>>>>--;;--------::::::::::;;;;;;--$$oo####..  %%**@@OO",
"----;;>>>>>>>>--;;--------::::::::::;;;;;;--$$oo####..  %%**@@OO",
"::::;;::::::::::;;;;--------;;;;::::;;::;;====oo..####  %%**@@OO",
"::::;;::::::::::;;;;--------;;;;::::;;::;;====oo..####  %%**@@OO",
"::::::::::::::;;;;----;;;;;;;;;;----;;;;--==%%##..oo##  --**@@++",
"::::::::::::::;;;;----;;;;;;;;;;----;;;;--==%%##..oo##  --**@@++",
"::::::::::::::>>;;;;;;;;;;::::::;;;;--;;==%%%%%%##oo##  --**@@&&",
"::::::::::::::>>;;;;;;;;;;::::::;;;;--;;==%%%%%%##oo##  --**@@&&"
};
