/* XPM */
static char *result[] = {
/* columns rows colors chars-per-pixel */
"64 64 17 1 ",
"  c #40362D",
". c #4E4339",
"X c #584E43",
"o c #4A5252",
"O c #4A5A5A",
"+ c #525A52",
"@ c #62584E",
"# c #6C6258",
"$ c #776C58",
"% c #737363",
"& c #827758",
"* c #8C826C",
"= c #968C77",
"- c #9F9480",
"; c #9F9580",
": c #A19682",
"> c #AA9F8C",
/* pixels */
"::::::::::::::::::::::::::;;------::::::::::::::::::::::::==::::",
"::::::::::::::::::::::::::;;------::::::::::::::::::::::::==::::",
"::::::::::::::::::::::::::::::::::::::::::::::::::::::::::::::::",
"::::::::::::::::::::::::::::::::::::::::::::::::::::::::::::::::",
"::::::::::::==::::::::==::::::::::::::::::::==::::::::==::::::::",
"::::::::::::==::::::::==::::::::::::::::::::==::::::::==::::::::",
"**::==::::::====::==============**::==::::::====::==============",
"**::==::::::====::==============**::==::::::====::==============",
"======::::======****==========**======::::======****==========**",
"======::::======****==========**======::::======****==========**",
"::================::::::::::==::::================::::::::::==::",
"::================::::::::::==::::================::::::::::==::",
"::::======::::==::::::::::::::::::::======::::==::::::::::::::::",
"::::======::::==::::::::::::::::::::======::::==::::::::::::::::",
"::::::::::::::::::::::::>>::::::::::::::::::::::::::::::>>::::::",
"::::::::::::::::::::::::>>::::::::::::::::::::::::::::::>>::::::",
">>::::::::::::::::::::::::::>>>>>>::::::::::::::::::::::::::>>>>",
">>::::::::::::::::::::::::::>>>>>>::::::::::::::::::::::::::>>>>",
">>::::==::::::::::::::::::::::::>>::::==::::::::::::::::::::::::",
">>::::==::::::::::::::::::::::::>>::::==::::::::::::::::::::::::",
">>::::::::::::====::::::::::::::>>::::::::::::====::::::::::::::",
">>::::::::::::====::::::::::::::>>::::::::::::====::::::::::::::",
"==::::::::::::::::::::::::::::::==::::::::::::::::::::::::::::::",
"==::::::::::::::::::::::::::::::==::::::::::::::::::::::::::::::",
"========::::====::::::====******========::::====::::::====******",
"========::::====::::::====******========::::====::::::====******",
"::====******==&&&&&&&&**==******::====******==&&&&&&&&**==******",
"::====******==&&&&&&&&**==******::====******==&&&&&&&&**==******",
"**====::::::==::::::::::====******====::::::==::::::::::====****",
"**====::::::==::::::::::====******====::::::==::::::::::====****",
"$$##====::::**::::::::====****$$$$##====::::**::::::::====****$$",
"$$##====::::**::::::::====****$$$$##====::::**::::::::====****$$",
"####$$****@@$$******####@@####@@####$$****@@$$******####@@####@@",
"####$$****@@$$******####@@####@@####$$****@@$$******####@@####@@",
"@@##$$$$$$@@$$$$$$##@@@@@@@@@@XX@@##$$$$$$@@$$$$$$##@@@@@@@@@@XX",
"@@##$$$$$$@@$$$$$$##@@@@@@@@@@XX@@##$$$$$$@@$$$$$$##@@@@@@@@@@XX",
"@@##XX$$$$@@$$$$$$$$XXXX@@@@$$XX@@##XX$$$$@@$$$$$$$$XXXX@@@@$$XX",
"@@##XX$$$$@@$$$$$$$$XXXX@@@@$$XX@@##XX$$$$@@$$$$$$$$XXXX@@@@$$XX",
"XXXXXX$$$$@@$$$$$$@@XXXXXX$$$$XXXXXXXX$$$$@@$$$$$$@@XXXXXX$$$$XX",
"XXXXXX$$$$@@$$$$$$@@XXXXXX$$$$XXXXXXXX$$$$@@$$$$$$@@XXXXXX$$$$XX",
"XXXXXX$$$$@@$$$$$$@@XXXXXX$$$$..XXXXXX$$$$@@$$$$$$@@XXXXXX$$$$XX",
"XXXXXX$$$$@@$$$$$$@@XXXXXX$$$$..XXXXXX$$$$@@$$$$$$@@XXXXXX$$$$XX",
"XX..XX@@@@@@@@@@@@@@XX..XX$$@@..XX..XX@@@@@@@@@@@@@@XX..XX$$@@XX",
"XX..XX@@@@@@@@@@@@@@XX..XX$$@@..XX..XX@@@@@@@@@@@@@@XX..XX$$@@XX",
"XX..XX@@@@XX@@@@@@@@XX....@@@@..XX..XX@@@@XX@@@@@@@@XX....@@@@XX",
"XX..XX@@@@XX@@@@@@@@XX....@@@@..XX..XX@@@@XX@@@@@@@@XX....@@@@XX",
"XX..XX@@@@XX@@@@@@@@......XX..  XX..XX@@@@XX@@@@@@@@......XX..XX",
"XX..XX@@@@XX@@@@@@@@......XX..  XX..XX@@@@XX@@@@@@@@......XX..XX",
"XX..XXXX@@....@@@@@@..........  XX..XXXX@@....@@@@@@..........XX",
"XX..XXXX@@....@@@@@@..........  XX..XXXX@@....@@@@@@..........XX",
"      XX@@....@@@@@@XX....  ..        XX@@....@@@@@@XX......    ",
"      XX@@....@@@@@@XX....  ..        XX@@....@@@@@@XX......    ",
"$$$$..      ..XXXX@@....      ..**$$..      ..XXXX@@....      $$",
"$$$$..      ..XXXX@@....      ..**$$..      ..XXXX@@....      $$",
"******$$$$$$XXXX..      XX$$$$**********$$$$XXXX..      XX$$****",
"******$$$$$$XXXX..      XX$$$$**********$$$$XXXX..      XX$$****",
"%%%%********$$$$$$$$$$********%%%%%%**********$$$$$$$$$$****%%%%",
"%%%%********$$$$$$$$$$********%%%%%%**********$$$$$$$$$$****%%%%",
"oooo%%%%%%%%%%%%%%%%%%%%%%%%%%oooooo%%%%%%%%%%%%%%%%%%%%%%%%oooo",
"oooo%%%%%%%%%%%%%%%%%%%%%%%%%%oooooo%%%%%%%%%%%%%%%%%%%%%%%%oooo",
"oo++++++++++++++++++++++++++++oooooo++++++++++++++++++++++++++++",
"oo++++++++++++++++++++++++++++oooooo++++++++++++++++++++++++++++",
"ooooooooooooOOOOOOooooooooOOOOooooooooooooooooOOooooooooOOOOOOoo",
"ooooooooooooOOOOOOooooooooOOOOooooooooooooooooOOooooooooOOOOOOoo"
};
