/* XPM */
static char *result[] = {
/* columns rows colors chars-per-pixel */
"64 64 65 1 ",
"  c #40362D",
". c #4E4339",
"X c #584E43",
"o c #4A5252",
"O c #4A5A5A",
"+ c #525A52",
"@ c #62584E",
"# c #6C6258",
"$ c #636B5A",
"% c #776C58",
"& c #526363",
"* c #737363",
"= c #827758",
"- c #8C826C",
"; c #918771",
": c #918772",
"> c #938973",
", c #948974",
"< c #948A74",
"1 c #948B75",
"2 c #958B76",
"3 c #968C76",
"4 c #968C77",
"5 c #978D78",
"6 c #988D78",
"7 c #988E79",
"8 c #998E7A",
"9 c #998F7A",
"0 c #9C9077",
"q c #9A907B",
"w c #9B907B",
"e c #9B907C",
"r c #9C917C",
"t c #9C917D",
"y c #9D927D",
"u c #9D927E",
"i c #9D937E",
"p c #9D937F",
"a c #9E937E",
"s c #9E937F",
"d c #9E947F",
"f c #9F947F",
"g c #9F9480",
"h c #9F9580",
"j c #A09580",
"k c #A09581",
"l c #A09681",
"z c #A19681",
"x c #A29681",
"c c #A29781",
"v c #A09682",
"b c #A19682",
"n c #A29682",
"m c #A29782",
"M c #A29783",
"N c #A39882",
"B c #A39883",
"V c #A59A83",
"C c #A39884",
"Z c #A49884",
"A c #A49986",
"S c #A59A86",
"D c #A89D8A",
"F c #AA9F8C",
"G c #ABA08E",
/* pixels */
"bbbb44bbbbbbbbbbbbbbbbbbbbbbbbgggggghhbbbbbbbbbbbbbbbbbbbbbbbbbb",
"bbbb44bbbbbbbbbbbbbbbbbbbbbbbbgggggghhbbbbbbbbbbbbbbbbbbbbbbbbbb",
"bbbb44bbbbbbbb44bbbbbbbbbbbbwwuussggddbb44bbbbbbbb44bbbbbbbbbbbb",
"bbbb44bbbbbbbb44bbbbbbbbbbbbwwuussggddbb44bbbbbbbb44bbbbbbbbbbbb",
"bbbb4444bb44444444444444bb----::<<11qq44444444bb4444bbbbbb44bb--",
"bbbb4444bb44444444444444bb----::<<11qq44444444bb4444bbbbbb44bb--",
"bb444444----4444444444--4444-->>33;;44444444----444444bbbb444444",
"bb444444----4444444444--4444-->>33;;44444444----444444bbbb444444",
"4444444444bbbbbbbbbb44bb44bbbb772266bbbbbbbbbb4444444444444444bb",
"4444444444bbbbbbbbbb44bb44bbbb772266bbbbbbbbbb4444444444444444bb",
"44bbbb44bbbbbbbbbbbbbbbbbbbbGGyyZZSSggbbbbbbbbbb44bbbb444444bbbb",
"44bbbb44bbbbbbbbbbbbbbbbbbbbGGyyZZSSggbbbbbbbbbb44bbbb444444bbbb",
"bbbbbbbbbbbbbbbbFFbbbbbbbbbb00ccxxffssAAbbbbbbbbbbbbbbbbbbbbbbbb",
"bbbbbbbbbbbbbbbbFFbbbbbbbbbb00ccxxffssAAbbbbbbbbbbbbbbbbbbbbbbbb",
"bbbbbbbbbbbbbbbbbbbbFFFFbbFFVVNNnnkkjjggbbbbbbbbbbbbbbbbbbbbbbFF",
"bbbbbbbbbbbbbbbbbbbbFFFFbbFFVVNNnnkkjjggbbbbbbbbbbbbbbbbbbbbbbFF",
"bbbbbbbbbbbbbbbbbbbbbbbbbbFFFFBBmmbbzzbbbbbbbbbbbbbbbbbb44bbbbFF",
"bbbbbbbbbbbbbbbbbbbbbbbbbbFFFFBBmmbbzzbbbbbbbbbbbbbbbbbb44bbbbFF",
"bbbbbb4444bbbbbbbbbbbbbbbbFFbbbbbbbbbbbbbbbbbb4444bbbbbbbbbbbbFF",
"bbbbbb4444bbbbbbbbbbbbbbbbFFbbbbbbbbbbbbbbbbbb4444bbbbbbbbbbbbFF",
"bbbbbbssbbbbbbbbbbhhgg99qq44bbbbbb44bbbbbbbbbbbbbbbbbbbbbbbbbb44",
"bbbbbbssbbbbbbbbbbhhgg99qq44bbbbbb44bbbbbbbbbbbbbbbbbbbbbbbbbb44",
"bbggjjhhbbbbbbMMlluu4455554444bbbb----4444bbbbbb4444bbbb44444444",
"bbggjjhhbbbbbbMMlluu4455554444bbbb----4444bbbbbb4444bbbb44444444",
"--rrddkkbbCCDDSSMMuu772244bbbbbbbbbb--44--========44------4444bb",
"--rrddkkbbCCDDSSMMuu772244bbbbbbbbbb--44--========44------4444bb",
"bbiiggkkbbbbhhuutttt88pp,,--444444bb44--%%==bbbb--bbbb44444444--",
"bbiiggkkbbbbhhuutttt88pp,,--444444bb44--%%==bbbb--bbbb44444444--",
"bbggkkkkbbbbvvggssuuee9977444444bbbb--==%%%%--====##----%%44##%%",
"bbggkkkkbbbbvvggssuuee9977444444bbbb--==%%%%--====##----%%44##%%",
"bbbbbbbbbbbbbbkkkkggaauuiibbbbbbbb444444--%%--====##%%%%%%%%####",
"bbbbbbbbbbbbbbkkkkggaauuiibbbbbbbb444444--%%--====##%%%%%%%%####",
"bbbb44bbbbbbbbbbCCbbkkggkkbbbbbb444444--44==%%==%%@@%%%%XX%%##@@",
"bbbb44bbbbbbbbbbCCbbkkggkkbbbbbb444444--44==%%==%%@@%%%%XX%%##@@",
"bbbb44bbbbbbbb44bbbbbbbbbbbbbbbb--------44%%@@%%%%@@##%%XXXX##@@",
"bbbb44bbbbbbbb44bbbbbbbbbbbbbbbb--------44%%@@%%%%@@##%%XXXX##@@",
"bbbb4444bb44444444444444bb------------bbbb%%%%XX##@@@@..XXXXXXXX",
"bbbb4444bb44444444444444bb------------bbbb%%%%XX##@@@@..XXXXXXXX",
"bb444444----4444444444--4444----bb44bbbb44==--@@XX@@@@..XXXXXXXX",
"bb444444----4444444444--4444----bb44bbbb44==--@@XX@@@@..XXXXXXXX",
"4444444444bbbbbbbbbb44bb44bbbbbb4444====%%==--%%XX@@XX  XXXX..XX",
"4444444444bbbbbbbbbb44bb44bbbbbb4444====%%==--%%XX@@XX  XXXX..XX",
"44bbbb44bbbbbbbbbbbbbbbbbbbbbb44------==%%%%----@@..XX  XXXX..XX",
"44bbbb44bbbbbbbbbbbbbbbbbbbbbb44------==%%%%----@@..XX  XXXX..XX",
"bbbbbbbbbbbbbbbbFFbbbbbbbbbbbb--44----====%%4444%%@@  ..XXXX..XX",
"bbbbbbbbbbbbbbbbFFbbbbbbbbbbbb--44----====%%4444%%@@  ..XXXX..XX",
"bbbbbbbbbbbbbbbbbbbbbbFFFFbbFFFF44----====44----##XX  ..  XX..XX",
"bbbbbbbbbbbbbbbbbbbbbbFFFFbbFFFF44----====44----##XX  ..  XX..XX",
"bbbbbbbbbbbbbbbbbbbbbbbbbbbbFFFFbbbb44====44--==##@@  ....      ",
"bbbbbbbbbbbbbbbbbbbbbbbbbbbbFFFFbbbb44====44--==##@@  ....      ",
"bbbbbbbb4444bbbbbbbbbbbbbbbbFFbbbbbbbb44==44##==@@@@....--%%--%%",
"bbbbbbbb4444bbbbbbbbbbbbbbbbFFbbbbbbbb44==44##==@@@@....--%%--%%",
"bbbbbbbbbbbbbbbbbbbbbbbbbbbb44bbbbbb4444----####@@@@XX..--****--",
"bbbbbbbbbbbbbbbbbbbbbbbbbbbb44bbbbbb4444----####@@@@XX..--****--",
"bbbbbb4444bbbbbb4444------444444bbbb--====----@@XX@@..%%%%**$$--",
"bbbbbb4444bbbbbb4444------444444bbbb--====----@@XX@@..%%%%**$$--",
"------44FFFFFFFF--44--------bbbbbbbbbb444444--##XX@@--%%**oo++++",
"------44FFFFFFFF--44--------bbbbbbbbbb444444--##XX@@--%%**oo++++",
"bbbbbb44bbbbbbbbbb4444--------4444bbbb44bb44====XX..--%%**oo++oo",
"bbbbbb44bbbbbbbbbb4444--------4444bbbb44bb44====XX..--%%**oo++oo",
"bbbbbbbbbbbbbbbb4444----4444444444----4444--==%%@@..XX%%%%**++OO",
"bbbbbbbbbbbbbbbb4444----4444444444----4444--==%%@@..XX%%%%**++OO",
"bbbbbbbbbbbbbbbbFF4444444444bbbbbb4444--44==%%%%%%@@XX----**++&&",
"bbbbbbbbbbbbbbbbFF4444444444bbbbbb4444--44==%%%%%%@@XX----**++&&"
};
