/* XPM */
static char *result[] = {
/* columns rows colors chars-per-pixel */
"64 64 65 1 ",
"  c #40362D",
". c #4E4339",
"X c #584E43",
"o c #4A5252",
"O c #4A5A5A",
"+ c #525A52",
"@ c #62584E",
"# c #6C6258",
"$ c #636B5A",
"% c #776C58",
"& c #526363",
"* c #737363",
"= c #827758",
"- c #8C826C",
"; c #918771",
": c #918772",
"> c #938973",
", c #948974",
"< c #948A74",
"1 c #948B75",
"2 c #958B76",
"3 c #968C76",
"4 c #968C77",
"5 c #978D78",
"6 c #988D78",
"7 c #988E79",
"8 c #998E7A",
"9 c #998F7A",
"0 c #9C9077",
"q c #9A907B",
"w c #9B907B",
"e c #9B907C",
"r c #9C917C",
"t c #9C917D",
"y c #9D927D",
"u c #9D927E",
"i c #9D937E",
"p c #9D937F",
"a c #9E937E",
"s c #9E937F",
"d c #9E947F",
"f c #9F947F",
"g c #9F9480",
"h c #9F9580",
"j c #A09580",
"k c #A09581",
"l c #A09681",
"z c #A19681",
"x c #A29681",
"c c #A29781",
"v c #A09682",
"b c #A19682",
"n c #A29682",
"m c #A29782",
"M c #A29783",
"N c #A39882",
"B c #A39883",
"V c #A59A83",
"C c #A39884",
"Z c #A49884",
"A c #A49986",
"S c #A59A86",
"D c #A89D8A",
"F c #AA9F8C",
"G c #ABA08E",
/* pixels */
"bbbbbbbbbbbbbbbbbbbbbbbbbbhhggggggbbbbbbbbbbbbbbbbbbbbbbbb44bbbb",
"bbbbbbbbbbbbbbbbbbbbbbbbbbhhggggggbbbbbbbbbbbbbbbbbbbbbbbb44bbbb",
"bbbbbbbbbbbb44bbbbbbbb44bbddggssuuwwbbbbbbbbbbbb44bbbbbbbb44bbbb",
"bbbbbbbbbbbb44bbbbbbbb44bbddggssuuwwbbbbbbbbbbbb44bbbbbbbb44bbbb",
"--bb44bbbbbb4444bb44444444qq11<<::----bb44444444444444bb4444bbbb",
"--bb44bbbbbb4444bb44444444qq11<<::----bb44444444444444bb4444bbbb",
"444444bbbb444444----44444444;;33>>--4444--4444444444----444444bb",
"444444bbbb444444----44444444;;33>>--4444--4444444444----444444bb",
"bb4444444444444444bbbbbbbbbb662277bbbb44bb44bbbbbbbbbb4444444444",
"bb4444444444444444bbbbbbbbbb662277bbbb44bb44bbbbbbbbbb4444444444",
"bbbb444444bbbb44bbbbbbbbbbggSSZZyyGGbbbbbbbbbbbbbbbbbbbb44bbbb44",
"bbbb444444bbbb44bbbbbbbbbbggSSZZyyGGbbbbbbbbbbbbbbbbbbbb44bbbb44",
"bbbbbbbbbbbbbbbbbbbbbbbbAAssffxxcc00bbbbbbbbbbFFbbbbbbbbbbbbbbbb",
"bbbbbbbbbbbbbbbbbbbbbbbbAAssffxxcc00bbbbbbbbbbFFbbbbbbbbbbbbbbbb",
"FFbbbbbbbbbbbbbbbbbbbbbbggjjkknnNNVVFFbbFFFFbbbbbbbbbbbbbbbbbbbb",
"FFbbbbbbbbbbbbbbbbbbbbbbggjjkknnNNVVFFbbFFFFbbbbbbbbbbbbbbbbbbbb",
"FFbbbb44bbbbbbbbbbbbbbbbbbzzbbmmBBFFFFbbbbbbbbbbbbbbbbbbbbbbbbbb",
"FFbbbb44bbbbbbbbbbbbbbbbbbzzbbmmBBFFFFbbbbbbbbbbbbbbbbbbbbbbbbbb",
"FFbbbbbbbbbbbb4444bbbbbbbbbbbbbbbbbbFFbbbbbbbbbbbbbbbb4444bbbbbb",
"FFbbbbbbbbbbbb4444bbbbbbbbbbbbbbbbbbFFbbbbbbbbbbbbbbbb4444bbbbbb",
"44bbbbbbbbbbbbbbbbbbbbbbbbbb44bbbbbb44qq99gghhbbbbbbbbbbssbbbbbb",
"44bbbbbbbbbbbbbbbbbbbbbbbbbb44bbbbbb44qq99gghhbbbbbbbbbbssbbbbbb",
"44444444bbbb4444bbbbbb4444----bbbb4444555544uullMMbbbbbbhhjjggbb",
"44444444bbbb4444bbbbbb4444----bbbb4444555544uullMMbbbbbbhhjjggbb",
"bb4444------44========--44--bbbbbbbbbb442277uuMMSSDDCCbbkkddrr--",
"bb4444------44========--44--bbbbbbbbbb442277uuMMSSDDCCbbkkddrr--",
"--44444444bbbb--bbbb==%%--44bb444444--,,pp88ttttuuhhbbbbkkggiibb",
"--44444444bbbb--bbbb==%%--44bb444444--,,pp88ttttuuhhbbbbkkggiibb",
"%%##44%%----##====--%%%%==--bbbb4444447799eeuussggvvbbbbkkkkggbb",
"%%##44%%----##====--%%%%==--bbbb4444447799eeuussggvvbbbbkkkkggbb",
"####%%%%%%%%##====--%%--444444bbbbbbbbiiuuaaggkkkkbbbbbbbbbbbbbb",
"####%%%%%%%%##====--%%--444444bbbbbbbbiiuuaaggkkkkbbbbbbbbbbbbbb",
"@@##%%XX%%%%@@%%==%%==44--444444bbbbbbkkggkkbbCCbbbbbbbbbb44bbbb",
"@@##%%XX%%%%@@%%==%%==44--444444bbbbbbkkggkkbbCCbbbbbbbbbb44bbbb",
"@@##XXXX%%##@@%%%%@@%%44--------bbbbbbbbbbbbbbbb44bbbbbbbb44bbbb",
"@@##XXXX%%##@@%%%%@@%%44--------bbbbbbbbbbbbbbbb44bbbbbbbb44bbbb",
"XXXXXXXX..@@@@##XX%%%%bbbb------------bb44444444444444bb4444bbbb",
"XXXXXXXX..@@@@##XX%%%%bbbb------------bb44444444444444bb4444bbbb",
"XXXXXXXX..@@@@XX@@--==44bbbb44bb----4444--4444444444----444444bb",
"XXXXXXXX..@@@@XX@@--==44bbbb44bb----4444--4444444444----444444bb",
"XX..XXXX  XX@@XX%%--==%%====4444bbbbbb44bb44bbbbbbbbbb4444444444",
"XX..XXXX  XX@@XX%%--==%%====4444bbbbbb44bb44bbbbbbbbbb4444444444",
"XX..XXXX  XX..@@----%%%%==------44bbbbbbbbbbbbbbbbbbbbbb44bbbb44",
"XX..XXXX  XX..@@----%%%%==------44bbbbbbbbbbbbbbbbbbbbbb44bbbb44",
"XX..XXXX..  @@%%4444%%====----44--bbbbbbbbbbbbFFbbbbbbbbbbbbbbbb",
"XX..XXXX..  @@%%4444%%====----44--bbbbbbbbbbbbFFbbbbbbbbbbbbbbbb",
"XX..XX  ..  XX##----44====----44FFFFbbFFFFbbbbbbbbbbbbbbbbbbbbbb",
"XX..XX  ..  XX##----44====----44FFFFbbFFFFbbbbbbbbbbbbbbbbbbbbbb",
"      ....  @@##==--44====44bbbbFFFFbbbbbbbbbbbbbbbbbbbbbbbbbbbb",
"      ....  @@##==--44====44bbbbFFFFbbbbbbbbbbbbbbbbbbbbbbbbbbbb",
"%%--%%--....@@@@==##44==44bbbbbbbbFFbbbbbbbbbbbbbbbb4444bbbbbbbb",
"%%--%%--....@@@@==##44==44bbbbbbbbFFbbbbbbbbbbbbbbbb4444bbbbbbbb",
"--****--..XX@@@@####----4444bbbbbb44bbbbbbbbbbbbbbbbbbbbbbbbbbbb",
"--****--..XX@@@@####----4444bbbbbb44bbbbbbbbbbbbbbbbbbbbbbbbbbbb",
"--$$**%%%%..@@XX@@----====--bbbb444444------4444bbbbbb4444bbbbbb",
"--$$**%%%%..@@XX@@----====--bbbb444444------4444bbbbbb4444bbbbbb",
"++++oo**%%--@@XX##--444444bbbbbbbbbb--------44--FFFFFFFF44------",
"++++oo**%%--@@XX##--444444bbbbbbbbbb--------44--FFFFFFFF44------",
"oo++oo**%%--..XX====44bb44bbbb4444--------4444bbbbbbbbbb44bbbbbb",
"oo++oo**%%--..XX====44bb44bbbb4444--------4444bbbbbbbbbb44bbbbbb",
"OO++**%%%%XX..@@%%==--4444----4444444444----4444bbbbbbbbbbbbbbbb",
"OO++**%%%%XX..@@%%==--4444----4444444444----4444bbbbbbbbbbbbbbbb",
"&&++**----XX@@%%%%%%==44--4444bbbbbb4444444444FFbbbbbbbbbbbbbbbb",
"&&++**----XX@@%%%%%%==44--4444bbbbbb4444444444FFbbbbbbbbbbbbbbbb"
};
